NotoSansBengali_new.glyphspackage
{
color = 0;
glyphname = exclam.beng;
layers = (
{
associatedMasterId = UUID0;
attr = {
coordinates = (
151,
100
);
};
background = {
shapes = (
{
closed = 1;
nodes = (
(280.7,232.11,l),
(305.7,714,l),
(135.26,714,l),
(160.26,232.11,l)
);
},
{
closed = 1;
nodes = (
(132.97,11.49,o),
(172.17,-12.78,o),
(219.98,-12.78,cs),
(266.4,-12.78,o),
(305.77,11.49,o),
(305.77,70.47,cs),
(305.77,131.67,o),
(266.4,153.94,o),
(219.98,153.94,cs),
(172.17,153.94,o),
(132.97,131.67,o),
(132.97,70.47,cs)
);
}
);
};
layerId = "b4ccef6a-068a-45d3-9834-f9d01056fdde";
name = "Bold Semi (intermediate)";
shapes = (
{
closed = 1;
nodes = (
(278,237,l),
(303,714,l),
(134,714,l),
(159,237,l)
);
},
{
closed = 1;
nodes = (
(132,11,o),
(170,-13,o),
(218,-13,cs),
(264,-13,o),
(303,11,o),
(303,70,cs),
(303,131,o),
(264,153,o),
(218,153,cs),
(170,153,o),
(132,131,o),
(132,70,cs)
);
}
);
width = 403;
},
{
background = {
shapes = (
{
closed = 1;
nodes = (
(238,201,l),
(263,714,l),
(156,714,l),
(181,201,l)
);
},
{
closed = 1;
nodes = (
(147,6,o),
(174,-14,o),
(209,-14,cs),
(242,-14,o),
(271,6,o),
(271,54,cs),
(271,103,o),
(242,121,o),
(209,121,cs),
(174,121,o),
(147,103,o),
(147,54,cs)
);
}
);
};
layerId = UUID0;
shapes = (
{
closed = 1;
nodes = (
(238,201,l),
(263,714,l),
(156,714,l),
(181,201,l)
);
},
{
closed = 1;
nodes = (
(147,6,o),
(174,-14,o),
(209,-14,cs),
(242,-14,o),
(271,6,o),
(271,54,cs),
(271,103,o),
(242,121,o),
(209,121,cs),
(174,121,o),
(147,103,o),
(147,54,cs)
);
}
);
width = 383;
},
{
layerId = "28FB090A-653E-4199-B7BE-FAE23D31B682";
shapes = (
{
closed = 1;
nodes = (
(191,174,l),
(193,714,l),
(165,714,l),
(167,174,l)
);
},
{
closed = 1;
nodes = (
(152,6,o),
(157,-8,o),
(177,-8,cs),
(201,-8,o),
(204,6,o),
(204,23,cs),
(204,39,o),
(201,54,o),
(177,54,cs),
(157,54,o),
(152,39,o),
(152,23,cs)
);
}
);
width = 322;
},
{
layerId = "F455777D-7EDD-47E2-866A-D8A5173CE243";
shapes = (
{
closed = 1;
nodes = (
(308,252,l),
(333,714,l),
(122,714,l),
(147,252,l)
);
},
{
closed = 1;
nodes = (
(124,15,o),
(171,-12,o),
(227,-12,cs),
(282,-12,o),
(328,15,o),
(328,81,cs),
(328,150,o),
(282,175,o),
(227,175,cs),
(171,175,o),
(124,150,o),
(124,81,cs)
);
}
);
width = 429;
},
{
associatedMasterId = m005;
attr = {
coordinates = (
151,
70
);
};
background = {
shapes = (
{
closed = 1;
nodes = (
(280.7,232.11,l),
(305.7,714,l),
(135.26,714,l),
(160.26,232.11,l)
);
},
{
closed = 1;
nodes = (
(132.97,11.49,o),
(172.17,-12.78,o),
(219.98,-12.78,cs),
(266.4,-12.78,o),
(305.77,11.49,o),
(305.77,70.47,cs),
(305.77,131.67,o),
(266.4,153.94,o),
(219.98,153.94,cs),
(172.17,153.94,o),
(132.97,131.67,o),
(132.97,70.47,cs)
);
}
);
};
layerId = "F6ECFB83-C1A9-4CE4-860C-EBEBCA78A548";
name = "Bold Semi (intermediate)";
shapes = (
{
closed = 1;
nodes = (
(245,234,l),
(264,714,l),
(86,714,l),
(105,234,l)
);
},
{
closed = 1;
nodes = (
(89,11,o),
(128,-13,o),
(174,-13,cs),
(220,-13,o),
(258,11,o),
(258,69,cs),
(258,128,o),
(220,150,o),
(174,150,cs),
(128,150,o),
(89,128,o),
(89,69,cs)
);
}
);
width = 334;
},
{
layerId = m005;
shapes = (
{
closed = 1;
nodes = (
(209,201,l),
(231,714,l),
(131,714,l),
(152,201,l)
);
},
{
closed = 1;
nodes = (
(127,12,o),
(146,-10,o),
(181,-10,cs),
(212,-10,o),
(235,10,o),
(235,54,cs),
(235,99,o),
(214,118,o),
(181,118,cs),
(145,118,o),
(127,96,o),
(127,54,cs)
);
}
);
width = 337;
},
{
layerId = m006;
shapes = (
{
closed = 1;
nodes = (
(279,249,l),
(323,714,l),
(108,714,l),
(150,249,l)
);
},
{
closed = 1;
nodes = (
(113,15,o),
(159,-15,o),
(217,-15,cs),
(265,-15,o),
(318,13,o),
(318,93,cs),
(318,177,o),
(267,201,o),
(217,201,cs),
(158,201,o),
(113,174,o),
(113,93,cs)
);
}
);
width = 407;
},
{
layerId = "ADAF9463-560A-4353-9B5A-2FAD12EBF6B5";
shapes = (
{
closed = 1;
nodes = (
(164,170,l),
(172,714,l),
(146,714,l),
(153,170,l)
);
},
{
closed = 1;
nodes = (
(136,10,o),
(138,-7,o),
(158,-7,cs),
(178,-7,o),
(182,8,o),
(182,29,cs),
(182,49,o),
(180,65,o),
(158,65,cs),
(137,65,o),
(136,46,o),
(136,29,cs)
);
}
);
width = 292;
}
);
unicode = 33;
}
{
color = 0;
glyphname = quotedbl.beng;
layers = (
{
background = {
shapes = (
{
closed = 1;
nodes = (
(201,471,l),
(226,729,l),
(115,729,l),
(140,471,l)
);
},
{
closed = 1;
nodes = (
(376,471,l),
(401,729,l),
(291,729,l),
(316,471,l)
);
}
);
};
layerId = UUID0;
shapes = (
{
closed = 1;
nodes = (
(201,471,l),
(226,729,l),
(115,729,l),
(140,471,l)
);
},
{
closed = 1;
nodes = (
(376,471,l),
(401,729,l),
(291,729,l),
(316,471,l)
);
}
);
width = 502;
},
{
layerId = "28FB090A-653E-4199-B7BE-FAE23D31B682";
shapes = (
{
closed = 1;
nodes = (
(147,471,l),
(150,729,l),
(121,729,l),
(124,471,l)
);
},
{
closed = 1;
nodes = (
(293,471,l),
(296,729,l),
(267,729,l),
(270,471,l)
);
}
);
width = 400;
},
{
layerId = "F455777D-7EDD-47E2-866A-D8A5173CE243";
shapes = (
{
closed = 1;
nodes = (
(250,471,l),
(270,729,l),
(96,729,l),
(116,471,l)
);
},
{
closed = 1;
nodes = (
(482,471,l),
(502,729,l),
(328,729,l),
(348,471,l)
);
}
);
width = 582;
},
{
layerId = m005;
shapes = (
{
closed = 1;
nodes = (
(177,471,l),
(194,729,l),
(100,729,l),
(117,471,l)
);
},
{
closed = 1;
nodes = (
(341,471,l),
(358,729,l),
(264,729,l),
(281,471,l)
);
}
);
width = 444;
},
{
layerId = m006;
shapes = (
{
closed = 1;
nodes = (
(243,471,l),
(277,729,l),
(91,729,l),
(125,471,l)
);
},
{
closed = 1;
nodes = (
(455,471,l),
(489,729,l),
(302,729,l),
(336,471,l)
);
}
);
width = 568;
},
{
layerId = "ADAF9463-560A-4353-9B5A-2FAD12EBF6B5";
shapes = (
{
closed = 1;
nodes = (
(135,471,l),
(141,729,l),
(106,729,l),
(112,471,l)
);
},
{
closed = 1;
nodes = (
(268,471,l),
(274,729,l),
(240,729,l),
(246,471,l)
);
}
);
width = 365;
},
{
layerId = "D7742CE6-1B18-47A0-AEB5-463D77EA217C";
shapes = (
{
closed = 1;
nodes = (
(173,471,l),
(189,729,l),
(101,729,l),
(117,471,l)
);
},
{
closed = 1;
nodes = (
(335,471,l),
(351,729,l),
(262,729,l),
(278,471,l)
);
}
);
width = 437;
},
{
layerId = "F138D99C-4E28-42C5-9F3E-22494052B08F";
shapes = (
{
closed = 1;
nodes = (
(239,471,l),
(271,729,l),
(92,729,l),
(124,471,l)
);
},
{
closed = 1;
nodes = (
(447,471,l),
(480,729,l),
(299,729,l),
(332,471,l)
);
}
);
width = 560;
}
);
unicode = 34;
}
{
color = 0;
glyphname = numbersign.beng;
layers = (
{
background = {
shapes = (
{
closed = 1;
nodes = (
(126,0,l),
(195,0,l),
(229,176,l),
(369,176,l),
(334,0,l),
(404,0,l),
(438,176,l),
(584,176,l),
(584,242,l),
(451,242,l),
(480,394,l),
(619,394,l),
(619,459,l),
(493,459,l),
(527,632,l),
(458,632,l),
(424,459,l),
(284,459,l),
(317,632,l),
(247,632,l),
(213,459,l),
(70,459,l),
(70,394,l),
(202,394,l),
(171,242,l),
(34,242,l),
(34,176,l),
(159,176,l)
);
},
{
closed = 1;
nodes = (
(242,242,l),
(271,394,l),
(411,394,l),
(381,242,l)
);
}
);
};
layerId = UUID0;
shapes = (
{
closed = 1;
nodes = (
(126,0,l),
(195,0,l),
(229,176,l),
(369,176,l),
(334,0,l),
(404,0,l),
(438,176,l),
(584,176,l),
(584,242,l),
(451,242,l),
(480,394,l),
(619,394,l),
(619,459,l),
(493,459,l),
(527,632,l),
(458,632,l),
(424,459,l),
(284,459,l),
(317,632,l),
(247,632,l),
(213,459,l),
(70,459,l),
(70,394,l),
(202,394,l),
(171,242,l),
(34,242,l),
(34,176,l),
(159,176,l)
);
},
{
closed = 1;
nodes = (
(242,242,l),
(271,394,l),
(411,394,l),
(381,242,l)
);
}
);
width = 653;
},
{
layerId = "28FB090A-653E-4199-B7BE-FAE23D31B682";
shapes = (
{
closed = 1;
nodes = (
(130,0,l),
(157,0,l),
(194,194,l),
(377,194,l),
(340,0,l),
(367,0,l),
(404,194,l),
(547,194,l),
(547,220,l),
(409,220,l),
(447,414,l),
(584,414,l),
(584,440,l),
(452,440,l),
(489,632,l),
(462,632,l),
(425,440,l),
(242,440,l),
(279,632,l),
(252,632,l),
(215,440,l),
(72,440,l),
(72,414,l),
(210,414,l),
(172,220,l),
(35,220,l),
(35,194,l),
(167,194,l)
);
},
{
closed = 1;
nodes = (
(199,220,l),
(237,414,l),
(420,414,l),
(382,220,l)
);
}
);
width = 619;
},
{
layerId = "F455777D-7EDD-47E2-866A-D8A5173CE243";
shapes = (
{
closed = 1;
nodes = (
(112,0,l),
(246,0,l),
(274,153,l),
(341,153,l),
(313,0,l),
(447,0,l),
(475,153,l),
(600,153,l),
(600,272,l),
(497,272,l),
(514,366,l),
(632,366,l),
(632,485,l),
(536,485,l),
(563,632,l),
(429,632,l),
(402,485,l),
(335,485,l),
(362,632,l),
(228,632,l),
(201,485,l),
(76,485,l),
(76,366,l),
(179,366,l),
(162,272,l),
(44,272,l),
(44,153,l),
(140,153,l)
);
},
{
closed = 1;
nodes = (
(292,269,l),
(311,369,l),
(383,369,l),
(364,269,l)
);
}
);
width = 676;
},
{
layerId = m005;
shapes = (
{
closed = 1;
nodes = (
(92,0,l),
(153,0,l),
(175,177,l),
(271,177,l),
(247,0,l),
(309,0,l),
(333,177,l),
(434,177,l),
(434,240,l),
(344,240,l),
(363,395,l),
(458,395,l),
(458,458,l),
(374,458,l),
(396,632,l),
(335,632,l),
(313,458,l),
(217,458,l),
(239,632,l),
(177,632,l),
(154,458,l),
(55,458,l),
(55,395,l),
(144,395,l),
(125,240,l),
(30,240,l),
(30,177,l),
(114,177,l)
);
},
{
closed = 1;
nodes = (
(187,240,l),
(205,395,l),
(301,395,l),
(283,240,l)
);
}
);
width = 488;
},
{
layerId = m006;
shapes = (
{
closed = 1;
nodes = (
(84,0,l),
(208,0,l),
(223,150,l),
(251,150,l),
(231,0,l),
(357,0,l),
(377,150,l),
(475,150,l),
(475,273,l),
(399,273,l),
(405,364,l),
(496,364,l),
(496,488,l),
(429,488,l),
(444,632,l),
(319,632,l),
(304,488,l),
(276,488,l),
(292,632,l),
(166,632,l),
(149,488,l),
(57,488,l),
(57,364,l),
(128,364,l),
(122,273,l),
(33,273,l),
(33,150,l),
(100,150,l)
);
},
{
closed = 1;
nodes = (
(248,273,l),
(253,364,l),
(281,364,l),
(274,273,l)
);
}
);
width = 528;
},
{
layerId = "ADAF9463-560A-4353-9B5A-2FAD12EBF6B5";
shapes = (
{
closed = 1;
nodes = (
(97,0,l),
(118,0,l),
(144,194,l),
(284,194,l),
(257,0,l),
(278,0,l),
(305,194,l),
(408,194,l),
(408,219,l),
(309,219,l),
(336,415,l),
(434,415,l),
(434,439,l),
(339,439,l),
(365,632,l),
(345,632,l),
(319,439,l),
(179,439,l),
(205,632,l),
(184,632,l),
(157,439,l),
(54,439,l),
(54,415,l),
(154,415,l),
(127,219,l),
(28,219,l),
(28,194,l),
(123,194,l)
);
},
{
closed = 1;
nodes = (
(148,219,l),
(174,415,l),
(314,415,l),
(289,219,l)
);
}
);
width = 462;
}
);
unicode = 35;
}
{
color = 0;
glyphname = percent.beng;
layers = (
{
associatedMasterId = UUID0;
attr = {
coordinates = (
151,
100
);
};
background = {
shapes = (
{
closed = 1;
nodes = (
(200.08,0,l),
(315.9,0,l),
(707.61,622,l),
(592.18,622,l)
);
},
{
closed = 1;
nodes = (
(326.57,263.07,o),
(383.77,331.9,o),
(383.77,448.34,cs),
(383.77,564.78,o),
(322.4,632,o),
(212.98,632,cs),
(104.05,632,o),
(45.41,564.78,o),
(45.41,448.34,cs),
(45.41,331.9,o),
(105.78,263.07,o),
(212.98,263.07,cs)
);
},
{
closed = 1;
nodes = (
(176.84,359.62,o),
(163.16,391.69,o),
(163.16,447.73,cs),
(163.16,503.77,o),
(176.84,535.45,o),
(213.81,535.45,cs),
(250.39,535.45,o),
(265.63,503.77,o),
(265.63,447.73,cs),
(265.63,391.69,o),
(250.39,359.62,o),
(213.81,359.62,cs)
);
},
{
closed = 1;
nodes = (
(805.91,-8.78,o),
(862.72,59.61,o),
(862.72,175.27,cs),
(862.72,291.71,o),
(802.74,360.54,o),
(694.76,360.54,cs),
(583.39,360.54,o),
(524.75,292.93,o),
(524.75,176.49,cs),
(524.75,60.83,o),
(584.73,-8.78,o),
(694.76,-8.78,cs)
);
},
{
closed = 1;
nodes = (
(656.57,88.55,o),
(642.89,119.84,o),
(642.89,175.88,cs),
(642.89,232.31,o),
(656.57,263.99,o),
(693.54,263.99,cs),
(730.12,263.99,o),
(745.36,233.53,o),
(745.36,175.88,cs),
(745.36,120.23,o),
(730.12,88.55,o),
(693.54,88.55,cs)
);
}
);
};
layerId = "7aaabbed-3d86-4429-8cc6-2178005bfb81";
name = "Bold Semi (intermediate)";
shapes = (
{
closed = 1;
nodes = (
(197,0,l),
(309,0,l),
(700,622,l),
(588,622,l)
);
},
{
closed = 1;
nodes = (
(327,271,o),
(379,338,o),
(379,452,cs),
(379,566,o),
(320,632,o),
(208,632,cs),
(91,632,o),
(40,566,o),
(40,452,cs),
(40,338,o),
(98,271,o),
(208,271,cs)
);
},
{
closed = 1;
nodes = (
(174,372,o),
(158,398,o),
(158,451,cs),
(158,504,o),
(174,530,o),
(209,530,cs),
(244,530,o),
(261,504,o),
(261,451,cs),
(261,397,o),
(244,372,o),
(209,372,cs)
);
},
{
closed = 1;
nodes = (
(808,-9,o),
(860,59,o),
(860,172,cs),
(860,286,o),
(801,353,o),
(689,353,cs),
(572,353,o),
(521,286,o),
(521,172,cs),
(521,59,o),
(579,-9,o),
(689,-9,cs)
);
},
{
closed = 1;
nodes = (
(654,92,o),
(638,118,o),
(638,171,cs),
(638,225,o),
(654,250,o),
(689,250,cs),
(724,250,o),
(741,224,o),
(741,171,cs),
(741,117,o),
(724,92,o),
(689,92,cs)
);
}
);
width = 899;
},
{
background = {
shapes = (
{
closed = 1;
nodes = (
(183,0,l),
(261,0,l),
(646,622,l),
(569,622,l)
);
},
{
closed = 1;
nodes = (
(304,271,o),
(349,338,o),
(349,452,cs),
(349,566,o),
(298,632,o),
(202,632,cs),
(101,632,o),
(57,566,o),
(57,452,cs),
(57,338,o),
(107,271,o),
(202,271,cs)
);
},
{
closed = 1;
nodes = (
(150,334,o),
(129,374,o),
(129,452,cs),
(129,530,o),
(150,569,o),
(201,569,cs),
(251,569,o),
(276,530,o),
(276,452,cs),
(276,374,o),
(251,334,o),
(201,334,cs)
);
},
{
closed = 1;
nodes = (
(726,-10,o),
(770,59,o),
(770,171,cs),
(770,285,o),
(721,352,o),
(624,352,cs),
(523,352,o),
(479,285,o),
(479,171,cs),
(479,59,o),
(528,-10,o),
(624,-10,cs)
);
},
{
closed = 1;
nodes = (
(573,55,o),
(552,93,o),
(552,171,cs),
(552,250,o),
(573,289,o),
(624,289,cs),
(674,289,o),
(699,250,o),
(699,171,cs),
(699,94,o),
(674,55,o),
(624,55,cs)
);
}
);
};
layerId = UUID0;
shapes = (
{
closed = 1;
nodes = (
(183,0,l),
(261,0,l),
(646,622,l),
(569,622,l)
);
},
{
closed = 1;
nodes = (
(304,271,o),
(349,338,o),
(349,452,cs),
(349,566,o),
(298,632,o),
(202,632,cs),
(101,632,o),
(57,566,o),
(57,452,cs),
(57,338,o),
(107,271,o),
(202,271,cs)
);
},
{
closed = 1;
nodes = (
(150,334,o),
(129,374,o),
(129,452,cs),
(129,530,o),
(150,569,o),
(201,569,cs),
(251,569,o),
(276,530,o),
(276,452,cs),
(276,374,o),
(251,334,o),
(201,334,cs)
);
},
{
closed = 1;
nodes = (
(726,-10,o),
(770,59,o),
(770,171,cs),
(770,285,o),
(721,352,o),
(624,352,cs),
(523,352,o),
(479,285,o),
(479,171,cs),
(479,59,o),
(528,-10,o),
(624,-10,cs)
);
},
{
closed = 1;
nodes = (
(573,55,o),
(552,93,o),
(552,171,cs),
(552,250,o),
(573,289,o),
(624,289,cs),
(674,289,o),
(699,250,o),
(699,171,cs),
(699,94,o),
(674,55,o),
(624,55,cs)
);
}
);
width = 828;
},
{
layerId = "28FB090A-653E-4199-B7BE-FAE23D31B682";
shapes = (
{
closed = 1;
nodes = (
(185,0,l),
(216,0,l),
(609,622,l),
(577,622,l)
);
},
{
closed = 1;
nodes = (
(281,276,o),
(333,339,o),
(333,455,cs),
(333,566,o),
(289,632,o),
(197,632,cs),
(112,632,o),
(59,568,o),
(59,455,cs),
(59,341,o),
(107,276,o),
(195,276,cs)
);
},
{
closed = 1;
nodes = (
(125,301,o),
(86,353,o),
(86,455,cs),
(86,557,o),
(127,607,o),
(197,607,cs),
(273,607,o),
(306,553,o),
(306,455,cs),
(306,355,o),
(269,301,o),
(195,301,cs)
);
},
{
closed = 1;
nodes = (
(682,-10,o),
(734,53,o),
(734,169,cs),
(734,280,o),
(690,346,o),
(598,346,cs),
(513,346,o),
(460,282,o),
(460,169,cs),
(460,55,o),
(508,-10,o),
(596,-10,cs)
);
},
{
closed = 1;
nodes = (
(526,15,o),
(487,67,o),
(487,169,cs),
(487,271,o),
(528,321,o),
(598,321,cs),
(674,321,o),
(707,267,o),
(707,169,cs),
(707,69,o),
(670,15,o),
(596,15,cs)
);
}
);
width = 793;
},
{
layerId = "F455777D-7EDD-47E2-866A-D8A5173CE243";
shapes = (
{
closed = 1;
nodes = (
(211,0,l),
(351,0,l),
(747,622,l),
(607,622,l)
);
},
{
closed = 1;
nodes = (
(341,258,o),
(406,328,o),
(406,446,cs),
(406,564,o),
(338,632,o),
(220,632,cs),
(106,632,o),
(38,564,o),
(38,446,cs),
(38,328,o),
(105,258,o),
(220,258,cs)
);
},
{
closed = 1;
nodes = (
(194,376,o),
(185,403,o),
(185,445,cs),
(185,487,o),
(194,514,o),
(222,514,cs),
(250,514,o),
(259,487,o),
(259,445,cs),
(259,403,o),
(250,376,o),
(222,376,cs)
);
},
{
closed = 1;
nodes = (
(857,-8,o),
(922,60,o),
(922,178,cs),
(922,296,o),
(855,366,o),
(740,366,cs),
(622,366,o),
(554,298,o),
(554,180,cs),
(554,62,o),
(621,-8,o),
(740,-8,cs)
);
},
{
closed = 1;
nodes = (
(710,110,o),
(701,137,o),
(701,179,cs),
(701,221,o),
(710,248,o),
(738,248,cs),
(766,248,o),
(775,223,o),
(775,179,cs),
(775,137,o),
(766,110,o),
(738,110,cs)
);
}
);
width = 960;
},
{
associatedMasterId = m005;
attr = {
coordinates = (
151,
70
);
};
background = {
shapes = (
{
closed = 1;
nodes = (
(200.08,0,l),
(315.9,0,l),
(707.61,622,l),
(592.18,622,l)
);
},
{
closed = 1;
nodes = (
(326.57,263.07,o),
(383.77,331.9,o),
(383.77,448.34,cs),
(383.77,564.78,o),
(322.4,632,o),
(212.98,632,cs),
(104.05,632,o),
(45.41,564.78,o),
(45.41,448.34,cs),
(45.41,331.9,o),
(105.78,263.07,o),
(212.98,263.07,cs)
);
},
{
closed = 1;
nodes = (
(176.84,359.62,o),
(163.16,391.69,o),
(163.16,447.73,cs),
(163.16,503.77,o),
(176.84,535.45,o),
(213.81,535.45,cs),
(250.39,535.45,o),
(265.63,503.77,o),
(265.63,447.73,cs),
(265.63,391.69,o),
(250.39,359.62,o),
(213.81,359.62,cs)
);
},
{
closed = 1;
nodes = (
(805.91,-8.78,o),
(862.72,59.61,o),
(862.72,175.27,cs),
(862.72,291.71,o),
(802.74,360.54,o),
(694.76,360.54,cs),
(583.39,360.54,o),
(524.75,292.93,o),
(524.75,176.49,cs),
(524.75,60.83,o),
(584.73,-8.78,o),
(694.76,-8.78,cs)
);
},
{
closed = 1;
nodes = (
(656.57,88.55,o),
(642.89,119.84,o),
(642.89,175.88,cs),
(642.89,232.31,o),
(656.57,263.99,o),
(693.54,263.99,cs),
(730.12,263.99,o),
(745.36,233.53,o),
(745.36,175.88,cs),
(745.36,120.23,o),
(730.12,88.55,o),
(693.54,88.55,cs)
);
}
);
};
layerId = "2F18E47D-DDF6-4060-AB06-DE08E69527E3";
name = "Bold Semi (intermediate)";
shapes = (
{
closed = 1;
nodes = (
(165,0,l),
(283,0,l),
(582,622,l),
(464,622,l)
);
},
{
closed = 1;
nodes = (
(262,271,o),
(317,338,o),
(317,452,cs),
(317,566,o),
(262,632,o),
(171,632,cs),
(87,632,o),
(28,566,o),
(28,452,cs),
(28,338,o),
(83,271,o),
(171,271,cs)
);
},
{
closed = 1;
nodes = (
(155,369,o),
(152,398,o),
(152,451,cs),
(152,504,o),
(155,533,o),
(173,533,cs),
(191,533,o),
(194,505,o),
(194,451,cs),
(194,396,o),
(191,369,o),
(173,369,cs)
);
},
{
closed = 1;
nodes = (
(666,-9,o),
(721,59,o),
(721,172,cs),
(721,286,o),
(667,353,o),
(579,353,cs),
(490,353,o),
(431,286,o),
(431,172,cs),
(431,59,o),
(486,-9,o),
(579,-9,cs)
);
},
{
closed = 1;
nodes = (
(559,89,o),
(555,114,o),
(555,171,cs),
(555,228,o),
(559,253,o),
(577,253,cs),
(594,253,o),
(597,226,o),
(597,171,cs),
(597,115,o),
(594,89,o),
(577,89,cs)
);
}
);
width = 749;
},
{
layerId = m005;
shapes = (
{
closed = 1;
nodes = (
(149,0,l),
(216,0,l),
(493,622,l),
(426,622,l)
);
},
{
closed = 1;
nodes = (
(238,270,o),
(272,337,o),
(272,452,cs),
(272,566,o),
(234,632,o),
(160,632,cs),
(83,632,o),
(49,566,o),
(49,452,cs),
(49,337,o),
(88,270,o),
(160,270,cs)
);
},
{
closed = 1;
nodes = (
(129,331,o),
(115,371,o),
(115,451,cs),
(115,531,o),
(129,571,o),
(160,571,cs),
(191,571,o),
(206,531,o),
(206,451,cs),
(206,372,o),
(191,331,o),
(160,331,cs)
);
},
{
closed = 1;
nodes = (
(559,-10,o),
(593,59,o),
(593,171,cs),
(593,285,o),
(555,352,o),
(480,352,cs),
(403,352,o),
(370,285,o),
(370,171,cs),
(370,59,o),
(408,-10,o),
(480,-10,cs)
);
},
{
closed = 1;
nodes = (
(450,51,o),
(436,90,o),
(436,170,cs),
(436,252,o),
(450,291,o),
(480,291,cs),
(512,291,o),
(527,251,o),
(527,170,cs),
(527,91,o),
(512,51,o),
(480,51,cs)
);
}
);
width = 641;
},
{
layerId = m006;
shapes = (
{
closed = 1;
nodes = (
(157,0,l),
(289,0,l),
(563,622,l),
(431,622,l)
);
},
{
closed = 1;
nodes = (
(274,265,o),
(306,335,o),
(306,449,cs),
(306,566,o),
(257,632,o),
(169,632,cs),
(66,632,o),
(37,564,o),
(37,449,cs),
(37,334,o),
(82,265,o),
(171,265,cs)
);
},
{
closed = 1;
nodes = (
(168,387,o),
(174,407,o),
(174,448,cs),
(174,489,o),
(167,510,o),
(169,510,cs),
(166,510,o),
(169,492,o),
(169,448,cs),
(169,405,o),
(169,387,o),
(171,387,cs)
);
},
{
closed = 1;
nodes = (
(654,-10,o),
(687,65,o),
(687,174,cs),
(687,290,o),
(638,358,o),
(547,358,cs),
(445,358,o),
(415,288,o),
(415,174,cs),
(415,62,o),
(461,-10,o),
(549,-10,cs)
);
},
{
closed = 1;
nodes = (
(547,114,o),
(553,131,o),
(553,172,cs),
(553,216,o),
(545,235,o),
(547,235,cs),
(545,235,o),
(547,218,o),
(547,172,cs),
(547,130,o),
(550,114,o),
(549,114,cs)
);
}
);
width = 721;
},
{
layerId = "ADAF9463-560A-4353-9B5A-2FAD12EBF6B5";
shapes = (
{
closed = 1;
nodes = (
(144,0,l),
(169,0,l),
(448,622,l),
(423,622,l)
);
},
{
closed = 1;
nodes = (
(215,273,o),
(250,338,o),
(250,454,cs),
(250,566,o),
(219,632,o),
(154,632,cs),
(94,632,o),
(57,567,o),
(57,454,cs),
(57,339,o),
(92,273,o),
(153,273,cs)
);
},
{
closed = 1;
nodes = (
(104,295,o),
(77,348,o),
(77,453,cs),
(77,558,o),
(105,610,o),
(154,610,cs),
(207,610,o),
(230,556,o),
(230,453,cs),
(230,351,o),
(205,295,o),
(153,295,cs)
);
},
{
closed = 1;
nodes = (
(498,-10,o),
(533,55,o),
(533,169,cs),
(533,282,o),
(502,348,o),
(437,348,cs),
(376,348,o),
(341,283,o),
(341,169,cs),
(341,57,o),
(374,-10,o),
(436,-10,cs)
);
},
{
closed = 1;
nodes = (
(388,11,o),
(361,64,o),
(361,169,cs),
(361,275,o),
(389,327,o),
(437,327,cs),
(491,327,o),
(514,272,o),
(514,169,cs),
(514,66,o),
(488,11,o),
(436,11,cs)
);
}
);
width = 590;
},
{
layerId = "D7742CE6-1B18-47A0-AEB5-463D77EA217C";
shapes = (
{
closed = 1;
nodes = (
(149,0,l),
(212,0,l),
(489,622,l),
(426,622,l)
);
},
{
closed = 1;
nodes = (
(236,270,o),
(270,337,o),
(270,452,cs),
(270,566,o),
(233,632,o),
(159,632,cs),
(84,632,o),
(50,566,o),
(50,452,cs),
(50,337,o),
(88,270,o),
(159,270,cs)
);
},
{
closed = 1;
nodes = (
(127,328,o),
(112,369,o),
(112,451,cs),
(112,533,o),
(127,574,o),
(159,574,cs),
(192,574,o),
(208,533,o),
(208,451,cs),
(208,370,o),
(192,328,o),
(159,328,cs)
);
},
{
closed = 1;
nodes = (
(554,-10,o),
(588,59,o),
(588,171,cs),
(588,285,o),
(550,352,o),
(476,352,cs),
(401,352,o),
(368,285,o),
(368,171,cs),
(368,59,o),
(405,-10,o),
(476,-10,cs)
);
},
{
closed = 1;
nodes = (
(445,48,o),
(430,88,o),
(430,170,cs),
(430,254,o),
(445,294,o),
(476,294,cs),
(510,294,o),
(526,253,o),
(526,170,cs),
(526,89,o),
(510,48,o),
(476,48,cs)
);
}
);
width = 637;
},
{
layerId = "F138D99C-4E28-42C5-9F3E-22494052B08F";
shapes = (
{
closed = 1;
nodes = (
(156,0,l),
(284,0,l),
(558,622,l),
(431,622,l)
);
},
{
closed = 1;
nodes = (
(272,265,o),
(304,335,o),
(304,449,cs),
(304,566,o),
(255,632,o),
(168,632,cs),
(67,632,o),
(38,564,o),
(38,449,cs),
(38,334,o),
(82,265,o),
(170,265,cs)
);
},
{
closed = 1;
nodes = (
(165,383,o),
(170,405,o),
(170,448,cs),
(170,492,o),
(164,514,o),
(168,514,cs),
(168,514,o),
(172,495,o),
(172,448,cs),
(172,403,o),
(171,383,o),
(170,383,cs)
);
},
{
closed = 1;
nodes = (
(648,-10,o),
(681,65,o),
(681,174,cs),
(681,290,o),
(632,358,o),
(542,358,cs),
(442,358,o),
(412,288,o),
(412,174,cs),
(412,62,o),
(457,-10,o),
(544,-10,cs)
);
},
{
closed = 1;
nodes = (
(540,110,o),
(545,128,o),
(545,172,cs),
(545,218,o),
(539,239,o),
(542,239,cs),
(543,239,o),
(546,220,o),
(546,172,cs),
(546,127,o),
(547,110,o),
(544,110,cs)
);
}
);
width = 716;
}
);
unicode = 37;
}
{
color = 0;
glyphname = quotesingle.beng;
layers = (
{
background = {
shapes = (
{
closed = 1;
nodes = (
(201,471,l),
(226,729,l),
(115,729,l),
(140,471,l)
);
}
);
};
layerId = UUID0;
shapes = (
{
closed = 1;
nodes = (
(201,471,l),
(226,729,l),
(115,729,l),
(140,471,l)
);
}
);
width = 326;
},
{
layerId = "28FB090A-653E-4199-B7BE-FAE23D31B682";
shapes = (
{
closed = 1;
nodes = (
(147,471,l),
(150,729,l),
(121,729,l),
(124,471,l)
);
}
);
width = 254;
},
{
layerId = "F455777D-7EDD-47E2-866A-D8A5173CE243";
shapes = (
{
closed = 1;
nodes = (
(248,471,l),
(268,729,l),
(94,729,l),
(114,471,l)
);
}
);
width = 348;
},
{
layerId = m005;
shapes = (
{
closed = 1;
nodes = (
(177,471,l),
(194,729,l),
(100,729,l),
(117,471,l)
);
}
);
width = 279;
},
{
layerId = m006;
shapes = (
{
closed = 1;
nodes = (
(243,471,l),
(277,729,l),
(91,729,l),
(125,471,l)
);
}
);
width = 355;
},
{
layerId = "ADAF9463-560A-4353-9B5A-2FAD12EBF6B5";
shapes = (
{
closed = 1;
nodes = (
(135,471,l),
(141,729,l),
(106,729,l),
(112,471,l)
);
}
);
width = 230;
}
);
unicode = 39;
}
{
glyphname = parenleft.beng;
layers = (
{
background = {
shapes = (
{
closed = 1;
nodes = (
(338,-135,l),
(245,0,o),
(197,161,o),
(197,331,cs),
(197,497,o),
(247,661,o),
(337,792,c),
(256,792,l),
(158,667,o),
(111,504,o),
(111,332,cs),
(111,163,o),
(158,-7,o),
(256,-135,c)
);
}
);
};
layerId = UUID0;
shapes = (
{
closed = 1;
nodes = (
(338,-135,l),
(245,0,o),
(197,161,o),
(197,331,cs),
(197,497,o),
(247,661,o),
(337,792,c),
(256,792,l),
(158,667,o),
(111,504,o),
(111,332,cs),
(111,163,o),
(158,-7,o),
(256,-135,c)
);
}
);
width = 419;
},
{
layerId = "28FB090A-653E-4199-B7BE-FAE23D31B682";
shapes = (
{
closed = 1;
nodes = (
(294,-135,l),
(197,-9,o),
(143,149,o),
(143,325,cs),
(143,504,o),
(197,666,o),
(294,792,c),
(264,792,l),
(175,678,o),
(116,512,o),
(116,324,cs),
(116,138,o),
(175,-16,o),
(264,-135,c)
);
}
);
width = 375;
},
{
layerId = "F455777D-7EDD-47E2-866A-D8A5173CE243";
shapes = (
{
closed = 1;
nodes = (
(395,-125,l),
(311,2,o),
(268,171,o),
(268,331,cs),
(268,493,o),
(310,663,o),
(396,792,c),
(237,792,l),
(143,666,o),
(100,497,o),
(100,333,cs),
(100,164,o),
(144,-3,o),
(237,-125,c)
);
}
);
width = 467;
},
{
background = {
shapes = (
{
closed = 1;
nodes = (
(265,-135,l),
(196,1,o),
(162,163,o),
(162,331,cs),
(162,496,o),
(197,660,o),
(264,792,c),
(188,792,l),
(116,669,o),
(81,506,o),
(81,331,cs),
(81,160,o),
(116,-8,o),
(188,-135,c)
);
}
);
};
layerId = m005;
shapes = (
{
closed = 1;
nodes = (
(265,-135,l),
(196,1,o),
(162,163,o),
(162,331,cs),
(162,496,o),
(197,660,o),
(264,792,c),
(188,792,l),
(116,669,o),
(81,506,o),
(81,331,cs),
(81,160,o),
(116,-8,o),
(188,-135,c)
);
}
);
width = 324;
},
{
background = {
shapes = (
{
closed = 1;
nodes = (
(324,-126,l),
(262,3,o),
(231,171,o),
(231,331,cs),
(231,498,o),
(262,665,o),
(326,792,c),
(176,792,l),
(103,663,o),
(73,492,o),
(73,333,cs),
(73,161,o),
(107,-5,o),
(176,-126,c)
);
}
);
};
layerId = m006;
shapes = (
{
closed = 1;
nodes = (
(324,-126,l),
(262,3,o),
(231,171,o),
(231,331,cs),
(231,498,o),
(262,665,o),
(326,792,c),
(176,792,l),
(103,663,o),
(73,492,o),
(73,333,cs),
(73,161,o),
(107,-5,o),
(176,-126,c)
);
}
);
width = 377;
},
{
layerId = "ADAF9463-560A-4353-9B5A-2FAD12EBF6B5";
shapes = (
{
closed = 1;
nodes = (
(208,-135,l),
(141,-9,o),
(103,149,o),
(103,325,cs),
(103,503,o),
(140,664,o),
(208,792,c),
(183,792,l),
(121,679,o),
(80,514,o),
(80,323,cs),
(80,136,o),
(121,-17,o),
(183,-135,c)
);
}
);
width = 264;
}
);
unicode = 40;
}
{
color = 0;
glyphname = parenright.beng;
layers = (
{
background = {
shapes = (
{
closed = 1;
nodes = (
(163,-135,l),
(261,-10,o),
(308,153,o),
(308,324,cs),
(308,494,o),
(261,664,o),
(163,792,c),
(81,792,l),
(174,657,o),
(222,496,o),
(222,325,cs),
(222,156,o),
(172,-4,o),
(82,-135,c)
);
}
);
};
layerId = UUID0;
shapes = (
{
closed = 1;
nodes = (
(163,-135,l),
(261,-10,o),
(308,153,o),
(308,324,cs),
(308,494,o),
(261,664,o),
(163,792,c),
(81,792,l),
(174,657,o),
(222,496,o),
(222,325,cs),
(222,156,o),
(172,-4,o),
(82,-135,c)
);
}
);
width = 419;
},
{
layerId = "28FB090A-653E-4199-B7BE-FAE23D31B682";
shapes = (
{
closed = 1;
nodes = (
(111,-135,l),
(200,-21,o),
(259,145,o),
(259,333,cs),
(259,519,o),
(200,673,o),
(111,792,c),
(81,792,l),
(178,666,o),
(232,508,o),
(232,332,cs),
(232,153,o),
(178,-9,o),
(81,-135,c)
);
}
);
width = 375;
},
{
layerId = "F455777D-7EDD-47E2-866A-D8A5173CE243";
shapes = (
{
closed = 1;
nodes = (
(230,-125,l),
(324,1,o),
(367,170,o),
(367,334,cs),
(367,503,o),
(323,670,o),
(230,792,c),
(72,792,l),
(156,665,o),
(199,496,o),
(199,336,cs),
(199,174,o),
(156,4,o),
(71,-125,c)
);
}
);
width = 467;
},
{
layerId = m005;
shapes = (
{
closed = 1;
nodes = (
(147,-135,l),
(224,-9,o),
(266,151,o),
(266,327,cs),
(266,506,o),
(224,666,o),
(147,792,c),
(71,792,l),
(147,661,o),
(187,503,o),
(187,328,cs),
(187,154,o),
(147,-4,o),
(72,-135,c)
);
}
);
width = 375;
},
{
layerId = m006;
shapes = (
{
closed = 1;
nodes = (
(222,-129,l),
(305,10,o),
(339,168,o),
(339,329,cs),
(339,487,o),
(305,658,o),
(222,792,c),
(71,792,l),
(142,655,o),
(176,494,o),
(176,330,cs),
(176,168,o),
(142,10,o),
(72,-129,c)
);
}
);
width = 440;
},
{
layerId = "ADAF9463-560A-4353-9B5A-2FAD12EBF6B5";
shapes = (
{
closed = 1;
nodes = (
(99,-139,l),
(172,-21,o),
(219,140,o),
(219,326,cs),
(219,518,o),
(172,671,o),
(99,792,c),
(71,792,l),
(150,665,o),
(194,509,o),
(194,327,cs),
(194,145,o),
(150,-13,o),
(72,-139,c)
);
}
);
width = 333;
}
);
unicode = 41;
}
{
glyphname = asterisk.beng;
layers = (
{
background = {
shapes = (
{
closed = 1;
nodes = (
(228,293,l),
(305,468,l),
(391,293,l),
(478,340,l),
(358,499,l),
(543,513,l),
(530,607,l),
(336,553,l),
(357,745,l),
(257,745,l),
(278,553,l),
(87,607,l),
(73,513,l),
(256,499,l),
(138,340,l)
);
}
);
};
layerId = UUID0;
shapes = (
{
closed = 1;
nodes = (
(228,293,l),
(305,468,l),
(391,293,l),
(478,340,l),
(358,499,l),
(543,513,l),
(530,607,l),
(336,553,l),
(357,745,l),
(257,745,l),
(278,553,l),
(87,607,l),
(73,513,l),
(256,499,l),
(138,340,l)
);
}
);
width = 607;
},
{
layerId = "28FB090A-653E-4199-B7BE-FAE23D31B682";
shapes = (
{
closed = 1;
nodes = (
(171,345,l),
(286,512,l),
(402,344,l),
(425,361,l),
(303,523,l),
(496,581,l),
(488,608,l),
(297,542,l),
(300,745,l),
(272,745,l),
(275,542,l),
(84,608,l),
(75,581,l),
(269,523,l),
(148,361,l)
);
}
);
width = 561;
},
{
layerId = "F455777D-7EDD-47E2-866A-D8A5173CE243";
shapes = (
{
closed = 1;
nodes = (
(249,266,l),
(309,403,l),
(379,265,l),
(506,332,l),
(405,468,l),
(558,478,l),
(540,622,l),
(366,573,l),
(385,745,l),
(237,745,l),
(256,573,l),
(86,622,l),
(64,480,l),
(217,468,l),
(116,332,l)
);
}
);
width = 612;
},
{
layerId = "ADAF9463-560A-4353-9B5A-2FAD12EBF6B5";
shapes = (
{
closed = 1;
nodes = (
(163,353,l),
(262,523,l),
(366,353,l),
(400,374,l),
(281,533,l),
(469,574,l),
(461,611,l),
(274,552,l),
(283,745,l),
(242,745,l),
(252,552,l),
(66,611,l),
(58,573,l),
(245,533,l),
(127,374,l)
);
}
);
width = 517;
},
{
layerId = "D7742CE6-1B18-47A0-AEB5-463D77EA217C";
shapes = (
{
closed = 1;
nodes = (
(198,319,l),
(273,485,l),
(357,319,l),
(435,361,l),
(321,513,l),
(497,529,l),
(486,614,l),
(301,563,l),
(320,745,l),
(229,745,l),
(248,563,l),
(67,614,l),
(54,529,l),
(229,513,l),
(116,361,l)
);
}
);
width = 542;
},
{
layerId = "F138D99C-4E28-42C5-9F3E-22494052B08F";
shapes = (
{
closed = 1;
nodes = (
(256,262,l),
(292,420,l),
(341,262,l),
(493,340,l),
(389,479,l),
(545,453,l),
(527,619,l),
(348,582,l),
(382,745,l),
(208,745,l),
(242,582,l),
(69,619,l),
(48,455,l),
(201,479,l),
(97,340,l)
);
}
);
width = 584;
}
);
unicode = 42;
}
{
color = 0;
glyphname = plus.beng;
layers = (
{
background = {
shapes = (
{
closed = 1;
nodes = (
(259,97,l),
(332,97,l),
(332,286,l),
(521,286,l),
(521,359,l),
(332,359,l),
(332,548,l),
(259,548,l),
(259,359,l),
(70,359,l),
(70,286,l),
(259,286,l)
);
}
);
};
layerId = UUID0;
shapes = (
{
closed = 1;
nodes = (
(259,97,l),
(332,97,l),
(332,286,l),
(521,286,l),
(521,359,l),
(332,359,l),
(332,548,l),
(259,548,l),
(259,359,l),
(70,359,l),
(70,286,l),
(259,286,l)
);
}
);
width = 592;
},
{
layerId = "28FB090A-653E-4199-B7BE-FAE23D31B682";
shapes = (
{
closed = 1;
nodes = (
(283,94,l),
(309,94,l),
(309,309,l),
(522,309,l),
(522,335,l),
(309,335,l),
(309,546,l),
(283,546,l),
(283,335,l),
(70,335,l),
(70,309,l),
(283,309,l)
);
}
);
width = 592;
},
{
layerId = "F455777D-7EDD-47E2-866A-D8A5173CE243";
shapes = (
{
closed = 1;
nodes = (
(251,88,l),
(385,88,l),
(385,259,l),
(564,259,l),
(564,388,l),
(385,388,l),
(385,563,l),
(251,563,l),
(251,388,l),
(72,388,l),
(72,259,l),
(251,259,l)
);
}
);
width = 637;
},
{
layerId = m005;
shapes = (
{
closed = 1;
nodes = (
(184,117,l),
(253,117,l),
(253,288,l),
(389,288,l),
(389,357,l),
(253,357,l),
(253,527,l),
(184,527,l),
(184,357,l),
(48,357,l),
(48,288,l),
(184,288,l)
);
}
);
width = 437;
},
{
layerId = m006;
shapes = (
{
closed = 1;
nodes = (
(161,111,l),
(295,111,l),
(295,257,l),
(408,257,l),
(408,390,l),
(295,390,l),
(295,540,l),
(161,540,l),
(161,390,l),
(48,390,l),
(48,257,l),
(161,257,l)
);
}
);
width = 456;
},
{
layerId = "ADAF9463-560A-4353-9B5A-2FAD12EBF6B5";
shapes = (
{
closed = 1;
nodes = (
(199,121,l),
(226,121,l),
(226,308,l),
(377,308,l),
(377,336,l),
(226,336,l),
(226,519,l),
(199,519,l),
(199,336,l),
(48,336,l),
(48,308,l),
(199,308,l)
);
}
);
width = 425;
}
);
unicode = 43;
}
{
glyphname = comma.beng;
layers = (
{
background = {
shapes = (
{
closed = 1;
nodes = (
(93,116,l),
(83,47,o),
(66,-40,o),
(46,-119,c),
(113,-119,l),
(146,-46,o),
(179,34,o),
(197,105,c),
(190,116,l)
);
}
);
};
layerId = UUID0;
shapes = (
{
closed = 1;
nodes = (
(93,116,l),
(83,47,o),
(66,-40,o),
(46,-119,c),
(113,-119,l),
(146,-46,o),
(179,34,o),
(197,105,c),
(190,116,l)
);
}
);
width = 263;
},
{
layerId = "28FB090A-653E-4199-B7BE-FAE23D31B682";
shapes = (
{
closed = 1;
nodes = (
(100,116,l),
(89,40,o),
(76,-22,o),
(47,-119,c),
(69,-119,l),
(97,-50,o),
(116,30,o),
(131,104,c),
(128,116,l)
);
}
);
width = 205;
},
{
layerId = "F455777D-7EDD-47E2-866A-D8A5173CE243";
shapes = (
{
closed = 1;
nodes = (
(107,146,l),
(98,66,o),
(82,-28,o),
(63,-119,c),
(199,-119,l),
(232,-45,o),
(263,63,o),
(281,135,c),
(274,146,l)
);
}
);
width = 336;
},
{
layerId = "ADAF9463-560A-4353-9B5A-2FAD12EBF6B5";
shapes = (
{
closed = 1;
nodes = (
(105,106,l),
(97,32,o),
(85,-29,o),
(59,-119,c),
(77,-119,l),
(106,-51,o),
(119,11,o),
(137,95,c),
(133,106,l)
);
}
);
width = 213;
},
{
layerId = "D7742CE6-1B18-47A0-AEB5-463D77EA217C";
shapes = (
{
closed = 1;
nodes = (
(101,116,l),
(94,44,o),
(80,-37,o),
(58,-119,c),
(116,-119,l),
(148,-47,o),
(169,21,o),
(189,105,c),
(182,116,l)
);
}
);
width = 261;
},
{
layerId = "F138D99C-4E28-42C5-9F3E-22494052B08F";
shapes = (
{
closed = 1;
nodes = (
(95,133,l),
(89,64,o),
(71,-51,o),
(56,-119,c),
(182,-119,l),
(219,-41,o),
(254,38,o),
(277,122,c),
(265,133,l)
);
}
);
width = 340;
}
);
unicode = 44;
}
{
glyphname = hyphen.beng;
layers = (
{
background = {
shapes = (
{
closed = 1;
nodes = (
(49,256,l),
(291,256,l),
(291,338,l),
(49,338,l)
);
}
);
};
layerId = UUID0;
shapes = (
{
closed = 1;
nodes = (
(49,256,l),
(291,256,l),
(291,338,l),
(49,338,l)
);
}
);
width = 340;
},
{
layerId = "28FB090A-653E-4199-B7BE-FAE23D31B682";
shapes = (
{
closed = 1;
nodes = (
(49,284,l),
(267,284,l),
(267,310,l),
(49,310,l)
);
}
);
width = 316;
},
{
layerId = "F455777D-7EDD-47E2-866A-D8A5173CE243";
shapes = (
{
closed = 1;
nodes = (
(55,221,l),
(331,221,l),
(331,373,l),
(55,373,l)
);
}
);
width = 387;
},
{
background = {
shapes = (
{
closed = 1;
nodes = (
(37,286,l),
(201,286,l),
(201,308,l),
(37,308,l)
);
}
);
};
layerId = m004;
shapes = (
{
closed = 1;
nodes = (
(37,286,l),
(201,286,l),
(201,308,l),
(37,308,l)
);
}
);
width = 238;
},
{
background = {
shapes = (
{
closed = 1;
nodes = (
(38,258,l),
(226,258,l),
(226,336,l),
(38,336,l)
);
}
);
};
layerId = m005;
shapes = (
{
closed = 1;
nodes = (
(38,258,l),
(226,258,l),
(226,336,l),
(38,336,l)
);
}
);
width = 264;
},
{
background = {
shapes = (
{
closed = 1;
nodes = (
(44,225,l),
(268,225,l),
(268,369,l),
(44,369,l)
);
}
);
};
layerId = m006;
shapes = (
{
closed = 1;
nodes = (
(44,225,l),
(268,225,l),
(268,369,l),
(44,369,l)
);
}
);
width = 314;
},
{
background = {
shapes = (
{
closed = 1;
nodes = (
(37,286,l),
(201,286,l),
(201,308,l),
(37,308,l)
);
}
);
};
layerId = m007;
shapes = (
{
closed = 1;
nodes = (
(29,286,l),
(161,286,l),
(161,308,l),
(29,308,l)
);
}
);
width = 190;
},
{
background = {
shapes = (
{
closed = 1;
nodes = (
(38,258,l),
(226,258,l),
(226,336,l),
(38,336,l)
);
}
);
};
layerId = m008;
shapes = (
{
closed = 1;
nodes = (
(38,258,l),
(226,258,l),
(226,336,l),
(38,336,l)
);
}
);
width = 264;
},
{
background = {
shapes = (
{
closed = 1;
nodes = (
(44,225,l),
(268,225,l),
(268,369,l),
(44,369,l)
);
}
);
};
layerId = m009;
shapes = (
{
closed = 1;
nodes = (
(44,225,l),
(268,225,l),
(268,369,l),
(44,369,l)
);
}
);
width = 314;
},
{
layerId = "ADAF9463-560A-4353-9B5A-2FAD12EBF6B5";
shapes = (
{
closed = 1;
nodes = (
(34,284,l),
(188,284,l),
(188,310,l),
(34,310,l)
);
}
);
width = 222;
}
);
unicode = 45;
}
{
glyphname = period.beng;
layers = (
{
background = {
shapes = (
{
closed = 1;
nodes = (
(72,6,o),
(99,-14,o),
(133,-14,cs),
(167,-14,o),
(196,6,o),
(196,54,cs),
(196,103,o),
(167,121,o),
(133,121,cs),
(99,121,o),
(72,103,o),
(72,54,cs)
);
}
);
};
layerId = UUID0;
shapes = (
{
closed = 1;
nodes = (
(72,6,o),
(99,-14,o),
(133,-14,cs),
(167,-14,o),
(196,6,o),
(196,54,cs),
(196,103,o),
(167,121,o),
(133,121,cs),
(99,121,o),
(72,103,o),
(72,54,cs)
);
}
);
width = 268;
},
{
layerId = "28FB090A-653E-4199-B7BE-FAE23D31B682";
shapes = (
{
closed = 1;
nodes = (
(78,6,o),
(83,-8,o),
(103,-8,cs),
(127,-8,o),
(130,6,o),
(130,23,cs),
(130,39,o),
(127,54,o),
(103,54,cs),
(83,54,o),
(78,39,o),
(78,23,cs)
);
}
);
width = 208;
},
{
layerId = "F455777D-7EDD-47E2-866A-D8A5173CE243";
shapes = (
{
closed = 1;
nodes = (
(47,15,o),
(94,-12,o),
(151,-12,cs),
(205,-12,o),
(251,15,o),
(251,81,cs),
(251,150,o),
(205,175,o),
(151,175,cs),
(94,175,o),
(47,150,o),
(47,81,cs)
);
}
);
width = 299;
},
{
background = {
shapes = (
{
closed = 1;
nodes = (
(59,6,o),
(63,-8,o),
(78,-8,cs),
(96,-8,o),
(98,7,o),
(98,21,cs),
(98,34,o),
(96,49,o),
(78,49,cs),
(63,49,o),
(59,35,o),
(59,21,cs)
);
}
);
};
layerId = m004;
shapes = (
{
closed = 1;
nodes = (
(59,6,o),
(63,-8,o),
(78,-8,cs),
(96,-8,o),
(98,7,o),
(98,21,cs),
(98,34,o),
(96,49,o),
(78,49,cs),
(63,49,o),
(59,35,o),
(59,21,cs)
);
}
);
width = 157;
},
{
background = {
shapes = (
{
closed = 1;
nodes = (
(49,6,o),
(73,-14,o),
(103,-14,cs),
(133,-14,o),
(158,6,o),
(158,52,cs),
(158,98,o),
(133,116,o),
(103,116,cs),
(73,116,o),
(49,98,o),
(49,52,cs)
);
}
);
};
layerId = m005;
shapes = (
{
closed = 1;
nodes = (
(49,6,o),
(73,-14,o),
(103,-14,cs),
(133,-14,o),
(158,6,o),
(158,52,cs),
(158,98,o),
(133,116,o),
(103,116,cs),
(73,116,o),
(49,98,o),
(49,52,cs)
);
}
);
width = 207;
},
{
background = {
shapes = (
{
closed = 1;
nodes = (
(27,14,o),
(71,-12,o),
(122,-12,cs),
(170,-12,o),
(212,14,o),
(212,78,cs),
(212,145,o),
(170,169,o),
(122,169,cs),
(70,169,o),
(27,144,o),
(27,78,cs)
);
}
);
};
layerId = m006;
shapes = (
{
closed = 1;
nodes = (
(27,14,o),
(71,-12,o),
(122,-12,cs),
(170,-12,o),
(212,14,o),
(212,78,cs),
(212,145,o),
(170,169,o),
(122,169,cs),
(70,169,o),
(27,144,o),
(27,78,cs)
);
}
);
width = 241;
}
);
unicode = 46;
}
{
glyphname = slash.beng;
layers = (
{
background = {
shapes = (
{
closed = 1;
nodes = (
(52,-125,l),
(135,-125,l),
(397,792,l),
(315,792,l)
);
}
);
};
layerId = UUID0;
shapes = (
{
closed = 1;
nodes = (
(52,-125,l),
(135,-125,l),
(397,792,l),
(315,792,l)
);
}
);
width = 449;
},
{
layerId = "28FB090A-653E-4199-B7BE-FAE23D31B682";
shapes = (
{
closed = 1;
nodes = (
(58,-135,l),
(85,-135,l),
(348,792,l),
(321,792,l)
);
}
);
width = 406;
},
{
layerId = "F455777D-7EDD-47E2-866A-D8A5173CE243";
shapes = (
{
closed = 1;
nodes = (
(53,-126,l),
(215,-126,l),
(501,792,l),
(339,792,l)
);
}
);
width = 555;
},
{
background = {
shapes = (
{
closed = 1;
nodes = (
(44,-136,l),
(64,-136,l),
(262,792,l),
(241,792,l)
);
}
);
};
layerId = m004;
shapes = (
{
closed = 1;
nodes = (
(44,-136,l),
(64,-136,l),
(262,792,l),
(241,792,l)
);
}
);
width = 306;
},
{
background = {
shapes = (
{
closed = 1;
nodes = (
(39,-126,l),
(117,-126,l),
(318,792,l),
(241,792,l)
);
}
);
};
layerId = m005;
shapes = (
{
closed = 1;
nodes = (
(39,-126,l),
(117,-126,l),
(318,792,l),
(241,792,l)
);
}
);
width = 357;
},
{
background = {
shapes = (
{
closed = 1;
nodes = (
(41,-126,l),
(194,-126,l),
(422,792,l),
(269,792,l)
);
}
);
};
layerId = m006;
shapes = (
{
closed = 1;
nodes = (
(41,-126,l),
(194,-126,l),
(422,792,l),
(269,792,l)
);
}
);
width = 464;
}
);
unicode = 47;
}
{
glyphname = zero.beng;
layers = (
{
associatedMasterId = UUID0;
attr = {
coordinates = (
151,
100
);
};
background = {
shapes = (
{
closed = 1;
nodes = (
(463.57,-10,o),
(527.79,128.22,o),
(527.79,356.78,cs),
(527.79,589.39,o),
(450.35,724.39,o),
(283.54,724.39,cs),
(105.51,724.39,o),
(40.07,589,o),
(40.07,356.78,cs),
(40.07,126.39,o),
(116.12,-10,o),
(283.54,-10,cs)
);
},
{
closed = 1;
nodes = (
(212.82,112.97,o),
(191.07,194.72,o),
(191.07,356.78,cs),
(191.07,519.45,o),
(212.82,601.42,o),
(283.54,601.42,cs),
(354.26,601.42,o),
(376.79,519.45,o),
(376.79,356.78,cs),
(376.79,193.33,o),
(354.26,112.97,o),
(283.54,112.97,cs)
);
}
);
};
layerId = "d5b904e0-851a-4fea-a696-8470b70a9647";
name = "Bold Semi (intermediate)";
shapes = (
{
closed = 1;
nodes = (
(451,-10,o),
(520,127,o),
(520,357,cs),
(520,589,o),
(439,725,o),
(275,725,cs),
(99,725,o),
(31,587,o),
(31,357,cs),
(31,127,o),
(110,-10,o),
(275,-10,cs)
);
},
{
closed = 1;
nodes = (
(206,112,o),
(181,194,o),
(181,357,cs),
(181,520,o),
(206,603,o),
(275,603,cs),
(343,603,o),
(370,521,o),
(370,357,cs),
(370,193,o),
(343,112,o),
(275,112,cs)
);
}
);
width = 551;
},
{
background = {
shapes = (
{
closed = 1;
nodes = (
(441,-10,o),
(504,127,o),
(504,358,cs),
(504,590,o),
(429,725,o),
(275,725,cs),
(111,725,o),
(48,589,o),
(48,358,cs),
(48,127,o),
(121,-10,o),
(275,-10,cs)
);
},
{
closed = 1;
nodes = (
(175,66,o),
(138,163,o),
(138,358,cs),
(138,553,o),
(175,649,o),
(275,649,cs),
(375,649,o),
(414,553,o),
(414,358,cs),
(414,161,o),
(375,66,o),
(275,66,cs)
);
}
);
};
layerId = UUID0;
shapes = (
{
closed = 1;
nodes = (
(441,-10,o),
(504,127,o),
(504,358,cs),
(504,590,o),
(429,725,o),
(275,725,cs),
(111,725,o),
(48,589,o),
(48,358,cs),
(48,127,o),
(121,-10,o),
(275,-10,cs)
);
},
{
closed = 1;
nodes = (
(175,66,o),
(138,163,o),
(138,358,cs),
(138,553,o),
(175,649,o),
(275,649,cs),
(375,649,o),
(414,553,o),
(414,358,cs),
(414,161,o),
(375,66,o),
(275,66,cs)
);
}
);
width = 551;
},
{
background = {
shapes = (
{
closed = 1;
nodes = (
(427,-10,o),
(487,121,o),
(487,358,cs),
(487,595,o),
(416,724,o),
(275,724,cs),
(125,724,o),
(65,594,o),
(65,358,cs),
(65,120,o),
(136,-10,o),
(275,-10,cs)
);
},
{
closed = 1;
nodes = (
(145,16,o),
(92,138,o),
(92,358,cs),
(92,579,o),
(142,698,o),
(275,698,cs),
(407,698,o),
(460,577,o),
(460,358,cs),
(460,136,o),
(410,16,o),
(275,16,cs)
);
}
);
};
layerId = "28FB090A-653E-4199-B7BE-FAE23D31B682";
shapes = (
{
closed = 1;
nodes = (
(427,-10,o),
(487,121,o),
(487,358,cs),
(487,595,o),
(416,724,o),
(275,724,cs),
(125,724,o),
(65,594,o),
(65,358,cs),
(65,120,o),
(136,-10,o),
(275,-10,cs)
);
},
{
closed = 1;
nodes = (
(145,16,o),
(92,138,o),
(92,358,cs),
(92,579,o),
(142,698,o),
(275,698,cs),
(407,698,o),
(460,577,o),
(460,358,cs),
(460,136,o),
(410,16,o),
(275,16,cs)
);
}
);
width = 551;
},
{
background = {
shapes = (
{
closed = 1;
nodes = (
(478,-10,o),
(543,129,o),
(543,356,cs),
(543,589,o),
(464,724,o),
(289,724,cs),
(102,724,o),
(35,589,o),
(35,356,cs),
(35,126,o),
(113,-10,o),
(289,-10,cs)
);
},
{
closed = 1;
nodes = (
(237,143,o),
(225,215,o),
(225,356,cs),
(225,498,o),
(237,571,o),
(289,571,cs),
(341,571,o),
(353,498,o),
(353,356,cs),
(353,214,o),
(341,143,o),
(289,143,cs)
);
}
);
};
layerId = "F455777D-7EDD-47E2-866A-D8A5173CE243";
shapes = (
{
closed = 1;
nodes = (
(478,-10,o),
(543,129,o),
(543,356,cs),
(543,589,o),
(464,724,o),
(289,724,cs),
(102,724,o),
(35,589,o),
(35,356,cs),
(35,126,o),
(113,-10,o),
(289,-10,cs)
);
},
{
closed = 1;
nodes = (
(237,143,o),
(225,215,o),
(225,356,cs),
(225,498,o),
(237,571,o),
(289,571,cs),
(341,571,o),
(353,498,o),
(353,356,cs),
(353,214,o),
(341,143,o),
(289,143,cs)
);
}
);
width = 578;
},
{
background = {
shapes = (
{
closed = 1;
nodes = (
(296,-10,o),
(356,77,o),
(356,357,cs),
(356,617,o),
(308,723,o),
(206,723,cs),
(115,723,o),
(54,634,o),
(54,357,cs),
(54,114,o),
(99,-10,o),
(206,-10,cs)
);
},
{
closed = 1;
nodes = (
(109,13,o),
(74,134,o),
(74,357,cs),
(74,581,o),
(110,701,o),
(205,701,cs),
(303,701,o),
(336,583,o),
(336,357,cs),
(336,133,o),
(304,13,o),
(206,13,cs)
);
}
);
};
layerId = "ADAF9463-560A-4353-9B5A-2FAD12EBF6B5";
shapes = (
{
closed = 1;
nodes = (
(296,-10,o),
(356,77,o),
(356,357,cs),
(356,617,o),
(308,723,o),
(206,723,cs),
(115,723,o),
(54,634,o),
(54,357,cs),
(54,114,o),
(99,-10,o),
(206,-10,cs)
);
},
{
closed = 1;
nodes = (
(109,13,o),
(74,134,o),
(74,357,cs),
(74,581,o),
(110,701,o),
(205,701,cs),
(303,701,o),
(336,583,o),
(336,357,cs),
(336,133,o),
(304,13,o),
(206,13,cs)
);
}
);
width = 411;
},
{
background = {
shapes = (
{
closed = 1;
nodes = (
(308,-10,o),
(372,81,o),
(372,357,cs),
(372,614,o),
(319,724,o),
(206,724,cs),
(103,724,o),
(38,630,o),
(38,357,cs),
(38,118,o),
(86,-10,o),
(206,-10,cs)
);
},
{
closed = 1;
nodes = (
(137,58,o),
(116,160,o),
(116,357,cs),
(116,554,o),
(140,656,o),
(205,656,cs),
(273,656,o),
(294,557,o),
(294,357,cs),
(294,159,o),
(273,58,o),
(206,58,cs)
);
}
);
};
layerId = "D7742CE6-1B18-47A0-AEB5-463D77EA217C";
shapes = (
{
closed = 1;
nodes = (
(308,-10,o),
(372,81,o),
(372,357,cs),
(372,614,o),
(319,724,o),
(206,724,cs),
(103,724,o),
(38,630,o),
(38,357,cs),
(38,118,o),
(86,-10,o),
(206,-10,cs)
);
},
{
closed = 1;
nodes = (
(137,58,o),
(116,160,o),
(116,357,cs),
(116,554,o),
(140,656,o),
(205,656,cs),
(273,656,o),
(294,557,o),
(294,357,cs),
(294,159,o),
(273,58,o),
(206,58,cs)
);
}
);
width = 411;
},
{
background = {
shapes = (
{
closed = 1;
nodes = (
(328,-10,o),
(398,87,o),
(398,357,cs),
(398,609,o),
(338,726,o),
(206,726,cs),
(83,726,o),
(12,624,o),
(12,357,cs),
(12,124,o),
(65,-10,o),
(206,-10,cs)
);
},
{
closed = 1;
nodes = (
(185,134,o),
(187,203,o),
(187,357,cs),
(187,507,o),
(191,580,o),
(205,580,cs),
(222,580,o),
(223,514,o),
(223,357,cs),
(223,202,o),
(221,134,o),
(206,134,cs)
);
}
);
};
layerId = "F138D99C-4E28-42C5-9F3E-22494052B08F";
shapes = (
{
closed = 1;
nodes = (
(328,-10,o),
(398,87,o),
(398,357,cs),
(398,609,o),
(338,726,o),
(206,726,cs),
(83,726,o),
(12,624,o),
(12,357,cs),
(12,124,o),
(65,-10,o),
(206,-10,cs)
);
},
{
closed = 1;
nodes = (
(185,134,o),
(187,203,o),
(187,357,cs),
(187,507,o),
(191,580,o),
(205,580,cs),
(222,580,o),
(223,514,o),
(223,357,cs),
(223,202,o),
(221,134,o),
(206,134,cs)
);
}
);
width = 411;
}
);
unicode = 48;
}
{
glyphname = one.beng;
layers = (
{
associatedMasterId = UUID0;
attr = {
coordinates = (
151,
100
);
};
background = {
shapes = (
{
closed = 1;
nodes = (
(412.88,0,l),
(412.88,714,l),
(279.49,714,l),
(58.94,533.84,l),
(138.27,436.63,l),
(214.54,500.51,ls),
(233.61,516.8,o),
(246.05,528.85,o),
(264.39,550.02,c),
(262.78,502.36,o),
(261.61,425.14,o),
(261.61,390.49,cs),
(261.61,0,l)
);
}
);
};
layerId = "2d2e6f14-380f-4ae3-9966-e61cc01e70ef";
name = "Bold Semi (intermediate)";
shapes = (
{
closed = 1;
nodes = (
(399,0,l),
(399,714,l),
(275,714,l),
(45,531,l),
(118,440,l),
(200,506,ls),
(219,521,o),
(246,547,o),
(252,555,c),
(251,512,o),
(248,447,o),
(248,413,cs),
(248,0,l)
);
}
);
width = 551;
},
{
background = {
shapes = (
{
closed = 1;
nodes = (
(347,0,l),
(347,714,l),
(274,714,l),
(87,568,l),
(134,508,l),
(206,567,ls),
(233,590,o),
(243,599,o),
(265,622,c),
(264,578,o),
(261,502,o),
(261,446,cs),
(261,0,l)
);
}
);
};
layerId = UUID0;
shapes = (
{
closed = 1;
nodes = (
(347,0,l),
(347,714,l),
(274,714,l),
(87,568,l),
(134,508,l),
(206,567,ls),
(233,590,o),
(243,599,o),
(265,622,c),
(264,578,o),
(261,502,o),
(261,446,cs),
(261,0,l)
);
}
);
width = 551;
},
{
layerId = "28FB090A-653E-4199-B7BE-FAE23D31B682";
shapes = (
{
closed = 1;
nodes = (
(323,0,l),
(323,714,l),
(300,714,l),
(105,572,l),
(121,551,l),
(244,642,ls),
(269,661,o),
(282,671,o),
(298,685,c),
(297,658,o),
(297,620,o),
(297,563,cs),
(297,0,l)
);
}
);
width = 551;
},
{
layerId = "F455777D-7EDD-47E2-866A-D8A5173CE243";
shapes = (
{
closed = 1;
nodes = (
(455,0,l),
(455,714,l),
(283,714,l),
(41,512,l),
(141,391,l),
(220,458,ls),
(234,470,o),
(248,484,o),
(264,504,c),
(262,454,o),
(262,376,o),
(262,355,cs),
(262,0,l)
);
}
);
width = 578;
},
{
background = {
shapes = (
{
closed = 1;
nodes = (
(243,0,l),
(243,714,l),
(225,714,l),
(79,572,l),
(91,554,l),
(183,647,ls),
(203,668,o),
(206,670,o),
(224,690,c),
(223,664,o),
(223,628,o),
(223,571,cs),
(223,0,l)
);
}
);
};
layerId = m004;
shapes = (
{
closed = 1;
nodes = (
(243,0,l),
(243,714,l),
(225,714,l),
(79,572,l),
(91,554,l),
(183,647,ls),
(203,668,o),
(206,670,o),
(224,690,c),
(223,664,o),
(223,628,o),
(223,571,cs),
(223,0,l)
);
}
);
width = 414;
},
{
associatedMasterId = m005;
attr = {
coordinates = (
151,
70
);
};
background = {
shapes = (
{
closed = 1;
nodes = (
(412.88,0,l),
(412.88,714,l),
(279.49,714,l),
(58.94,533.84,l),
(138.27,436.63,l),
(214.54,500.51,ls),
(233.61,516.8,o),
(246.05,528.85,o),
(264.39,550.02,c),
(262.78,502.36,o),
(261.61,425.14,o),
(261.61,390.49,cs),
(261.61,0,l)
);
}
);
};
layerId = "0ECFBAAD-B128-4109-BBA5-3F6E160564D6";
name = "Bold Semi (intermediate)";
shapes = (
{
closed = 1;
nodes = (
(367,0,l),
(367,714,l),
(216,714,l),
(29,534,l),
(116,446,l),
(173,513,ls),
(184,526,o),
(188,551,o),
(204,560,c),
(201,515,o),
(203,467,o),
(203,416,cs),
(203,0,l)
);
}
);
width = 446;
},
{
background = {
shapes = (
{
closed = 1;
nodes = (
(347,0,l),
(347,714,l),
(274,714,l),
(87,568,l),
(134,508,l),
(206,567,ls),
(233,590,o),
(243,599,o),
(265,622,c),
(264,578,o),
(261,502,o),
(261,446,cs),
(261,0,l)
);
}
);
};
layerId = m005;
shapes = (
{
closed = 1;
nodes = (
(347,0,l),
(347,714,l),
(274,714,l),
(87,568,l),
(134,508,l),
(206,567,ls),
(233,590,o),
(243,599,o),
(265,622,c),
(264,578,o),
(261,502,o),
(261,446,cs),
(261,0,l)
);
}
);
width = 551;
},
{
background = {
shapes = (
{
closed = 1;
nodes = (
(415,0,l),
(415,714,l),
(227,714,l),
(27,519,l),
(135,409,l),
(190,477,ls),
(199,488,o),
(195,507,o),
(217,523,c),
(214,476,o),
(218,402,o),
(218,376,cs),
(218,0,l)
);
}
);
};
layerId = m006;
shapes = (
{
closed = 1;
nodes = (
(415,0,l),
(415,714,l),
(227,714,l),
(27,519,l),
(135,409,l),
(190,477,ls),
(199,488,o),
(195,507,o),
(217,523,c),
(214,476,o),
(218,402,o),
(218,376,cs),
(218,0,l)
);
}
);
width = 476;
},
{
layerId = "ADAF9463-560A-4353-9B5A-2FAD12EBF6B5";
shapes = (
{
closed = 1;
nodes = (
(231,0,l),
(231,714,l),
(209,714,l),
(72,571,l),
(86,551,l),
(169,642,ls),
(188,664,o),
(191,666,o),
(208,686,c),
(207,663,o),
(207,631,o),
(207,566,cs),
(207,0,l)
);
}
);
width = 388;
}
);
unicode = 49;
}
{
glyphname = two.beng;
layers = (
{
associatedMasterId = UUID0;
attr = {
coordinates = (
151,
100
);
};
background = {
shapes = (
{
closed = 1;
nodes = (
(36.63,0,l),
(520.67,0,l),
(520.67,127.97,l),
(227.98,127.97,l),
(227.98,132.58,l),
(314.35,220.63,ls),
(434.09,336.61,o),
(501.21,413.46,o),
(501.21,530.56,cs),
(501.21,645.29,o),
(414.28,724,o),
(278.3,724,cs),
(167.07,724,o),
(94.41,675.41,o),
(34.48,621.7,c),
(117.42,524.05,l),
(169.74,570.37,o),
(213.47,596.54,o),
(265.1,596.54,cs),
(314.19,596.54,o),
(350.82,568.79,o),
(350.82,513.53,cs),
(350.82,443.2,o),
(310.12,396.89,o),
(207.02,287.01,cs),
(36.63,106.5,l)
);
}
);
};
layerId = "5d9f609c-b92b-4705-8af0-344cba15c852";
name = "Bold Semi (intermediate)";
shapes = (
{
closed = 1;
nodes = (
(40,0,l),
(519,0,l),
(519,127,l),
(228,127,l),
(228,134,l),
(314,220,ls),
(414,321,o),
(499,412,o),
(499,523,cs),
(499,646,o),
(414,724,o),
(278,724,cs),
(163,724,o),
(96,675,o),
(38,622,c),
(120,525,l),
(172,572,o),
(218,598,o),
(269,598,cs),
(318,598,o),
(349,570,o),
(349,522,cs),
(349,441,o),
(301,387,o),
(208,286,cs),
(40,105,l)
);
}
);
width = 551;
},
{
background = {
shapes = (
{
closed = 1;
nodes = (
(47,0,l),
(492,0,l),
(492,81,l),
(156,81,l),
(156,85,l),
(293,231,ls),
(392,336,o),
(464,422,o),
(464,533,cs),
(464,652,o),
(385,724,o),
(260,724,cs),
(175,724,o),
(106,687,o),
(54,640,c),
(104,582,l),
(149,621,o),
(197,649,o),
(259,649,cs),
(327,649,o),
(374,606,o),
(374,530,cs),
(374,431,o),
(315,367,o),
(218,262,cs),
(47,76,l)
);
}
);
};
layerId = UUID0;
shapes = (
{
closed = 1;
nodes = (
(47,0,l),
(492,0,l),
(492,81,l),
(156,81,l),
(156,85,l),
(293,231,ls),
(392,336,o),
(464,422,o),
(464,533,cs),
(464,652,o),
(385,724,o),
(260,724,cs),
(175,724,o),
(106,687,o),
(54,640,c),
(104,582,l),
(149,621,o),
(197,649,o),
(259,649,cs),
(327,649,o),
(374,606,o),
(374,530,cs),
(374,431,o),
(315,367,o),
(218,262,cs),
(47,76,l)
);
}
);
width = 551;
},
{
layerId = "28FB090A-653E-4199-B7BE-FAE23D31B682";
shapes = (
{
closed = 1;
nodes = (
(52,0,l),
(484,0,l),
(484,26,l),
(88,26,l),
(88,27,l),
(296,247,ls),
(393,349,o),
(451,419,o),
(451,539,cs),
(451,652,o),
(378,724,o),
(263,724,cs),
(201,724,o),
(134,705,o),
(73,655,c),
(88,634,l),
(141,677,o),
(204,698,o),
(261,698,cs),
(363,698,o),
(424,639,o),
(424,539,cs),
(424,428,o),
(373,363,o),
(276,261,cs),
(52,24,l)
);
}
);
width = 551;
},
{
layerId = "F455777D-7EDD-47E2-866A-D8A5173CE243";
shapes = (
{
closed = 1;
nodes = (
(30,0,l),
(539,0,l),
(539,158,l),
(274,158,l),
(274,163,l),
(328,214,ls),
(461,337,o),
(525,408,o),
(525,529,cs),
(525,641,o),
(433,724,o),
(290,724,cs),
(162,724,o),
(87,668,o),
(22,610,c),
(126,487,l),
(183,538,o),
(224,563,o),
(269,563,cs),
(306,563,o),
(336,545,o),
(336,503,cs),
(336,451,o),
(307,416,o),
(200,303,cs),
(30,126,l)
);
}
);
width = 578;
},
{
background = {
shapes = (
{
closed = 1;
nodes = (
(39,0,l),
(363,0,l),
(363,22,l),
(66,22,l),
(66,23,l),
(223,249,ls),
(296,354,o),
(338,421,o),
(338,539,cs),
(338,652,o),
(283,724,o),
(197,724,cs),
(152,724,o),
(101,707,o),
(55,656,c),
(66,638,l),
(105,681,o),
(153,702,o),
(196,702,cs),
(272,702,o),
(318,642,o),
(318,540,cs),
(318,429,o),
(280,365,o),
(208,262,cs),
(39,20,l)
);
}
);
};
layerId = m004;
shapes = (
{
closed = 1;
nodes = (
(39,0,l),
(363,0,l),
(363,22,l),
(66,22,l),
(66,23,l),
(223,249,ls),
(296,354,o),
(338,421,o),
(338,539,cs),
(338,652,o),
(283,724,o),
(197,724,cs),
(152,724,o),
(101,707,o),
(55,656,c),
(66,638,l),
(105,681,o),
(153,702,o),
(196,702,cs),
(272,702,o),
(318,642,o),
(318,540,cs),
(318,429,o),
(280,365,o),
(208,262,cs),
(39,20,l)
);
}
);
width = 413;
},
{
associatedMasterId = m005;
attr = {
coordinates = (
151,
70
);
};
background = {
shapes = (
{
closed = 1;
nodes = (
(36.63,0,l),
(520.67,0,l),
(520.67,127.97,l),
(227.98,127.97,l),
(227.98,132.58,l),
(314.35,220.63,ls),
(434.09,336.61,o),
(501.21,413.46,o),
(501.21,530.56,cs),
(501.21,645.29,o),
(414.28,724,o),
(278.3,724,cs),
(167.07,724,o),
(94.41,675.41,o),
(34.48,621.7,c),
(117.42,524.05,l),
(169.74,570.37,o),
(213.47,596.54,o),
(265.1,596.54,cs),
(314.19,596.54,o),
(350.82,568.79,o),
(350.82,513.53,cs),
(350.82,443.2,o),
(310.12,396.89,o),
(207.02,287.01,cs),
(36.63,106.5,l)
);
}
);
};
layerId = "C896CCF1-3B8A-4362-84C7-3FCAB2290EE7";
name = "Bold Semi (intermediate)";
shapes = (
{
closed = 1;
nodes = (
(18,0,l),
(413,0,l),
(413,123,l),
(227,123,l),
(227,130,l),
(278,207,ls),
(360,331,o),
(406,417,o),
(406,524,cs),
(406,646,o),
(334,724,o),
(223,724,cs),
(121,724,o),
(61,676,o),
(9,623,c),
(97,530,l),
(141,575,o),
(170,602,o),
(202,602,cs),
(224,602,o),
(246,572,o),
(246,523,cs),
(246,444,o),
(226,391,o),
(148,283,cs),
(18,103,l)
);
}
);
width = 445;
},
{
background = {
shapes = (
{
closed = 1;
nodes = (
(47,0,l),
(492,0,l),
(492,81,l),
(156,81,l),
(156,85,l),
(293,231,ls),
(392,336,o),
(464,422,o),
(464,533,cs),
(464,652,o),
(385,724,o),
(260,724,cs),
(175,724,o),
(106,687,o),
(54,640,c),
(104,582,l),
(149,621,o),
(197,649,o),
(259,649,cs),
(327,649,o),
(374,606,o),
(374,530,cs),
(374,431,o),
(315,367,o),
(218,262,cs),
(47,76,l)
);
}
);
};
layerId = m005;
shapes = (
{
closed = 1;
nodes = (
(47,0,l),
(492,0,l),
(492,81,l),
(156,81,l),
(156,85,l),
(293,231,ls),
(392,336,o),
(464,422,o),
(464,533,cs),
(464,652,o),
(385,724,o),
(260,724,cs),
(175,724,o),
(106,687,o),
(54,640,c),
(104,582,l),
(149,621,o),
(197,649,o),
(259,649,cs),
(327,649,o),
(374,606,o),
(374,530,cs),
(374,431,o),
(315,367,o),
(218,262,cs),
(47,76,l)
);
}
);
width = 551;
},
{
background = {
shapes = (
{
closed = 1;
nodes = (
(12,0,l),
(438,0,l),
(438,147,l),
(264,147,l),
(264,152,l),
(301,203,ls),
(399,338,o),
(434,414,o),
(434,527,cs),
(434,643,o),
(355,724,o),
(237,724,cs),
(125,724,o),
(59,672,o),
(-1,614,c),
(104,501,l),
(157,553,o),
(181,576,o),
(208,576,cs),
(222,576,o),
(244,554,o),
(244,510,cs),
(244,452,o),
(237,413,o),
(147,295,cs),
(12,118,l)
);
}
);
};
layerId = m006;
shapes = (
{
closed = 1;
nodes = (
(12,0,l),
(438,0,l),
(438,147,l),
(264,147,l),
(264,152,l),
(301,203,ls),
(399,338,o),
(434,414,o),
(434,527,cs),
(434,643,o),
(355,724,o),
(237,724,cs),
(125,724,o),
(59,672,o),
(-1,614,c),
(104,501,l),
(157,553,o),
(181,576,o),
(208,576,cs),
(222,576,o),
(244,554,o),
(244,510,cs),
(244,452,o),
(237,413,o),
(147,295,cs),
(12,118,l)
);
}
);
width = 476;
},
{
background = {
shapes = (
{
closed = 1;
nodes = (
(39,0,l),
(363,0,l),
(363,22,l),
(66,22,l),
(66,23,l),
(223,249,ls),
(296,354,o),
(338,421,o),
(338,539,cs),
(338,652,o),
(283,724,o),
(197,724,cs),
(152,724,o),
(101,707,o),
(55,656,c),
(66,638,l),
(105,681,o),
(153,702,o),
(196,702,cs),
(272,702,o),
(318,642,o),
(318,540,cs),
(318,429,o),
(280,365,o),
(208,262,cs),
(39,20,l)
);
}
);
};
layerId = m007;
shapes = (
{
closed = 1;
nodes = (
(31,0,l),
(296,0,l),
(296,22,l),
(57,22,l),
(57,23,l),
(181,249,ls),
(238,353,o),
(276,420,o),
(276,539,cs),
(276,651,o),
(231,724,o),
(160,724,cs),
(122,724,o),
(80,707,o),
(43,656,c),
(54,638,l),
(84,679,o),
(122,702,o),
(159,702,cs),
(219,702,o),
(256,642,o),
(256,540,cs),
(256,430,o),
(224,366,o),
(166,262,cs),
(31,20,l)
);
}
);
width = 336;
},
{
associatedMasterId = m008;
attr = {
coordinates = (
151,
60
);
};
background = {
shapes = (
{
closed = 1;
nodes = (
(36.63,0,l),
(520.67,0,l),
(520.67,127.97,l),
(227.98,127.97,l),
(227.98,132.58,l),
(314.35,220.63,ls),
(434.09,336.61,o),
(501.21,413.46,o),
(501.21,530.56,cs),
(501.21,645.29,o),
(414.28,724,o),
(278.3,724,cs),
(167.07,724,o),
(94.41,675.41,o),
(34.48,621.7,c),
(117.42,524.05,l),
(169.74,570.37,o),
(213.47,596.54,o),
(265.1,596.54,cs),
(314.19,596.54,o),
(350.82,568.79,o),
(350.82,513.53,cs),
(350.82,443.2,o),
(310.12,396.89,o),
(207.02,287.01,cs),
(36.63,106.5,l)
);
}
);
};
layerId = "8A08D21A-E652-4AEB-8DE6-2C48947AF3C5";
name = "Bold Semi (intermediate)";
shapes = (
{
closed = 1;
nodes = (
(18,0,l),
(413,0,l),
(413,123,l),
(227,123,l),
(227,130,l),
(278,207,ls),
(360,331,o),
(406,417,o),
(406,524,cs),
(406,646,o),
(334,724,o),
(223,724,cs),
(121,724,o),
(61,676,o),
(9,623,c),
(97,530,l),
(141,575,o),
(170,602,o),
(202,602,cs),
(224,602,o),
(246,572,o),
(246,523,cs),
(246,444,o),
(226,391,o),
(148,283,cs),
(18,103,l)
);
}
);
width = 445;
},
{
background = {
shapes = (
{
closed = 1;
nodes = (
(47,0,l),
(492,0,l),
(492,81,l),
(156,81,l),
(156,85,l),
(293,231,ls),
(392,336,o),
(464,422,o),
(464,533,cs),
(464,652,o),
(385,724,o),
(260,724,cs),
(175,724,o),
(106,687,o),
(54,640,c),
(104,582,l),
(149,621,o),
(197,649,o),
(259,649,cs),
(327,649,o),
(374,606,o),
(374,530,cs),
(374,431,o),
(315,367,o),
(218,262,cs),
(47,76,l)
);
}
);
};
layerId = m008;
shapes = (
{
closed = 1;
nodes = (
(47,0,l),
(492,0,l),
(492,81,l),
(156,81,l),
(156,85,l),
(293,231,ls),
(392,336,o),
(464,422,o),
(464,533,cs),
(464,652,o),
(385,724,o),
(260,724,cs),
(175,724,o),
(106,687,o),
(54,640,c),
(104,582,l),
(149,621,o),
(197,649,o),
(259,649,cs),
(327,649,o),
(374,606,o),
(374,530,cs),
(374,431,o),
(315,367,o),
(218,262,cs),
(47,76,l)
);
}
);
width = 551;
},
{
background = {
shapes = (
{
closed = 1;
nodes = (
(12,0,l),
(438,0,l),
(438,147,l),
(264,147,l),
(264,152,l),
(301,203,ls),
(399,338,o),
(434,414,o),
(434,527,cs),
(434,643,o),
(355,724,o),
(237,724,cs),
(125,724,o),
(59,672,o),
(-1,614,c),
(104,501,l),
(157,553,o),
(181,576,o),
(208,576,cs),
(222,576,o),
(244,554,o),
(244,510,cs),
(244,452,o),
(237,413,o),
(147,295,cs),
(12,118,l)
);
}
);
};
layerId = m009;
shapes = (
{
closed = 1;
nodes = (
(12,0,l),
(438,0,l),
(438,147,l),
(264,147,l),
(264,152,l),
(301,203,ls),
(399,338,o),
(434,414,o),
(434,527,cs),
(434,643,o),
(355,724,o),
(237,724,cs),
(125,724,o),
(59,672,o),
(-1,614,c),
(104,501,l),
(157,553,o),
(181,576,o),
(208,576,cs),
(222,576,o),
(244,554,o),
(244,510,cs),
(244,452,o),
(237,413,o),
(147,295,cs),
(12,118,l)
);
}
);
width = 476;
},
{
layerId = "ADAF9463-560A-4353-9B5A-2FAD12EBF6B5";
shapes = (
{
closed = 1;
nodes = (
(36,0,l),
(341,0,l),
(341,25,l),
(68,25,l),
(68,26,l),
(210,248,ls),
(277,353,o),
(318,421,o),
(318,539,cs),
(318,651,o),
(266,724,o),
(185,724,cs),
(140,724,o),
(92,706,o),
(49,655,c),
(63,635,l),
(99,677,o),
(142,699,o),
(183,699,cs),
(252,699,o),
(294,640,o),
(294,539,cs),
(294,430,o),
(258,366,o),
(191,262,cs),
(36,23,l)
);
}
);
width = 387;
}
);
unicode = 50;
}
{
color = 0;
glyphname = three.beng;
layers = (
{
associatedMasterId = UUID0;
attr = {
coordinates = (
151,
100
);
};
background = {
shapes = (
{
closed = 1;
nodes = (
(431.18,-10,o),
(519.06,82.88,o),
(519.06,203.61,cs),
(519.06,301.27,o),
(456.84,358.39,o),
(343.67,373,c),
(343.67,376,l),
(430.79,396.88,o),
(498.28,455.27,o),
(498.28,553.1,cs),
(498.28,657.32,o),
(415.52,724,o),
(272.47,724,cs),
(163.78,724,o),
(93.22,692.22,o),
(38.12,651.61,c),
(103.25,549.74,l),
(136,572.54,o),
(188.44,600.81,o),
(254.17,600.81,cs),
(311.92,600.81,o),
(349.94,574.23,o),
(349.94,524.53,cs),
(349.94,465.27,o),
(304.14,425.52,o),
(197.53,425.52,cs),
(145.34,425.52,l),
(145.34,308.21,l),
(196.92,308.21,ls),
(314.97,308.21,o),
(360.96,276.31,o),
(360.96,212.1,cs),
(360.96,149.72,o),
(323.21,111.36,o),
(220.29,111.36,cs),
(164.17,111.36,o),
(95.78,127.14,o),
(36.34,158.36,c),
(36.34,29,l),
(95,2.44,o),
(155.56,-10,o),
(238.15,-10,cs)
);
}
);
};
layerId = "de8f51fb-4112-48c4-9751-70c031481a58";
name = "Bold Semi (intermediate)";
shapes = (
{
closed = 1;
nodes = (
(423,-10,o),
(512,83,o),
(512,208,cs),
(512,302,o),
(452,359,o),
(337,373,c),
(337,376,l),
(424,396,o),
(491,456,o),
(491,554,cs),
(491,662,o),
(398,724,o),
(257,724,cs),
(158,724,o),
(83,694,o),
(29,654,c),
(105,553,l),
(136,575,o),
(182,602,o),
(244,602,cs),
(313,602,o),
(343,572,o),
(343,521,cs),
(343,465,o),
(308,419,o),
(188,419,cs),
(138,419,l),
(138,313,l),
(189,313,ls),
(316,313,o),
(361,275,o),
(361,217,cs),
(361,154,o),
(327,110,o),
(216,110,cs),
(160,110,o),
(87,126,o),
(28,157,c),
(28,29,l),
(87,3,o),
(154,-10,o),
(231,-10,cs)
);
}
);
width = 551;
},
{
background = {
shapes = (
{
closed = 1;
nodes = (
(408,-10,o),
(491,78,o),
(491,203,cs),
(491,297,o),
(430,359,o),
(315,373,c),
(315,376,l),
(407,392,o),
(469,451,o),
(469,547,cs),
(469,650,o),
(396,724,o),
(256,724,cs),
(165,724,o),
(92,691,o),
(43,651,c),
(88,590,l),
(136,625,o),
(186,649,o),
(256,649,cs),
(329,649,o),
(378,609,o),
(378,541,cs),
(378,461,o),
(320,406,o),
(214,406,cs),
(149,406,l),
(149,332,l),
(214,332,ls),
(329,332,o),
(400,294,o),
(400,206,cs),
(400,118,o),
(347,65,o),
(227,65,cs),
(166,65,o),
(97,82,o),
(40,112,c),
(40,29,l),
(95,0,o),
(158,-10,o),
(229,-10,cs)
);
}
);
};
layerId = UUID0;
shapes = (
{
closed = 1;
nodes = (
(408,-10,o),
(491,78,o),
(491,203,cs),
(491,297,o),
(430,359,o),
(315,373,c),
(315,376,l),
(407,392,o),
(469,451,o),
(469,547,cs),
(469,650,o),
(396,724,o),
(256,724,cs),
(165,724,o),
(92,691,o),
(43,651,c),
(88,590,l),
(136,625,o),
(186,649,o),
(256,649,cs),
(329,649,o),
(378,609,o),
(378,541,cs),
(378,461,o),
(320,406,o),
(214,406,cs),
(149,406,l),
(149,332,l),
(214,332,ls),
(329,332,o),
(400,294,o),
(400,206,cs),
(400,118,o),
(347,65,o),
(227,65,cs),
(166,65,o),
(97,82,o),
(40,112,c),
(40,29,l),
(95,0,o),
(158,-10,o),
(229,-10,cs)
);
}
);
width = 551;
},
{
layerId = "28FB090A-653E-4199-B7BE-FAE23D31B682";
shapes = (
{
closed = 1;
nodes = (
(389,-10,o),
(466,70,o),
(466,194,cs),
(466,292,o),
(401,360,o),
(291,371,c),
(291,372,l),
(376,390,o),
(443,445,o),
(443,550,cs),
(443,642,o),
(383,724,o),
(254,724,cs),
(169,724,o),
(109,692,o),
(50,657,c),
(65,634,l),
(129,675,o),
(181,698,o),
(255,698,cs),
(343,698,o),
(416,653,o),
(416,548,cs),
(416,450,o),
(347,384,o),
(207,384,cs),
(150,384,l),
(150,358,l),
(208,358,ls),
(335,358,o),
(439,316,o),
(439,193,cs),
(439,77,o),
(367,16,o),
(227,16,cs),
(149,16,o),
(96,28,o),
(42,56,c),
(42,27,l),
(95,1,o),
(159,-10,o),
(229,-10,cs)
);
}
);
width = 551;
},
{
layerId = "F455777D-7EDD-47E2-866A-D8A5173CE243";
shapes = (
{
closed = 1;
nodes = (
(446,-10,o),
(537,86,o),
(537,204,cs),
(537,304,o),
(474,358,o),
(362,373,c),
(362,376,l),
(446,400,o),
(517,458,o),
(517,557,cs),
(517,662,o),
(428,724,o),
(283,724,cs),
(163,724,o),
(94,693,o),
(35,652,c),
(113,524,l),
(136,539,o),
(190,570,o),
(253,570,cs),
(301,570,o),
(332,552,o),
(332,514,cs),
(332,468,o),
(294,438,o),
(187,438,cs),
(143,438,l),
(143,293,l),
(186,293,ls),
(306,293,o),
(336,265,o),
(336,216,cs),
(336,170,o),
(308,141,o),
(216,141,cs),
(163,141,o),
(95,156,o),
(34,188,c),
(34,29,l),
(95,4,o),
(154,-10,o),
(244,-10,cs)
);
}
);
width = 578;
},
{
associatedMasterId = m005;
attr = {
coordinates = (
151,
70
);
};
background = {
shapes = (
{
closed = 1;
nodes = (
(431.18,-10,o),
(519.06,82.88,o),
(519.06,203.61,cs),
(519.06,301.27,o),
(456.84,358.39,o),
(343.67,373,c),
(343.67,376,l),
(430.79,396.88,o),
(498.28,455.27,o),
(498.28,553.1,cs),
(498.28,657.32,o),
(415.52,724,o),
(272.47,724,cs),
(163.78,724,o),
(93.22,692.22,o),
(38.12,651.61,c),
(103.25,549.74,l),
(136,572.54,o),
(188.44,600.81,o),
(254.17,600.81,cs),
(311.92,600.81,o),
(349.94,574.23,o),
(349.94,524.53,cs),
(349.94,465.27,o),
(304.14,425.52,o),
(197.53,425.52,cs),
(145.34,425.52,l),
(145.34,308.21,l),
(196.92,308.21,ls),
(314.97,308.21,o),
(360.96,276.31,o),
(360.96,212.1,cs),
(360.96,149.72,o),
(323.21,111.36,o),
(220.29,111.36,cs),
(164.17,111.36,o),
(95.78,127.14,o),
(36.34,158.36,c),
(36.34,29,l),
(95,2.44,o),
(155.56,-10,o),
(238.15,-10,cs)
);
}
);
};
layerId = "F9CA11B6-668B-4D8E-B95B-BA3CEE2BD620";
name = "Bold Semi (intermediate)";
shapes = (
{
closed = 1;
nodes = (
(345,-10,o),
(414,83,o),
(414,208,cs),
(414,302,o),
(365,359,o),
(283,373,c),
(283,376,l),
(346,396,o),
(400,457,o),
(400,553,cs),
(400,661,o),
(335,724,o),
(224,724,cs),
(126,724,o),
(77,695,o),
(29,654,c),
(88,556,l),
(102,580,o),
(147,606,o),
(194,606,cs),
(220,606,o),
(244,575,o),
(244,523,cs),
(244,465,o),
(214,418,o),
(140,418,cs),
(109,418,l),
(109,315,l),
(138,315,ls),
(224,315,o),
(240,277,o),
(240,216,cs),
(240,151,o),
(222,106,o),
(162,106,cs),
(125,106,o),
(76,121,o),
(28,153,c),
(28,29,l),
(74,3,o),
(115,-10,o),
(189,-10,cs)
);
}
);
width = 446;
},
{
layerId = m005;
shapes = (
{
closed = 1;
nodes = (
(300,-10,o),
(369,72,o),
(369,195,cs),
(369,293,o),
(317,352,o),
(228,370,c),
(228,374,l),
(315,400,o),
(356,466,o),
(356,550,cs),
(356,651,o),
(295,724,o),
(187,724,cs),
(126,724,o),
(78,703,o),
(24,660,c),
(64,602,l),
(102,633,o),
(136,653,o),
(176,653,cs),
(241,653,o),
(275,611,o),
(275,541,cs),
(275,460,o),
(230,404,o),
(138,404,cs),
(103,404,l),
(103,334,l),
(136,334,ls),
(237,334,o),
(285,284,o),
(285,197,cs),
(285,114,o),
(249,61,o),
(170,61,cs),
(116,61,o),
(72,74,o),
(29,100,c),
(29,19,l),
(72,-1,o),
(117,-10,o),
(176,-10,cs)
);
}
);
width = 411;
},
{
layerId = m006;
shapes = (
{
closed = 1;
nodes = (
(328,-10,o),
(407,83,o),
(407,206,cs),
(407,301,o),
(359,350,o),
(266,372,c),
(266,377,l),
(356,405,o),
(395,475,o),
(395,552,cs),
(395,667,o),
(309,724,o),
(190,724,cs),
(118,724,o),
(56,705,o),
(8,657,c),
(97,536,l),
(108,553,o),
(138,576,o),
(168,576,cs),
(218,576,o),
(217,545,o),
(217,521,cs),
(217,473,o),
(197,434,o),
(127,434,cs),
(95,434,l),
(95,297,l),
(125,297,ls),
(223,297,o),
(223,251,o),
(223,216,cs),
(223,177,o),
(218,136,o),
(162,136,cs),
(127,136,o),
(66,154,o),
(20,181,c),
(20,21,l),
(67,1,o),
(114,-10,o),
(178,-10,cs)
);
}
);
width = 411;
},
{
layerId = "ADAF9463-560A-4353-9B5A-2FAD12EBF6B5";
shapes = (
{
closed = 1;
nodes = (
(282,-10,o),
(345,65,o),
(345,188,cs),
(345,288,o),
(290,353,o),
(204,369,c),
(204,372,l),
(289,397,o),
(331,460,o),
(331,549,cs),
(331,641,o),
(286,724,o),
(185,724,cs),
(131,724,o),
(92,702,o),
(34,662,c),
(43,644,l),
(98,684,o),
(135,702,o),
(181,702,cs),
(256,702,o),
(312,653,o),
(312,554,cs),
(312,452,o),
(251,385,o),
(145,385,cs),
(108,385,l),
(108,358,l),
(143,358,ls),
(246,358,o),
(325,305,o),
(325,185,cs),
(325,74,o),
(269,13,o),
(175,13,cs),
(109,13,o),
(76,23,o),
(35,48,c),
(35,18,l),
(75,-2,o),
(119,-10,o),
(175,-10,cs)
);
}
);
width = 411;
}
);
unicode = 51;
}
{
glyphname = four.beng;
layers = (
{
associatedMasterId = UUID0;
attr = {
coordinates = (
151,
100
);
};
background = {
shapes = (
{
closed = 1;
nodes = (
(314.16,0,l),
(462.38,0,l),
(462.38,146.58,l),
(550.52,146.58,l),
(550.52,265.4,l),
(462.38,265.4,l),
(462.38,715.56,l),
(319.14,715.56,l),
(14.66,263.01,l),
(14.66,146.58,l),
(314.16,146.58,l)
);
},
{
closed = 1;
nodes = (
(147.41,263.57,l),
(273.99,454.43,ls),
(289.21,478.87,o),
(303.11,503.62,o),
(314.33,531.45,c),
(318.94,531.45,l),
(317.94,513.07,o),
(314.16,430.66,o),
(314.16,385.11,cs),
(314.16,263.57,l)
);
}
);
};
layerId = "0d83fe49-d358-4662-bb57-8093990895f1";
name = "Bold Semi (intermediate)";
shapes = (
{
closed = 1;
nodes = (
(297,0,l),
(444,0,l),
(444,148,l),
(530,148,l),
(530,265,l),
(444,265,l),
(444,714,l),
(305,714,l),
(2,253,l),
(2,148,l),
(297,148,l)
);
},
{
closed = 1;
nodes = (
(135,265,l),
(254,446,ls),
(273,477,o),
(287,508,o),
(299,535,c),
(303,535,l),
(302,516,o),
(297,411,o),
(297,386,cs),
(297,265,l)
);
}
);
width = 551;
},
{
background = {
shapes = (
{
closed = 1;
nodes = (
(341,0,l),
(427,0,l),
(427,160,l),
(531,160,l),
(531,241,l),
(427,241,l),
(427,718,l),
(335,718,l),
(11,238,l),
(11,160,l),
(341,160,l)
);
},
{
closed = 1;
nodes = (
(98,241,l),
(299,538,ls),
(313,560,o),
(333,600,o),
(343,626,c),
(347,626,l),
(346,582,o),
(341,488,o),
(341,415,cs),
(341,241,l)
);
}
);
};
layerId = UUID0;
shapes = (
{
closed = 1;
nodes = (
(341,0,l),
(427,0,l),
(427,160,l),
(531,160,l),
(531,241,l),
(427,241,l),
(427,718,l),
(335,718,l),
(11,238,l),
(11,160,l),
(341,160,l)
);
},
{
closed = 1;
nodes = (
(98,241,l),
(299,538,ls),
(313,560,o),
(333,600,o),
(343,626,c),
(347,626,l),
(346,582,o),
(341,488,o),
(341,415,cs),
(341,241,l)
);
}
);
width = 551;
},
{
layerId = "28FB090A-653E-4199-B7BE-FAE23D31B682";
shapes = (
{
closed = 1;
nodes = (
(377,0,l),
(404,0,l),
(404,193,l),
(527,193,l),
(527,219,l),
(404,219,l),
(404,721,l),
(375,721,l),
(25,214,l),
(25,193,l),
(377,193,l)
);
},
{
closed = 1;
nodes = (
(60,219,l),
(333,614,ls),
(353,643,o),
(367,665,o),
(380,690,c),
(382,689,l),
(378,627,o),
(378,577,o),
(378,448,cs),
(378,219,l)
);
}
);
width = 551;
},
{
layerId = "F455777D-7EDD-47E2-866A-D8A5173CE243";
shapes = (
{
closed = 1;
nodes = (
(297,0,l),
(485,0,l),
(485,138,l),
(563,138,l),
(563,281,l),
(485,281,l),
(485,714,l),
(309,714,l),
(17,279,l),
(17,138,l),
(297,138,l)
);
},
{
closed = 1;
nodes = (
(179,278,l),
(258,401,ls),
(274,427,o),
(284,442,o),
(296,471,c),
(301,471,l),
(300,469,o),
(297,394,o),
(297,366,cs),
(297,278,l)
);
}
);
width = 578;
},
{
associatedMasterId = m005;
attr = {
coordinates = (
151,
70
);
};
background = {
shapes = (
{
closed = 1;
nodes = (
(314.16,0,l),
(462.38,0,l),
(462.38,146.58,l),
(550.52,146.58,l),
(550.52,265.4,l),
(462.38,265.4,l),
(462.38,715.56,l),
(319.14,715.56,l),
(14.66,263.01,l),
(14.66,146.58,l),
(314.16,146.58,l)
);
},
{
closed = 1;
nodes = (
(147.41,263.57,l),
(273.99,454.43,ls),
(289.21,478.87,o),
(303.11,503.62,o),
(314.33,531.45,c),
(318.94,531.45,l),
(317.94,513.07,o),
(314.16,430.66,o),
(314.16,385.11,cs),
(314.16,263.57,l)
);
}
);
};
layerId = "83D54C29-32CC-4077-8CAD-F5AF4E3C8C0F";
name = "Bold Semi (intermediate)";
shapes = (
{
closed = 1;
nodes = (
(223,0,l),
(383,0,l),
(383,149,l),
(438,149,l),
(438,263,l),
(383,263,l),
(383,714,l),
(234,714,l),
(20,252,l),
(20,149,l),
(223,149,l)
);
},
{
closed = 1;
nodes = (
(155,263,l),
(197,454,ls),
(204,486,o),
(211,516,o),
(221,542,c),
(225,542,l),
(224,512,o),
(223,404,o),
(223,388,cs),
(223,263,l)
);
}
);
width = 446;
},
{
background = {
shapes = (
{
closed = 1;
nodes = (
(341,0,l),
(427,0,l),
(427,160,l),
(531,160,l),
(531,241,l),
(427,241,l),
(427,718,l),
(335,718,l),
(11,238,l),
(11,160,l),
(341,160,l)
);
},
{
closed = 1;
nodes = (
(98,241,l),
(299,538,ls),
(313,560,o),
(333,600,o),
(343,626,c),
(347,626,l),
(346,582,o),
(341,488,o),
(341,415,cs),
(341,241,l)
);
}
);
};
layerId = m005;
shapes = (
{
closed = 1;
nodes = (
(341,0,l),
(427,0,l),
(427,160,l),
(531,160,l),
(531,241,l),
(427,241,l),
(427,718,l),
(335,718,l),
(11,238,l),
(11,160,l),
(341,160,l)
);
},
{
closed = 1;
nodes = (
(98,241,l),
(299,538,ls),
(313,560,o),
(333,600,o),
(343,626,c),
(347,626,l),
(346,582,o),
(341,488,o),
(341,415,cs),
(341,241,l)
);
}
);
width = 551;
},
{
background = {
shapes = (
{
closed = 1;
nodes = (
(228,0,l),
(420,0,l),
(420,142,l),
(471,142,l),
(471,275,l),
(420,275,l),
(420,714,l),
(242,714,l),
(30,269,l),
(30,142,l),
(228,142,l)
);
},
{
closed = 1;
nodes = (
(188,273,l),
(206,416,ls),
(210,448,o),
(214,468,o),
(224,495,c),
(229,495,l),
(228,486,o),
(228,397,o),
(228,373,cs),
(228,273,l)
);
}
);
};
layerId = m006;
shapes = (
{
closed = 1;
nodes = (
(228,0,l),
(420,0,l),
(420,142,l),
(471,142,l),
(471,275,l),
(420,275,l),
(420,714,l),
(242,714,l),
(30,269,l),
(30,142,l),
(228,142,l)
);
},
{
closed = 1;
nodes = (
(188,273,l),
(206,416,ls),
(210,448,o),
(214,468,o),
(224,495,c),
(229,495,l),
(228,486,o),
(228,397,o),
(228,373,cs),
(228,273,l)
);
}
);
width = 476;
},
{
layerId = "ADAF9463-560A-4353-9B5A-2FAD12EBF6B5";
shapes = (
{
closed = 1;
nodes = (
(262,0,l),
(286,0,l),
(286,193,l),
(371,193,l),
(371,218,l),
(286,218,l),
(286,721,l),
(261,721,l),
(17,213,l),
(17,193,l),
(262,193,l)
);
},
{
closed = 1;
nodes = (
(46,218,l),
(231,614,ls),
(246,646,o),
(255,666,o),
(264,690,c),
(266,690,l),
(263,631,o),
(263,588,o),
(263,448,cs),
(263,218,l)
);
}
);
width = 388;
}
);
unicode = 52;
}
{
color = 0;
glyphname = five.beng;
layers = (
{
associatedMasterId = UUID0;
attr = {
coordinates = (
151,
100
);
};
background = {
shapes = (
{
closed = 1;
nodes = (
(425.13,-10,o),
(517.57,78.78,o),
(517.57,234.49,cs),
(517.57,376.98,o),
(420.62,456.3,o),
(298.94,456.3,cs),
(255.72,456.3,o),
(230.14,451.3,o),
(208.53,446.91,c),
(221.43,584.81,l),
(468.62,584.81,l),
(468.62,714,l),
(92.58,714,l),
(66.19,353.6,l),
(125.44,321.33,l),
(151.83,328.16,o),
(193.07,336.77,o),
(228.07,336.77,cs),
(318.16,336.77,o),
(364.35,297.14,o),
(364.35,226.93,cs),
(364.35,149.38,o),
(316.77,111.75,o),
(233.9,111.75,cs),
(177.07,111.75,o),
(100.29,131.8,o),
(53.02,157.53,c),
(53.02,29,l),
(101.51,2.61,o),
(167.34,-10,o),
(242.88,-10,cs)
);
}
);
};
layerId = "89cc19d3-336d-438b-aed6-3736d5fea88e";
name = "Bold Semi (intermediate)";
shapes = (
{
closed = 1;
nodes = (
(411,-10,o),
(509,84,o),
(509,239,cs),
(509,380,o),
(415,456,o),
(292,456,cs),
(255,456,o),
(224,451,o),
(202,446,c),
(214,586,l),
(460,586,l),
(460,714,l),
(83,714,l),
(56,350,l),
(116,318,l),
(141,326,o),
(187,334,o),
(220,334,cs),
(313,334,o),
(357,296,o),
(357,226,cs),
(357,147,o),
(311,113,o),
(223,113,cs),
(165,113,o),
(88,133,o),
(42,159,c),
(42,29,l),
(89,2,o),
(159,-10,o),
(231,-10,cs)
);
}
);
width = 551;
},
{
background = {
shapes = (
{
closed = 1;
nodes = (
(405,-10,o),
(495,80,o),
(495,229,cs),
(495,366,o),
(395,438,o),
(266,438,cs),
(224,438,o),
(185,433,o),
(164,428,c),
(183,633,l),
(443,633,l),
(443,714,l),
(106,714,l),
(79,378,l),
(123,350,l),
(150,355,o),
(201,363,o),
(236,363,cs),
(345,363,o),
(404,313,o),
(404,219,cs),
(404,114,o),
(343,66,o),
(240,66,cs),
(185,66,o),
(107,83,o),
(64,113,c),
(64,29,l),
(107,2,o),
(171,-10,o),
(238,-10,cs)
);
}
);
};
layerId = UUID0;
shapes = (
{
closed = 1;
nodes = (
(405,-10,o),
(495,80,o),
(495,229,cs),
(495,366,o),
(395,438,o),
(266,438,cs),
(224,438,o),
(185,433,o),
(164,428,c),
(183,633,l),
(443,633,l),
(443,714,l),
(106,714,l),
(79,378,l),
(123,350,l),
(150,355,o),
(201,363,o),
(236,363,cs),
(345,363,o),
(404,313,o),
(404,219,cs),
(404,114,o),
(343,66,o),
(240,66,cs),
(185,66,o),
(107,83,o),
(64,113,c),
(64,29,l),
(107,2,o),
(171,-10,o),
(238,-10,cs)
);
}
);
width = 551;
},
{
layerId = "28FB090A-653E-4199-B7BE-FAE23D31B682";
shapes = (
{
closed = 1;
nodes = (
(406,-10,o),
(481,74,o),
(481,220,cs),
(481,351,o),
(393,426,o),
(259,426,cs),
(203,426,o),
(153,417,o),
(117,407,c),
(140,688,l),
(426,688,l),
(426,714,l),
(116,714,l),
(89,393,l),
(111,379,l),
(163,393,o),
(203,400,o),
(257,400,cs),
(375,400,o),
(454,343,o),
(454,215,cs),
(454,81,o),
(378,16,o),
(257,16,cs),
(182,16,o),
(123,33,o),
(72,66,c),
(72,35,l),
(118,7,o),
(187,-10,o),
(254,-10,cs)
);
}
);
width = 551;
},
{
layerId = "F455777D-7EDD-47E2-866A-D8A5173CE243";
shapes = (
{
closed = 1;
nodes = (
(438,-10,o),
(532,78,o),
(532,238,cs),
(532,384,o),
(437,468,o),
(320,468,cs),
(276,468,o),
(259,463,o),
(237,459,c),
(246,554,l),
(485,554,l),
(485,714,l),
(84,714,l),
(58,338,l),
(127,303,l),
(153,311,o),
(188,320,o),
(223,320,cs),
(301,320,o),
(339,287,o),
(339,232,cs),
(339,172,o),
(300,141,o),
(230,141,cs),
(172,141,o),
(96,163,o),
(46,186,c),
(46,29,l),
(98,3,o),
(165,-10,o),
(246,-10,cs)
);
}
);
width = 578;
},
{
associatedMasterId = m005;
attr = {
coordinates = (
151,
70
);
};
background = {
shapes = (
{
closed = 1;
nodes = (
(425.13,-10,o),
(517.57,78.78,o),
(517.57,234.49,cs),
(517.57,376.98,o),
(420.62,456.3,o),
(298.94,456.3,cs),
(255.72,456.3,o),
(230.14,451.3,o),
(208.53,446.91,c),
(221.43,584.81,l),
(468.62,584.81,l),
(468.62,714,l),
(92.58,714,l),
(66.19,353.6,l),
(125.44,321.33,l),
(151.83,328.16,o),
(193.07,336.77,o),
(228.07,336.77,cs),
(318.16,336.77,o),
(364.35,297.14,o),
(364.35,226.93,cs),
(364.35,149.38,o),
(316.77,111.75,o),
(233.9,111.75,cs),
(177.07,111.75,o),
(100.29,131.8,o),
(53.02,157.53,c),
(53.02,29,l),
(101.51,2.61,o),
(167.34,-10,o),
(242.88,-10,cs)
);
}
);
};
layerId = "00B17B4F-4584-4B9D-9657-BEC1D6B7671A";
name = "Bold Semi (intermediate)";
shapes = (
{
closed = 1;
nodes = (
(340,-10,o),
(409,83,o),
(409,238,cs),
(409,379,o),
(337,455,o),
(253,455,cs),
(217,455,o),
(210,450,o),
(194,445,c),
(199,590,l),
(375,590,l),
(375,714,l),
(63,714,l),
(44,352,l),
(100,321,l),
(122,329,o),
(142,336,o),
(168,336,cs),
(220,336,o),
(246,297,o),
(246,225,cs),
(246,145,o),
(220,109,o),
(175,109,cs),
(131,109,o),
(75,129,o),
(36,155,c),
(36,29,l),
(79,1,o),
(128,-10,o),
(191,-10,cs)
);
}
);
width = 445;
},
{
layerId = m005;
shapes = (
{
closed = 1;
nodes = (
(300,-10,o),
(368,85,o),
(368,230,cs),
(368,354,o),
(303,438,o),
(195,438,cs),
(171,438,o),
(150,436,o),
(123,429,c),
(140,637,l),
(330,637,l),
(330,714,l),
(72,714,l),
(45,383,l),
(78,351,l),
(110,361,o),
(135,367,o),
(172,367,cs),
(240,367,o),
(284,325,o),
(284,225,cs),
(284,129,o),
(251,62,o),
(161,62,cs),
(118,62,o),
(77,77,o),
(39,102,c),
(39,20,l),
(72,0,o),
(112,-10,o),
(167,-10,cs)
);
}
);
width = 411;
},
{
layerId = m006;
shapes = (
{
closed = 1;
nodes = (
(303,-10,o),
(390,93,o),
(390,246,cs),
(390,377,o),
(319,461,o),
(218,461,cs),
(212,461,o),
(206,463,o),
(192,460,c),
(201,554,l),
(357,554,l),
(357,714,l),
(47,714,l),
(20,350,l),
(84,303,l),
(91,306,o),
(124,314,o),
(142,314,cs),
(192,314,o),
(206,286,o),
(206,233,cs),
(206,182,o),
(198,140,o),
(134,140,cs),
(107,140,o),
(49,157,o),
(17,177,c),
(17,14,l),
(50,-5,o),
(89,-10,o),
(148,-10,cs)
);
}
);
width = 411;
},
{
layerId = "ADAF9463-560A-4353-9B5A-2FAD12EBF6B5";
shapes = (
{
closed = 1;
nodes = (
(298,-10,o),
(354,80,o),
(354,220,cs),
(354,339,o),
(293,423,o),
(180,423,cs),
(145,423,o),
(114,419,o),
(79,409,c),
(101,690,l),
(313,690,l),
(313,714,l),
(88,714,l),
(61,404,l),
(74,382,l),
(122,396,o),
(142,401,o),
(191,401,cs),
(271,401,o),
(334,350,o),
(334,220,cs),
(334,95,o),
(285,12,o),
(178,12,cs),
(125,12,o),
(95,26,o),
(53,54,c),
(53,24,l),
(86,3,o),
(127,-10,o),
(179,-10,cs)
);
}
);
width = 411;
},
{
layerId = "D7742CE6-1B18-47A0-AEB5-463D77EA217C";
shapes = (
{
closed = 1;
nodes = (
(300,-10,o),
(367,85,o),
(367,229,cs),
(367,353,o),
(302,437,o),
(194,437,cs),
(169,437,o),
(147,435,o),
(119,427,c),
(137,642,l),
(329,642,l),
(329,714,l),
(73,714,l),
(46,385,l),
(78,354,l),
(111,364,o),
(136,370,o),
(174,370,cs),
(243,370,o),
(288,327,o),
(288,225,cs),
(288,126,o),
(254,58,o),
(162,58,cs),
(119,58,o),
(79,73,o),
(40,98,c),
(40,20,l),
(73,0,o),
(113,-10,o),
(168,-10,cs)
);
}
);
width = 411;
},
{
layerId = "F138D99C-4E28-42C5-9F3E-22494052B08F";
shapes = (
{
closed = 1;
nodes = (
(303,-10,o),
(389,92,o),
(389,245,cs),
(389,375,o),
(318,459,o),
(216,459,cs),
(209,459,o),
(202,461,o),
(187,458,c),
(197,560,l),
(355,560,l),
(355,714,l),
(49,714,l),
(22,352,l),
(84,306,l),
(92,310,o),
(125,318,o),
(144,318,cs),
(195,318,o),
(211,289,o),
(211,232,cs),
(211,178,o),
(202,135,o),
(136,135,cs),
(108,135,o),
(51,152,o),
(19,172,c),
(19,14,l),
(52,-5,o),
(91,-10,o),
(149,-10,cs)
);
}
);
width = 411;
}
);
unicode = 53;
}
{
color = 0;
glyphname = six.beng;
layers = (
{
associatedMasterId = UUID0;
attr = {
coordinates = (
151,
100
);
};
background = {
shapes = (
{
closed = 1;
nodes = (
(440.52,-10,o),
(530.62,83.22,o),
(530.62,238.54,cs),
(530.62,382.64,o),
(454.89,464.69,o),
(331.89,464.69,cs),
(256.72,464.69,o),
(213.99,429.3,o),
(188.6,381.69,c),
(182.6,381.69,l),
(188.6,512.29,o),
(233.04,604.64,o),
(387.69,604.64,cs),
(426.67,604.64,o),
(457.28,600.64,o),
(482.72,594.47,c),
(482.72,715.61,l),
(458.06,720.39,o),
(415.18,724,o),
(387.74,724,cs),
(97.85,724,o),
(42.19,508.78,o),
(42.19,303.17,cs),
(42.19,90.39,o),
(150.9,-10,o),
(294.71,-10,cs)
);
},
{
closed = 1;
nodes = (
(224.94,111.97,o),
(192.8,183.18,o),
(192.8,248.83,cs),
(192.8,297.19,o),
(231.28,347.11,o),
(294.27,347.11,cs),
(355.87,347.11,o),
(384.23,305.14,o),
(384.23,236.1,cs),
(384.23,150.55,o),
(346.7,111.97,o),
(291.88,111.97,cs)
);
}
);
};
layerId = "2c1b2cdb-24d6-4676-b35f-71bd402199a2";
name = "Bold Semi (intermediate)";
shapes = (
{
closed = 1;
nodes = (
(431,-10,o),
(521,83,o),
(521,238,cs),
(521,382,o),
(446,464,o),
(322,464,cs),
(245,464,o),
(198,428,o),
(172,381,c),
(166,381,l),
(172,513,o),
(214,604,o),
(390,604,cs),
(418,604,o),
(446,600,o),
(471,594,c),
(471,715,l),
(446,720,o),
(406,722,o),
(379,722,cs),
(96,722,o),
(37,508,o),
(37,303,cs),
(37,89,o),
(147,-10,o),
(288,-10,cs)
);
},
{
closed = 1;
nodes = (
(220,111,o),
(187,183,o),
(187,249,cs),
(187,297,o),
(227,348,o),
(287,348,cs),
(346,348,o),
(375,306,o),
(375,236,cs),
(375,150,o),
(338,111,o),
(285,111,cs)
);
}
);
width = 551;
},
{
background = {
shapes = (
{
closed = 1;
nodes = (
(421,-10,o),
(505,82,o),
(505,230,cs),
(505,368,o),
(425,447,o),
(302,447,cs),
(225,447,o),
(178,411,o),
(152,364,c),
(146,364,l),
(152,519,o),
(194,651,o),
(370,651,cs),
(398,651,o),
(428,647,o),
(451,639,c),
(451,715,l),
(430,721,o),
(392,724,o),
(367,724,cs),
(107,724,o),
(55,510,o),
(55,305,cs),
(55,91,o),
(157,-10,o),
(288,-10,cs)
);
},
{
closed = 1;
nodes = (
(192,65,o),
(144,160,o),
(144,247,cs),
(144,310,o),
(202,377,o),
(290,377,cs),
(376,377,o),
(419,321,o),
(419,230,cs),
(419,117,o),
(365,65,o),
(287,65,cs)
);
}
);
};
layerId = UUID0;
shapes = (
{
closed = 1;
nodes = (
(421,-10,o),
(505,82,o),
(505,230,cs),
(505,368,o),
(425,447,o),
(302,447,cs),
(225,447,o),
(178,411,o),
(152,364,c),
(146,364,l),
(152,519,o),
(194,651,o),
(370,651,cs),
(398,651,o),
(428,647,o),
(451,639,c),
(451,715,l),
(430,721,o),
(392,724,o),
(367,724,cs),
(107,724,o),
(55,510,o),
(55,305,cs),
(55,91,o),
(157,-10,o),
(288,-10,cs)
);
},
{
closed = 1;
nodes = (
(192,65,o),
(144,160,o),
(144,247,cs),
(144,310,o),
(202,377,o),
(290,377,cs),
(376,377,o),
(419,321,o),
(419,230,cs),
(419,117,o),
(365,65,o),
(287,65,cs)
);
}
);
width = 551;
},
{
layerId = "28FB090A-653E-4199-B7BE-FAE23D31B682";
shapes = (
{
closed = 1;
nodes = (
(414,-10,o),
(492,78,o),
(492,221,cs),
(492,340,o),
(421,427,o),
(297,427,cs),
(205,427,o),
(140,379,o),
(105,319,c),
(103,319,l),
(108,529,o),
(169,698,o),
(367,698,cs),
(395,698,o),
(426,696,o),
(448,688,c),
(448,716,l),
(429,721,o),
(395,724,o),
(372,724,cs),
(134,724,o),
(77,512,o),
(77,300,cs),
(77,88,o),
(162,-10,o),
(291,-10,cs)
);
},
{
closed = 1;
nodes = (
(166,16,o),
(106,127,o),
(106,257,cs),
(106,313,o),
(172,401,o),
(295,401,cs),
(405,401,o),
(465,325,o),
(465,221,cs),
(465,86,o),
(397,16,o),
(292,16,cs)
);
}
);
width = 551;
},
{
layerId = "F455777D-7EDD-47E2-866A-D8A5173CE243";
shapes = (
{
closed = 1;
nodes = (
(453,-10,o),
(547,84,o),
(547,244,cs),
(547,392,o),
(474,476,o),
(351,476,cs),
(277,476,o),
(237,441,o),
(212,393,c),
(206,393,l),
(212,508,o),
(258,575,o),
(399,575,cs),
(445,575,o),
(476,571,o),
(503,566,c),
(503,716,l),
(476,720,o),
(430,724,o),
(401,724,cs),
(92,724,o),
(34,508,o),
(34,302,cs),
(34,90,o),
(147,-10,o),
(299,-10,cs)
);
},
{
closed = 1;
nodes = (
(246,142,o),
(224,198,o),
(224,250,cs),
(224,289,o),
(250,328,o),
(297,328,cs),
(343,328,o),
(362,295,o),
(362,240,cs),
(362,172,o),
(335,142,o),
(295,142,cs)
);
}
);
width = 578;
},
{
associatedMasterId = m005;
attr = {
coordinates = (
151,
70
);
};
background = {
shapes = (
{
closed = 1;
nodes = (
(440.52,-10,o),
(530.62,83.22,o),
(530.62,238.54,cs),
(530.62,382.64,o),
(454.89,464.69,o),
(331.89,464.69,cs),
(256.72,464.69,o),
(213.99,429.3,o),
(188.6,381.69,c),
(182.6,381.69,l),
(188.6,512.29,o),
(233.04,604.64,o),
(387.69,604.64,cs),
(426.67,604.64,o),
(457.28,600.64,o),
(482.72,594.47,c),
(482.72,715.61,l),
(458.06,720.39,o),
(415.18,724,o),
(387.74,724,cs),
(97.85,724,o),
(42.19,508.78,o),
(42.19,303.17,cs),
(42.19,90.39,o),
(150.9,-10,o),
(294.71,-10,cs)
);
},
{
closed = 1;
nodes = (
(224.94,111.97,o),
(192.8,183.18,o),
(192.8,248.83,cs),
(192.8,297.19,o),
(231.28,347.11,o),
(294.27,347.11,cs),
(355.87,347.11,o),
(384.23,305.14,o),
(384.23,236.1,cs),
(384.23,150.55,o),
(346.7,111.97,o),
(291.88,111.97,cs)
);
}
);
};
layerId = "63F52B5C-2CF8-4DF1-BD3D-BBB1DE9CE4D8";
name = "Bold Semi (intermediate)";
shapes = (
{
closed = 1;
nodes = (
(350,-10,o),
(422,84,o),
(422,237,cs),
(422,381,o),
(368,463,o),
(277,463,cs),
(223,463,o),
(196,428,o),
(177,380,c),
(173,380,l),
(177,499,o),
(207,608,o),
(303,608,cs),
(347,608,o),
(371,604,o),
(392,598,c),
(392,715,l),
(371,720,o),
(333,722,o),
(311,722,cs),
(67,722,o),
(24,508,o),
(24,303,cs),
(24,90,o),
(110,-10,o),
(229,-10,cs)
);
},
{
closed = 1;
nodes = (
(196,107,o),
(185,183,o),
(185,249,cs),
(185,298,o),
(198,350,o),
(227,350,cs),
(255,350,o),
(265,308,o),
(265,235,cs),
(265,149,o),
(250,107,o),
(226,107,cs)
);
}
);
width = 446;
},
{
layerId = m005;
shapes = (
{
closed = 1;
nodes = (
(325,-10,o),
(378,88,o),
(378,226,cs),
(378,352,o),
(332,446,o),
(235,446,cs),
(182,446,o),
(152,419,o),
(129,370,c),
(125,370,l),
(136,566,o),
(183,653,o),
(278,653,cs),
(303,653,o),
(327,649,o),
(347,642,c),
(347,714,l),
(327,720,o),
(302,724,o),
(275,724,cs),
(113,724,o),
(46,568,o),
(46,303,cs),
(46,100,o),
(107,-10,o),
(217,-10,cs)
);
},
{
closed = 1;
nodes = (
(151,62,o),
(130,155,o),
(130,248,cs),
(130,319,o),
(158,379,o),
(216,379,cs),
(270,379,o),
(296,328,o),
(296,224,cs),
(296,113,o),
(267,62,o),
(216,62,cs)
);
}
);
width = 411;
},
{
layerId = m006;
shapes = (
{
closed = 1;
nodes = (
(338,-10,o),
(401,93,o),
(401,240,cs),
(401,388,o),
(349,476,o),
(254,476,cs),
(213,476,o),
(200,460,o),
(185,423,c),
(178,423,l),
(191,554,o),
(219,578,o),
(294,578,cs),
(319,578,o),
(341,572,o),
(363,567,c),
(363,712,l),
(338,720,o),
(308,722,o),
(278,722,cs),
(80,722,o),
(13,565,o),
(13,306,cs),
(13,102,o),
(96,-10,o),
(214,-10,cs)
);
},
{
closed = 1;
nodes = (
(193,139,o),
(194,200,o),
(194,240,cs),
(194,308,o),
(202,337,o),
(210,337,cs),
(223,337,o),
(224,314,o),
(224,237,cs),
(224,163,o),
(219,139,o),
(210,139,cs)
);
}
);
width = 411;
},
{
layerId = "ADAF9463-560A-4353-9B5A-2FAD12EBF6B5";
shapes = (
{
closed = 1;
nodes = (
(317,-10,o),
(363,85,o),
(363,217,cs),
(363,329,o),
(321,427,o),
(223,427,cs),
(162,427,o),
(121,393,o),
(93,336,c),
(91,336,l),
(101,574,o),
(160,701,o),
(268,701,cs),
(293,701,o),
(318,698,o),
(337,690,c),
(337,715,l),
(320,720,o),
(298,725,o),
(273,725,cs),
(134,725,o),
(67,570,o),
(67,301,cs),
(67,99,o),
(114,-10,o),
(219,-10,cs)
);
},
{
closed = 1;
nodes = (
(124,13,o),
(89,126,o),
(89,253,cs),
(89,326,o),
(130,406,o),
(220,406,cs),
(300,406,o),
(342,337,o),
(342,216,cs),
(342,81,o),
(298,13,o),
(220,13,cs)
);
}
);
width = 411;
},
{
layerId = "D7742CE6-1B18-47A0-AEB5-463D77EA217C";
shapes = (
{
closed = 1;
nodes = (
(324,-10,o),
(377,88,o),
(377,225,cs),
(377,350,o),
(331,444,o),
(234,444,cs),
(180,444,o),
(149,417,o),
(126,367,c),
(122,367,l),
(133,567,o),
(181,657,o),
(277,657,cs),
(302,657,o),
(326,653,o),
(346,646,c),
(346,714,l),
(326,720,o),
(302,724,o),
(275,724,cs),
(115,724,o),
(48,568,o),
(48,303,cs),
(48,100,o),
(108,-10,o),
(217,-10,cs)
);
},
{
closed = 1;
nodes = (
(149,58,o),
(126,153,o),
(126,248,cs),
(126,320,o),
(156,381,o),
(216,381,cs),
(273,381,o),
(300,329,o),
(300,223,cs),
(300,110,o),
(270,58,o),
(216,58,cs)
);
}
);
width = 411;
},
{
layerId = "F138D99C-4E28-42C5-9F3E-22494052B08F";
shapes = (
{
closed = 1;
nodes = (
(337,-10,o),
(399,93,o),
(399,239,cs),
(399,386,o),
(348,474,o),
(253,474,cs),
(211,474,o),
(197,457,o),
(181,419,c),
(174,419,l),
(187,555,o),
(217,583,o),
(293,583,cs),
(318,583,o),
(340,577,o),
(362,572,c),
(362,712,l),
(337,720,o),
(308,722,o),
(278,722,cs),
(82,722,o),
(15,565,o),
(15,306,cs),
(15,102,o),
(97,-10,o),
(214,-10,cs)
);
},
{
closed = 1;
nodes = (
(190,134,o),
(190,197,o),
(190,241,cs),
(190,309,o),
(199,340,o),
(210,340,cs),
(226,340,o),
(229,315,o),
(229,236,cs),
(229,160,o),
(222,134,o),
(210,134,cs)
);
}
);
width = 411;
}
);
unicode = 54;
}
{
glyphname = seven.beng;
layers = (
{
associatedMasterId = UUID0;
attr = {
coordinates = (
151,
100
);
};
background = {
shapes = (
{
closed = 1;
nodes = (
(115.04,0,l),
(272.87,0,l),
(528.62,616.16,l),
(528.62,713.39,l),
(40.34,713.39,l),
(40.34,584.81,l),
(369.3,584.81,l)
);
}
);
};
layerId = "6c847d35-682e-42b5-be5f-89b30ca38d9a";
name = "Bold Semi (intermediate)";
shapes = (
{
closed = 1;
nodes = (
(101,0,l),
(259,0,l),
(519,618,l),
(519,713,l),
(27,713,l),
(27,586,l),
(355,586,l)
);
}
);
width = 551;
},
{
background = {
shapes = (
{
closed = 1;
nodes = (
(137,0,l),
(232,0,l),
(503,643,l),
(503,714,l),
(44,714,l),
(44,633,l),
(412,633,l)
);
}
);
};
layerId = UUID0;
shapes = (
{
closed = 1;
nodes = (
(137,0,l),
(232,0,l),
(503,643,l),
(503,714,l),
(44,714,l),
(44,633,l),
(412,633,l)
);
}
);
width = 551;
},
{
layerId = "28FB090A-653E-4199-B7BE-FAE23D31B682";
shapes = (
{
closed = 1;
nodes = (
(168,0,l),
(198,0,l),
(491,692,l),
(491,714,l),
(56,714,l),
(56,688,l),
(461,688,l)
);
}
);
width = 551;
},
{
layerId = "F455777D-7EDD-47E2-866A-D8A5173CE243";
shapes = (
{
closed = 1;
nodes = (
(101,0,l),
(299,0,l),
(545,599,l),
(545,713,l),
(38,713,l),
(38,554,l),
(342,554,l)
);
}
);
width = 578;
},
{
background = {
shapes = (
{
closed = 1;
nodes = (
(126,0,l),
(149,0,l),
(368,696,l),
(368,714,l),
(42,714,l),
(42,692,l),
(346,692,l)
);
}
);
};
layerId = m004;
shapes = (
{
closed = 1;
nodes = (
(126,0,l),
(149,0,l),
(368,696,l),
(368,714,l),
(42,714,l),
(42,692,l),
(346,692,l)
);
}
);
width = 413;
},
{
associatedMasterId = m005;
attr = {
coordinates = (
151,
70
);
};
background = {
shapes = (
{
closed = 1;
nodes = (
(115.04,0,l),
(272.87,0,l),
(528.62,616.16,l),
(528.62,713.39,l),
(40.34,713.39,l),
(40.34,584.81,l),
(369.3,584.81,l)
);
}
);
};
layerId = "4ED2291F-D2A2-4231-A1B5-4FC23B347CEE";
name = "Bold Semi (intermediate)";
shapes = (
{
closed = 1;
nodes = (
(76,0,l),
(243,0,l),
(421,620,l),
(421,713,l),
(34,713,l),
(34,590,l),
(251,590,l)
);
}
);
width = 446;
},
{
background = {
shapes = (
{
closed = 1;
nodes = (
(137,0,l),
(232,0,l),
(503,643,l),
(503,714,l),
(44,714,l),
(44,633,l),
(412,633,l)
);
}
);
};
layerId = m005;
shapes = (
{
closed = 1;
nodes = (
(137,0,l),
(232,0,l),
(503,643,l),
(503,714,l),
(44,714,l),
(44,633,l),
(412,633,l)
);
}
);
width = 551;
},
{
background = {
shapes = (
{
closed = 1;
nodes = (
(78,0,l),
(276,0,l),
(450,606,l),
(450,713,l),
(42,713,l),
(42,566,l),
(249,566,l)
);
}
);
};
layerId = m006;
shapes = (
{
closed = 1;
nodes = (
(78,0,l),
(276,0,l),
(450,606,l),
(450,713,l),
(42,713,l),
(42,566,l),
(249,566,l)
);
}
);
width = 477;
}
);
unicode = 55;
}
{
glyphname = eight.beng;
layers = (
{
associatedMasterId = UUID0;
attr = {
coordinates = (
151,
100
);
};
background = {
shapes = (
{
closed = 1;
nodes = (
(443.16,-10,o),
(528.06,70.88,o),
(528.06,188.44,cs),
(528.06,281.61,o),
(454.89,336.39,o),
(383.16,376.78,c),
(455.55,413.17,o),
(506.89,465.39,o),
(506.89,551.17,cs),
(506.89,666.78,o),
(413.06,724.39,o),
(285.15,724.39,cs),
(159.02,724.39,o),
(62.19,666.39,o),
(62.19,552.17,cs),
(62.19,468.61,o),
(110.75,414.39,o),
(172.31,373.39,c),
(96.92,335.17,o),
(40.41,282.66,o),
(40.41,185.66,cs),
(40.41,67.27,o),
(120.19,-10,o),
(283.93,-10,cs)
);
},
{
closed = 1;
nodes = (
(214.77,103.04,o),
(181.09,138.23,o),
(181.09,190.15,cs),
(181.09,243.85,o),
(218.82,280.26,o),
(277.64,310.11,c),
(341.48,276.53,o),
(387.38,240.41,o),
(387.38,189.27,cs),
(387.38,136.4,o),
(352.58,103.04,o),
(281.93,103.04,cs)
);
},
{
closed = 1;
nodes = (
(238.06,464.91,o),
(204.7,492.86,o),
(204.7,539.63,cs),
(204.7,584.89,o),
(237.72,611.35,o),
(284.15,611.35,cs),
(330.53,611.35,o),
(363.16,585.5,o),
(363.16,539.63,cs),
(363.16,489.37,o),
(325.36,463.13,o),
(283.71,441.45,c)
);
}
);
};
layerId = "eb6e683d-999a-4837-9464-8fbaf9dd6219";
name = "Bold Semi (intermediate)";
shapes = (
{
closed = 1;
nodes = (
(418,-10,o),
(516,66,o),
(516,185,cs),
(516,280,o),
(442,336,o),
(366,377,c),
(439,414,o),
(494,464,o),
(494,551,cs),
(494,666,o),
(394,723,o),
(276,723,cs),
(160,723,o),
(57,665,o),
(57,552,cs),
(57,467,o),
(108,414,o),
(172,373,c),
(96,336,o),
(35,278,o),
(35,181,cs),
(35,62,o),
(121,-10,o),
(276,-10,cs)
);
},
{
closed = 1;
nodes = (
(209,101,o),
(175,138,o),
(175,190,cs),
(175,245,o),
(213,282,o),
(270,311,c),
(327,275,o),
(376,243,o),
(376,189,cs),
(376,136,o),
(342,101,o),
(274,101,cs)
);
},
{
closed = 1;
nodes = (
(234,463,o),
(199,485,o),
(199,540,cs),
(199,586,o),
(232,613,o),
(275,613,cs),
(319,613,o),
(352,586,o),
(352,540,cs),
(352,488,o),
(316,460,o),
(276,440,c)
);
}
);
width = 551;
},
{
background = {
shapes = (
{
closed = 1;
nodes = (
(409,-10,o),
(500,66,o),
(500,186,cs),
(500,281,o),
(425,337,o),
(349,378,c),
(422,415,o),
(477,466,o),
(477,553,cs),
(477,668,o),
(385,725,o),
(276,725,cs),
(170,725,o),
(75,667,o),
(75,554,cs),
(75,468,o),
(126,415,o),
(190,374,c),
(114,337,o),
(52,279,o),
(52,182,cs),
(52,63,o),
(133,-10,o),
(276,-10,cs)
);
},
{
closed = 1;
nodes = (
(180,64,o),
(139,112,o),
(139,181,cs),
(139,253,o),
(181,301,o),
(263,340,c),
(361,293,o),
(413,252,o),
(413,185,cs),
(413,112,o),
(366,64,o),
(274,64,cs)
);
},
{
closed = 1;
nodes = (
(210,446,o),
(162,477,o),
(162,550,cs),
(162,616,o),
(206,651,o),
(275,651,cs),
(347,651,o),
(390,616,o),
(390,550,cs),
(390,479,o),
(340,443,o),
(277,414,c)
);
}
);
};
layerId = UUID0;
shapes = (
{
closed = 1;
nodes = (
(409,-10,o),
(500,66,o),
(500,186,cs),
(500,281,o),
(425,337,o),
(349,378,c),
(422,415,o),
(477,466,o),
(477,553,cs),
(477,668,o),
(385,725,o),
(276,725,cs),
(170,725,o),
(75,667,o),
(75,554,cs),
(75,468,o),
(126,415,o),
(190,374,c),
(114,337,o),
(52,279,o),
(52,182,cs),
(52,63,o),
(133,-10,o),
(276,-10,cs)
);
},
{
closed = 1;
nodes = (
(180,64,o),
(139,112,o),
(139,181,cs),
(139,253,o),
(181,301,o),
(263,340,c),
(361,293,o),
(413,252,o),
(413,185,cs),
(413,112,o),
(366,64,o),
(274,64,cs)
);
},
{
closed = 1;
nodes = (
(210,446,o),
(162,477,o),
(162,550,cs),
(162,616,o),
(206,651,o),
(275,651,cs),
(347,651,o),
(390,616,o),
(390,550,cs),
(390,479,o),
(340,443,o),
(277,414,c)
);
}
);
width = 551;
},
{
layerId = "28FB090A-653E-4199-B7BE-FAE23D31B682";
shapes = (
{
closed = 1;
nodes = (
(401,-10,o),
(486,56,o),
(486,165,cs),
(486,268,o),
(398,332,o),
(303,377,c),
(392,418,o),
(466,461,o),
(466,559,cs),
(466,668,o),
(385,724,o),
(279,724,cs),
(179,724,o),
(92,664,o),
(92,560,cs),
(92,471,o),
(157,423,o),
(245,377,c),
(140,334,o),
(66,270,o),
(66,169,cs),
(66,63,o),
(139,-10,o),
(272,-10,cs)
);
},
{
closed = 1;
nodes = (
(157,16,o),
(93,76,o),
(93,170,cs),
(93,257,o),
(153,316,o),
(270,365,c),
(397,311,o),
(459,244,o),
(459,162,cs),
(459,74,o),
(392,16,o),
(273,16,cs)
);
},
{
closed = 1;
nodes = (
(169,442,o),
(119,480,o),
(119,560,cs),
(119,650,o),
(196,698,o),
(278,698,cs),
(368,698,o),
(439,653,o),
(439,557,cs),
(439,467,o),
(366,431,o),
(273,389,c)
);
}
);
width = 551;
},
{
layerId = "F455777D-7EDD-47E2-866A-D8A5173CE243";
shapes = (
{
closed = 1;
nodes = (
(465,-10,o),
(546,74,o),
(546,190,cs),
(546,282,o),
(474,336,o),
(405,376,c),
(477,412,o),
(526,465,o),
(526,550,cs),
(526,666,o),
(431,724,o),
(291,724,cs),
(152,724,o),
(54,666,o),
(54,551,cs),
(54,469,o),
(101,414,o),
(161,373,c),
(86,334,o),
(33,285,o),
(33,188,cs),
(33,70,o),
(112,-10,o),
(289,-10,cs)
);
},
{
closed = 1;
nodes = (
(237,128,o),
(208,155,o),
(208,196,cs),
(208,238,o),
(243,267,o),
(287,291,c),
(329,266,o),
(371,233,o),
(371,192,cs),
(371,152,o),
(344,128,o),
(287,128,cs)
);
},
{
closed = 1;
nodes = (
(256,477,o),
(232,503,o),
(232,533,cs),
(232,565,o),
(258,586,o),
(290,586,cs),
(320,586,o),
(346,566,o),
(346,533,cs),
(346,496,o),
(316,476,o),
(288,459,c)
);
}
);
width = 578;
},
{
background = {
shapes = (
{
closed = 1;
nodes = (
(301,-10,o),
(365,55,o),
(365,164,cs),
(365,265,o),
(302,330,o),
(228,377,c),
(297,420,o),
(350,462,o),
(350,559,cs),
(350,668,o),
(289,724,o),
(210,724,cs),
(135,724,o),
(70,664,o),
(70,560,cs),
(70,470,o),
(120,422,o),
(184,377,c),
(106,334,o),
(50,270,o),
(50,168,cs),
(50,63,o),
(105,-10,o),
(205,-10,cs)
);
},
{
closed = 1;
nodes = (
(118,13,o),
(70,74,o),
(70,169,cs),
(70,260,o),
(118,319,o),
(203,367,c),
(299,312,o),
(345,243,o),
(345,160,cs),
(345,72,o),
(295,13,o),
(205,13,cs)
);
},
{
closed = 1;
nodes = (
(128,441,o),
(90,480,o),
(90,561,cs),
(90,652,o),
(148,701,o),
(209,701,cs),
(277,701,o),
(330,655,o),
(330,557,cs),
(330,466,o),
(275,430,o),
(205,387,c)
);
}
);
};
layerId = m004;
shapes = (
{
closed = 1;
nodes = (
(301,-10,o),
(365,55,o),
(365,164,cs),
(365,265,o),
(302,330,o),
(228,377,c),
(297,420,o),
(350,462,o),
(350,559,cs),
(350,668,o),
(289,724,o),
(210,724,cs),
(135,724,o),
(70,664,o),
(70,560,cs),
(70,470,o),
(120,422,o),
(184,377,c),
(106,334,o),
(50,270,o),
(50,168,cs),
(50,63,o),
(105,-10,o),
(205,-10,cs)
);
},
{
closed = 1;
nodes = (
(118,13,o),
(70,74,o),
(70,169,cs),
(70,260,o),
(118,319,o),
(203,367,c),
(299,312,o),
(345,243,o),
(345,160,cs),
(345,72,o),
(295,13,o),
(205,13,cs)
);
},
{
closed = 1;
nodes = (
(128,441,o),
(90,480,o),
(90,561,cs),
(90,652,o),
(148,701,o),
(209,701,cs),
(277,701,o),
(330,655,o),
(330,557,cs),
(330,466,o),
(275,430,o),
(205,387,c)
);
}
);
width = 414;
},
{
associatedMasterId = m005;
attr = {
coordinates = (
151,
70
);
};
background = {
shapes = (
{
closed = 1;
nodes = (
(443.16,-10,o),
(528.06,70.88,o),
(528.06,188.44,cs),
(528.06,281.61,o),
(454.89,336.39,o),
(383.16,376.78,c),
(455.55,413.17,o),
(506.89,465.39,o),
(506.89,551.17,cs),
(506.89,666.78,o),
(413.06,724.39,o),
(285.15,724.39,cs),
(159.02,724.39,o),
(62.19,666.39,o),
(62.19,552.17,cs),
(62.19,468.61,o),
(110.75,414.39,o),
(172.31,373.39,c),
(96.92,335.17,o),
(40.41,282.66,o),
(40.41,185.66,cs),
(40.41,67.27,o),
(120.19,-10,o),
(283.93,-10,cs)
);
},
{
closed = 1;
nodes = (
(214.77,103.04,o),
(181.09,138.23,o),
(181.09,190.15,cs),
(181.09,243.85,o),
(218.82,280.26,o),
(277.64,310.11,c),
(341.48,276.53,o),
(387.38,240.41,o),
(387.38,189.27,cs),
(387.38,136.4,o),
(352.58,103.04,o),
(281.93,103.04,cs)
);
},
{
closed = 1;
nodes = (
(238.06,464.91,o),
(204.7,492.86,o),
(204.7,539.63,cs),
(204.7,584.89,o),
(237.72,611.35,o),
(284.15,611.35,cs),
(330.53,611.35,o),
(363.16,585.5,o),
(363.16,539.63,cs),
(363.16,489.37,o),
(325.36,463.13,o),
(283.71,441.45,c)
);
}
);
};
layerId = "A3FE10EF-82DC-4433-885A-2144B7ADFEB6";
name = "Bold Semi (intermediate)";
shapes = (
{
closed = 1;
nodes = (
(371,-10,o),
(424,66,o),
(424,185,cs),
(424,278,o),
(374,333,o),
(322,377,c),
(375,414,o),
(409,464,o),
(409,551,cs),
(409,666,o),
(340,723,o),
(225,723,cs),
(110,723,o),
(39,665,o),
(39,552,cs),
(39,465,o),
(74,413,o),
(116,373,c),
(60,336,o),
(24,278,o),
(24,181,cs),
(24,62,o),
(80,-10,o),
(223,-10,cs)
);
},
{
closed = 1;
nodes = (
(191,98,o),
(171,135,o),
(171,189,cs),
(171,244,o),
(194,281,o),
(223,313,c),
(247,277,o),
(276,244,o),
(276,189,cs),
(276,134,o),
(259,98,o),
(221,98,cs)
);
},
{
closed = 1;
nodes = (
(202,462,o),
(189,485,o),
(189,541,cs),
(189,587,o),
(205,616,o),
(225,616,cs),
(241,616,o),
(257,587,o),
(257,541,cs),
(257,487,o),
(237,458,o),
(222,438,c)
);
}
);
width = 447;
},
{
background = {
shapes = (
{
closed = 1;
nodes = (
(409,-10,o),
(500,66,o),
(500,186,cs),
(500,281,o),
(425,337,o),
(349,378,c),
(422,415,o),
(477,466,o),
(477,553,cs),
(477,668,o),
(385,725,o),
(276,725,cs),
(170,725,o),
(75,667,o),
(75,554,cs),
(75,468,o),
(126,415,o),
(190,374,c),
(114,337,o),
(52,279,o),
(52,182,cs),
(52,63,o),
(133,-10,o),
(276,-10,cs)
);
},
{
closed = 1;
nodes = (
(180,64,o),
(139,112,o),
(139,181,cs),
(139,253,o),
(181,301,o),
(263,340,c),
(361,293,o),
(413,252,o),
(413,185,cs),
(413,112,o),
(366,64,o),
(274,64,cs)
);
},
{
closed = 1;
nodes = (
(210,446,o),
(162,477,o),
(162,550,cs),
(162,616,o),
(206,651,o),
(275,651,cs),
(347,651,o),
(390,616,o),
(390,550,cs),
(390,479,o),
(340,443,o),
(277,414,c)
);
}
);
};
layerId = m005;
shapes = (
{
closed = 1;
nodes = (
(409,-10,o),
(500,66,o),
(500,186,cs),
(500,281,o),
(425,337,o),
(349,378,c),
(422,415,o),
(477,466,o),
(477,553,cs),
(477,668,o),
(385,725,o),
(276,725,cs),
(170,725,o),
(75,667,o),
(75,554,cs),
(75,468,o),
(126,415,o),
(190,374,c),
(114,337,o),
(52,279,o),
(52,182,cs),
(52,63,o),
(133,-10,o),
(276,-10,cs)
);
},
{
closed = 1;
nodes = (
(180,64,o),
(139,112,o),
(139,181,cs),
(139,253,o),
(181,301,o),
(263,340,c),
(361,293,o),
(413,252,o),
(413,185,cs),
(413,112,o),
(366,64,o),
(274,64,cs)
);
},
{
closed = 1;
nodes = (
(210,446,o),
(162,477,o),
(162,550,cs),
(162,616,o),
(206,651,o),
(275,651,cs),
(347,651,o),
(390,616,o),
(390,550,cs),
(390,479,o),
(340,443,o),
(277,414,c)
);
}
);
width = 551;
},
{
background = {
shapes = (
{
closed = 1;
nodes = (
(412,-10,o),
(455,71,o),
(455,188,cs),
(455,280,o),
(403,334,o),
(356,376,c),
(409,411,o),
(442,462,o),
(442,550,cs),
(442,666,o),
(374,724,o),
(241,724,cs),
(108,724,o),
(38,666,o),
(38,551,cs),
(38,473,o),
(66,417,o),
(111,373,c),
(55,335,o),
(23,283,o),
(23,185,cs),
(23,67,o),
(76,-10,o),
(237,-10,cs)
);
},
{
closed = 1;
nodes = (
(215,118,o),
(198,148,o),
(198,194,cs),
(198,240,o),
(220,270,o),
(240,298,c),
(255,270,o),
(280,236,o),
(280,191,cs),
(280,146,o),
(267,118,o),
(236,118,cs)
);
},
{
closed = 1;
nodes = (
(221,473,o),
(216,499,o),
(216,536,cs),
(216,572,o),
(228,596,o),
(240,596,cs),
(247,596,o),
(259,574,o),
(259,536,cs),
(259,493,o),
(243,471,o),
(235,452,c)
);
}
);
};
layerId = m006;
shapes = (
{
closed = 1;
nodes = (
(412,-10,o),
(455,71,o),
(455,188,cs),
(455,280,o),
(403,334,o),
(356,376,c),
(409,411,o),
(442,462,o),
(442,550,cs),
(442,666,o),
(374,724,o),
(241,724,cs),
(108,724,o),
(38,666,o),
(38,551,cs),
(38,473,o),
(66,417,o),
(111,373,c),
(55,335,o),
(23,283,o),
(23,185,cs),
(23,67,o),
(76,-10,o),
(237,-10,cs)
);
},
{
closed = 1;
nodes = (
(215,118,o),
(198,148,o),
(198,194,cs),
(198,240,o),
(220,270,o),
(240,298,c),
(255,270,o),
(280,236,o),
(280,191,cs),
(280,146,o),
(267,118,o),
(236,118,cs)
);
},
{
closed = 1;
nodes = (
(221,473,o),
(216,499,o),
(216,536,cs),
(216,572,o),
(228,596,o),
(240,596,cs),
(247,596,o),
(259,574,o),
(259,536,cs),
(259,493,o),
(243,471,o),
(235,452,c)
);
}
);
width = 476;
},
{
background = {
shapes = (
{
closed = 1;
nodes = (
(301,-10,o),
(365,55,o),
(365,164,cs),
(365,265,o),
(302,330,o),
(228,377,c),
(297,420,o),
(350,462,o),
(350,559,cs),
(350,668,o),
(289,724,o),
(210,724,cs),
(135,724,o),
(70,664,o),
(70,560,cs),
(70,470,o),
(120,422,o),
(184,377,c),
(106,334,o),
(50,270,o),
(50,168,cs),
(50,63,o),
(105,-10,o),
(205,-10,cs)
);
},
{
closed = 1;
nodes = (
(118,13,o),
(70,74,o),
(70,169,cs),
(70,260,o),
(118,319,o),
(203,367,c),
(299,312,o),
(345,243,o),
(345,160,cs),
(345,72,o),
(295,13,o),
(205,13,cs)
);
},
{
closed = 1;
nodes = (
(128,441,o),
(90,480,o),
(90,561,cs),
(90,652,o),
(148,701,o),
(209,701,cs),
(277,701,o),
(330,655,o),
(330,557,cs),
(330,466,o),
(275,430,o),
(205,387,c)
);
}
);
};
layerId = m007;
shapes = (
{
closed = 1;
nodes = (
(246,-10,o),
(298,56,o),
(298,164,cs),
(298,265,o),
(247,330,o),
(188,377,c),
(243,419,o),
(286,462,o),
(286,559,cs),
(286,667,o),
(236,724,o),
(171,724,cs),
(110,724,o),
(56,664,o),
(56,560,cs),
(56,470,o),
(96,422,o),
(147,377,c),
(85,334,o),
(40,270,o),
(40,168,cs),
(40,64,o),
(85,-10,o),
(167,-10,cs)
);
},
{
closed = 1;
nodes = (
(98,13,o),
(60,74,o),
(60,169,cs),
(60,260,o),
(98,319,o),
(165,367,c),
(241,312,o),
(278,243,o),
(278,160,cs),
(278,72,o),
(238,13,o),
(167,13,cs)
);
},
{
closed = 1;
nodes = (
(106,442,o),
(76,480,o),
(76,561,cs),
(76,651,o),
(121,701,o),
(170,701,cs),
(224,701,o),
(266,655,o),
(266,557,cs),
(266,466,o),
(223,431,o),
(167,387,c)
);
}
);
width = 337;
},
{
associatedMasterId = m008;
attr = {
coordinates = (
151,
60
);
};
background = {
shapes = (
{
closed = 1;
nodes = (
(443.16,-10,o),
(528.06,70.88,o),
(528.06,188.44,cs),
(528.06,281.61,o),
(454.89,336.39,o),
(383.16,376.78,c),
(455.55,413.17,o),
(506.89,465.39,o),
(506.89,551.17,cs),
(506.89,666.78,o),
(413.06,724.39,o),
(285.15,724.39,cs),
(159.02,724.39,o),
(62.19,666.39,o),
(62.19,552.17,cs),
(62.19,468.61,o),
(110.75,414.39,o),
(172.31,373.39,c),
(96.92,335.17,o),
(40.41,282.66,o),
(40.41,185.66,cs),
(40.41,67.27,o),
(120.19,-10,o),
(283.93,-10,cs)
);
},
{
closed = 1;
nodes = (
(214.77,103.04,o),
(181.09,138.23,o),
(181.09,190.15,cs),
(181.09,243.85,o),
(218.82,280.26,o),
(277.64,310.11,c),
(341.48,276.53,o),
(387.38,240.41,o),
(387.38,189.27,cs),
(387.38,136.4,o),
(352.58,103.04,o),
(281.93,103.04,cs)
);
},
{
closed = 1;
nodes = (
(238.06,464.91,o),
(204.7,492.86,o),
(204.7,539.63,cs),
(204.7,584.89,o),
(237.72,611.35,o),
(284.15,611.35,cs),
(330.53,611.35,o),
(363.16,585.5,o),
(363.16,539.63,cs),
(363.16,489.37,o),
(325.36,463.13,o),
(283.71,441.45,c)
);
}
);
};
layerId = "AE97E2AD-C125-47F4-A3FB-7831A6CD5F4F";
name = "Bold Semi (intermediate)";
shapes = (
{
closed = 1;
nodes = (
(371,-10,o),
(424,66,o),
(424,185,cs),
(424,278,o),
(374,333,o),
(322,377,c),
(375,414,o),
(409,464,o),
(409,551,cs),
(409,666,o),
(340,723,o),
(225,723,cs),
(110,723,o),
(39,665,o),
(39,552,cs),
(39,465,o),
(74,413,o),
(116,373,c),
(60,336,o),
(24,278,o),
(24,181,cs),
(24,62,o),
(80,-10,o),
(223,-10,cs)
);
},
{
closed = 1;
nodes = (
(191,98,o),
(171,135,o),
(171,189,cs),
(171,244,o),
(194,281,o),
(223,313,c),
(247,277,o),
(276,244,o),
(276,189,cs),
(276,134,o),
(259,98,o),
(221,98,cs)
);
},
{
closed = 1;
nodes = (
(202,462,o),
(189,485,o),
(189,541,cs),
(189,587,o),
(205,616,o),
(225,616,cs),
(241,616,o),
(257,587,o),
(257,541,cs),
(257,487,o),
(237,458,o),
(222,438,c)
);
}
);
width = 447;
},
{
background = {
shapes = (
{
closed = 1;
nodes = (
(409,-10,o),
(500,66,o),
(500,186,cs),
(500,281,o),
(425,337,o),
(349,378,c),
(422,415,o),
(477,466,o),
(477,553,cs),
(477,668,o),
(385,725,o),
(276,725,cs),
(170,725,o),
(75,667,o),
(75,554,cs),
(75,468,o),
(126,415,o),
(190,374,c),
(114,337,o),
(52,279,o),
(52,182,cs),
(52,63,o),
(133,-10,o),
(276,-10,cs)
);
},
{
closed = 1;
nodes = (
(180,64,o),
(139,112,o),
(139,181,cs),
(139,253,o),
(181,301,o),
(263,340,c),
(361,293,o),
(413,252,o),
(413,185,cs),
(413,112,o),
(366,64,o),
(274,64,cs)
);
},
{
closed = 1;
nodes = (
(210,446,o),
(162,477,o),
(162,550,cs),
(162,616,o),
(206,651,o),
(275,651,cs),
(347,651,o),
(390,616,o),
(390,550,cs),
(390,479,o),
(340,443,o),
(277,414,c)
);
}
);
};
layerId = m008;
shapes = (
{
closed = 1;
nodes = (
(409,-10,o),
(500,66,o),
(500,186,cs),
(500,281,o),
(425,337,o),
(349,378,c),
(422,415,o),
(477,466,o),
(477,553,cs),
(477,668,o),
(385,725,o),
(276,725,cs),
(170,725,o),
(75,667,o),
(75,554,cs),
(75,468,o),
(126,415,o),
(190,374,c),
(114,337,o),
(52,279,o),
(52,182,cs),
(52,63,o),
(133,-10,o),
(276,-10,cs)
);
},
{
closed = 1;
nodes = (
(180,64,o),
(139,112,o),
(139,181,cs),
(139,253,o),
(181,301,o),
(263,340,c),
(361,293,o),
(413,252,o),
(413,185,cs),
(413,112,o),
(366,64,o),
(274,64,cs)
);
},
{
closed = 1;
nodes = (
(210,446,o),
(162,477,o),
(162,550,cs),
(162,616,o),
(206,651,o),
(275,651,cs),
(347,651,o),
(390,616,o),
(390,550,cs),
(390,479,o),
(340,443,o),
(277,414,c)
);
}
);
width = 551;
},
{
background = {
shapes = (
{
closed = 1;
nodes = (
(412,-10,o),
(455,71,o),
(455,188,cs),
(455,280,o),
(403,334,o),
(356,376,c),
(409,411,o),
(442,462,o),
(442,550,cs),
(442,666,o),
(374,724,o),
(241,724,cs),
(108,724,o),
(38,666,o),
(38,551,cs),
(38,473,o),
(66,417,o),
(111,373,c),
(55,335,o),
(23,283,o),
(23,185,cs),
(23,67,o),
(76,-10,o),
(237,-10,cs)
);
},
{
closed = 1;
nodes = (
(215,118,o),
(198,148,o),
(198,194,cs),
(198,240,o),
(220,270,o),
(240,298,c),
(255,270,o),
(280,236,o),
(280,191,cs),
(280,146,o),
(267,118,o),
(236,118,cs)
);
},
{
closed = 1;
nodes = (
(221,473,o),
(216,499,o),
(216,536,cs),
(216,572,o),
(228,596,o),
(240,596,cs),
(247,596,o),
(259,574,o),
(259,536,cs),
(259,493,o),
(243,471,o),
(235,452,c)
);
}
);
};
layerId = m009;
shapes = (
{
closed = 1;
nodes = (
(412,-10,o),
(455,71,o),
(455,188,cs),
(455,280,o),
(403,334,o),
(356,376,c),
(409,411,o),
(442,462,o),
(442,550,cs),
(442,666,o),
(374,724,o),
(241,724,cs),
(108,724,o),
(38,666,o),
(38,551,cs),
(38,473,o),
(66,417,o),
(111,373,c),
(55,335,o),
(23,283,o),
(23,185,cs),
(23,67,o),
(76,-10,o),
(237,-10,cs)
);
},
{
closed = 1;
nodes = (
(215,118,o),
(198,148,o),
(198,194,cs),
(198,240,o),
(220,270,o),
(240,298,c),
(255,270,o),
(280,236,o),
(280,191,cs),
(280,146,o),
(267,118,o),
(236,118,cs)
);
},
{
closed = 1;
nodes = (
(221,473,o),
(216,499,o),
(216,536,cs),
(216,572,o),
(228,596,o),
(240,596,cs),
(247,596,o),
(259,574,o),
(259,536,cs),
(259,493,o),
(243,471,o),
(235,452,c)
);
}
);
width = 476;
},
{
layerId = "ADAF9463-560A-4353-9B5A-2FAD12EBF6B5";
shapes = (
{
closed = 1;
nodes = (
(284,-10,o),
(343,56,o),
(343,165,cs),
(343,266,o),
(285,330,o),
(217,377,c),
(280,419,o),
(329,462,o),
(329,559,cs),
(329,668,o),
(272,724,o),
(197,724,cs),
(126,724,o),
(64,664,o),
(64,560,cs),
(64,470,o),
(110,422,o),
(169,377,c),
(97,334,o),
(46,270,o),
(46,168,cs),
(46,63,o),
(97,-10,o),
(192,-10,cs)
);
},
{
closed = 1;
nodes = (
(113,16,o),
(70,76,o),
(70,170,cs),
(70,260,o),
(113,318,o),
(190,365,c),
(277,311,o),
(319,243,o),
(319,161,cs),
(319,74,o),
(274,16,o),
(192,16,cs)
);
},
{
closed = 1;
nodes = (
(123,442,o),
(88,480,o),
(88,560,cs),
(88,650,o),
(140,698,o),
(196,698,cs),
(257,698,o),
(305,653,o),
(305,557,cs),
(305,467,o),
(256,431,o),
(192,389,c)
);
}
);
width = 388;
}
);
unicode = 56;
}
{
glyphname = nine.beng;
layers = (
{
associatedMasterId = UUID0;
attr = {
coordinates = (
151,
100
);
};
background = {
shapes = (
{
closed = 1;
nodes = (
(448.17,-10,o),
(528.23,157.64,o),
(528.23,396.8,cs),
(528.23,623,o),
(416.47,722.17,o),
(272.66,722.17,c),
(126.24,722.17,o),
(36.14,629.34,o),
(36.14,474.24,cs),
(36.14,330.14,o),
(113.09,247.48,o),
(233.65,247.48,cs),
(319.19,247.48,o),
(355.82,282.87,o),
(381.82,330.48,c),
(387.82,330.48,l),
(382.43,212.08,o),
(339.6,109.36,o),
(168.7,109.36,cs),
(139.48,109.36,o),
(111.92,112.75,o),
(85.87,118.92,c),
(85.87,-3.44,l),
(110.92,-8.22,o),
(152.19,-10,o),
(179.63,-10,cs)
);
},
{
closed = 1;
nodes = (
(212.72,365.06,o),
(182.53,407.03,o),
(182.53,475.46,cs),
(182.53,561.62,o),
(220.67,599.59,o),
(276.1,599.59,c),
(343.04,599.59,o),
(377.62,527.16,o),
(377.62,463.34,cs),
(377.62,416.2,o),
(336.09,365.06,o),
(273.71,365.06,cs)
);
}
);
};
layerId = "1d2792de-d43e-4b96-b759-21b41591c8ef";
name = "Bold Semi (intermediate)";
shapes = (
{
closed = 1;
nodes = (
(457,-10,o),
(515,204,o),
(515,409,cs),
(515,623,o),
(405,722,o),
(264,722,cs),
(121,722,o),
(31,628,o),
(31,474,cs),
(31,330,o),
(106,248,o),
(230,248,cs),
(307,248,o),
(354,284,o),
(380,331,c),
(386,331,l),
(380,200,o),
(339,108,o),
(162,108,cs),
(134,108,o),
(105,112,o),
(81,118,c),
(81,-3,l),
(105,-8,o),
(146,-10,o),
(173,-10,cs)
);
},
{
closed = 1;
nodes = (
(206,364,o),
(177,407,o),
(177,476,cs),
(177,563,o),
(214,601,o),
(267,601,cs),
(332,601,o),
(365,529,o),
(365,463,cs),
(365,415,o),
(326,364,o),
(265,364,cs)
);
}
);
width = 551;
},
{
background = {
shapes = (
{
closed = 1;
nodes = (
(450,-10,o),
(502,204,o),
(502,409,cs),
(502,623,o),
(400,724,o),
(269,724,cs),
(136,724,o),
(52,633,o),
(52,484,cs),
(52,346,o),
(132,267,o),
(255,267,cs),
(332,267,o),
(379,303,o),
(405,350,c),
(411,350,l),
(405,195,o),
(364,63,o),
(187,63,cs),
(159,63,o),
(129,67,o),
(106,75,c),
(106,-1,l),
(128,-7,o),
(165,-10,o),
(190,-10,cs)
);
},
{
closed = 1;
nodes = (
(181,337,o),
(138,393,o),
(138,484,cs),
(138,597,o),
(192,649,o),
(270,649,cs),
(365,649,o),
(413,554,o),
(413,467,cs),
(413,404,o),
(355,337,o),
(267,337,cs)
);
}
);
};
layerId = UUID0;
shapes = (
{
closed = 1;
nodes = (
(450,-10,o),
(502,204,o),
(502,409,cs),
(502,623,o),
(400,724,o),
(269,724,cs),
(136,724,o),
(52,633,o),
(52,484,cs),
(52,346,o),
(132,267,o),
(255,267,cs),
(332,267,o),
(379,303,o),
(405,350,c),
(411,350,l),
(405,195,o),
(364,63,o),
(187,63,cs),
(159,63,o),
(129,67,o),
(106,75,c),
(106,-1,l),
(128,-7,o),
(165,-10,o),
(190,-10,cs)
);
},
{
closed = 1;
nodes = (
(181,337,o),
(138,393,o),
(138,484,cs),
(138,597,o),
(192,649,o),
(270,649,cs),
(365,649,o),
(413,554,o),
(413,467,cs),
(413,404,o),
(355,337,o),
(267,337,cs)
);
}
);
width = 551;
},
{
layerId = "28FB090A-653E-4199-B7BE-FAE23D31B682";
shapes = (
{
closed = 1;
nodes = (
(421,-10,o),
(474,199,o),
(474,414,cs),
(474,626,o),
(389,724,o),
(260,724,c),
(135,724,o),
(59,635,o),
(59,493,cs),
(59,375,o),
(130,287,o),
(254,287,cs),
(346,287,o),
(411,335,o),
(446,395,c),
(448,395,l),
(443,182,o),
(386,16,o),
(188,16,cs),
(160,16,o),
(129,18,o),
(107,26,c),
(107,-2,l),
(126,-7,o),
(160,-10,o),
(183,-10,cs)
);
},
{
closed = 1;
nodes = (
(146,313,o),
(86,389,o),
(86,493,cs),
(86,629,o),
(154,698,o),
(259,698,c),
(385,698,o),
(445,587,o),
(445,457,cs),
(445,401,o),
(379,313,o),
(256,313,cs)
);
}
);
width = 551;
},
{
layerId = "F455777D-7EDD-47E2-866A-D8A5173CE243";
shapes = (
{
closed = 1;
nodes = (
(447,-10,o),
(545,128,o),
(545,389,cs),
(545,623,o),
(427,721,o),
(275,721,cs),
(120,721,o),
(26,627,o),
(26,468,cs),
(26,320,o),
(101,235,o),
(220,235,cs),
(311,235,o),
(341,270,o),
(367,318,c),
(373,318,l),
(368,223,o),
(324,139,o),
(157,139,cs),
(127,139,o),
(101,142,o),
(73,147,c),
(73,-5,l),
(100,-9,o),
(144,-10,o),
(173,-10,cs)
);
},
{
closed = 1;
nodes = (
(233,383,o),
(211,416,o),
(211,470,cs),
(211,539,o),
(239,568,o),
(280,568,cs),
(329,568,o),
(355,510,o),
(355,461,cs),
(355,424,o),
(324,383,o),
(278,383,cs)
);
}
);
width = 578;
},
{
background = {
shapes = (
{
closed = 1;
nodes = (
(315,-10,o),
(355,198,o),
(355,414,cs),
(355,627,o),
(291,724,o),
(195,724,c),
(101,724,o),
(44,635,o),
(44,494,cs),
(44,377,o),
(97,288,o),
(190,288,cs),
(260,288,o),
(308,338,o),
(334,398,c),
(336,398,l),
(332,178,o),
(288,13,o),
(141,13,cs),
(125,13,o),
(98,14,o),
(80,23,c),
(80,-2,l),
(94,-7,o),
(120,-10,o),
(137,-10,cs)
);
},
{
closed = 1;
nodes = (
(109,311,o),
(64,389,o),
(64,494,cs),
(64,631,o),
(115,702,o),
(194,702,c),
(289,702,o),
(334,589,o),
(334,456,cs),
(334,401,o),
(284,311,o),
(192,311,cs)
);
}
);
};
layerId = m004;
shapes = (
{
closed = 1;
nodes = (
(315,-10,o),
(355,198,o),
(355,414,cs),
(355,627,o),
(291,724,o),
(195,724,c),
(101,724,o),
(44,635,o),
(44,494,cs),
(44,377,o),
(97,288,o),
(190,288,cs),
(260,288,o),
(308,338,o),
(334,398,c),
(336,398,l),
(332,178,o),
(288,13,o),
(141,13,cs),
(125,13,o),
(98,14,o),
(80,23,c),
(80,-2,l),
(94,-7,o),
(120,-10,o),
(137,-10,cs)
);
},
{
closed = 1;
nodes = (
(109,311,o),
(64,389,o),
(64,494,cs),
(64,631,o),
(115,702,o),
(194,702,c),
(289,702,o),
(334,589,o),
(334,456,cs),
(334,401,o),
(284,311,o),
(192,311,cs)
);
}
);
width = 413;
},
{
associatedMasterId = m005;
attr = {
coordinates = (
151,
70
);
};
background = {
shapes = (
{
closed = 1;
nodes = (
(448.17,-10,o),
(528.23,157.64,o),
(528.23,396.8,cs),
(528.23,623,o),
(416.47,722.17,o),
(272.66,722.17,c),
(126.24,722.17,o),
(36.14,629.34,o),
(36.14,474.24,cs),
(36.14,330.14,o),
(113.09,247.48,o),
(233.65,247.48,cs),
(319.19,247.48,o),
(355.82,282.87,o),
(381.82,330.48,c),
(387.82,330.48,l),
(382.43,212.08,o),
(339.6,109.36,o),
(168.7,109.36,cs),
(139.48,109.36,o),
(111.92,112.75,o),
(85.87,118.92,c),
(85.87,-3.44,l),
(110.92,-8.22,o),
(152.19,-10,o),
(179.63,-10,cs)
);
},
{
closed = 1;
nodes = (
(212.72,365.06,o),
(182.53,407.03,o),
(182.53,475.46,cs),
(182.53,561.62,o),
(220.67,599.59,o),
(276.1,599.59,c),
(343.04,599.59,o),
(377.62,527.16,o),
(377.62,463.34,cs),
(377.62,416.2,o),
(336.09,365.06,o),
(273.71,365.06,cs)
);
}
);
};
layerId = "56FAC59E-4004-4EA3-9E50-AA213679BFA8";
name = "Bold Semi (intermediate)";
shapes = (
{
closed = 1;
nodes = (
(330,-10,o),
(422,204,o),
(422,409,cs),
(422,623,o),
(330,722,o),
(211,722,cs),
(89,722,o),
(17,628,o),
(17,475,cs),
(17,332,o),
(73,250,o),
(160,250,cs),
(235,250,o),
(250,287,o),
(269,333,c),
(274,333,l),
(271,201,o),
(237,104,o),
(115,104,cs),
(93,104,o),
(73,108,o),
(51,114,c),
(51,-3,l),
(73,-8,o),
(107,-10,o),
(130,-10,cs)
);
},
{
closed = 1;
nodes = (
(187,362,o),
(174,407,o),
(174,477,cs),
(174,566,o),
(191,605,o),
(216,605,cs),
(245,605,o),
(261,530,o),
(261,463,cs),
(261,415,o),
(242,362,o),
(214,362,cs)
);
}
);
width = 445;
},
{
background = {
shapes = (
{
closed = 1;
nodes = (
(450,-10,o),
(502,204,o),
(502,409,cs),
(502,623,o),
(400,724,o),
(269,724,cs),
(136,724,o),
(52,633,o),
(52,484,cs),
(52,346,o),
(132,267,o),
(255,267,cs),
(332,267,o),
(379,303,o),
(405,350,c),
(411,350,l),
(405,195,o),
(364,63,o),
(187,63,cs),
(159,63,o),
(129,67,o),
(106,75,c),
(106,-1,l),
(128,-7,o),
(165,-10,o),
(190,-10,cs)
);
},
{
closed = 1;
nodes = (
(181,337,o),
(138,393,o),
(138,484,cs),
(138,597,o),
(192,649,o),
(270,649,cs),
(365,649,o),
(413,554,o),
(413,467,cs),
(413,404,o),
(355,337,o),
(267,337,cs)
);
}
);
};
layerId = m005;
shapes = (
{
closed = 1;
nodes = (
(450,-10,o),
(502,204,o),
(502,409,cs),
(502,623,o),
(400,724,o),
(269,724,cs),
(136,724,o),
(52,633,o),
(52,484,cs),
(52,346,o),
(132,267,o),
(255,267,cs),
(332,267,o),
(379,303,o),
(405,350,c),
(411,350,l),
(405,195,o),
(364,63,o),
(187,63,cs),
(159,63,o),
(129,67,o),
(106,75,c),
(106,-1,l),
(128,-7,o),
(165,-10,o),
(190,-10,cs)
);
},
{
closed = 1;
nodes = (
(181,337,o),
(138,393,o),
(138,484,cs),
(138,597,o),
(192,649,o),
(270,649,cs),
(365,649,o),
(413,554,o),
(413,467,cs),
(413,404,o),
(355,337,o),
(267,337,cs)
);
}
);
width = 551;
},
{
background = {
shapes = (
{
closed = 1;
nodes = (
(332,-10,o),
(454,156,o),
(454,396,cs),
(454,622,o),
(354,721,o),
(224,721,cs),
(91,721,o),
(14,627,o),
(14,470,cs),
(14,324,o),
(72,240,o),
(158,240,cs),
(243,240,o),
(246,274,o),
(267,323,c),
(272,323,l),
(269,209,o),
(228,128,o),
(115,128,cs),
(91,128,o),
(74,131,o),
(47,136,c),
(47,-4,l),
(73,-9,o),
(114,-10,o),
(133,-10,cs)
);
},
{
closed = 1;
nodes = (
(210,376,o),
(201,413,o),
(201,472,cs),
(201,546,o),
(212,580,o),
(230,580,cs),
(250,580,o),
(262,516,o),
(262,462,cs),
(262,421,o),
(247,376,o),
(229,376,cs)
);
}
);
};
layerId = m006;
shapes = (
{
closed = 1;
nodes = (
(332,-10,o),
(454,156,o),
(454,396,cs),
(454,622,o),
(354,721,o),
(224,721,cs),
(91,721,o),
(14,627,o),
(14,470,cs),
(14,324,o),
(72,240,o),
(158,240,cs),
(243,240,o),
(246,274,o),
(267,323,c),
(272,323,l),
(269,209,o),
(228,128,o),
(115,128,cs),
(91,128,o),
(74,131,o),
(47,136,c),
(47,-4,l),
(73,-9,o),
(114,-10,o),
(133,-10,cs)
);
},
{
closed = 1;
nodes = (
(210,376,o),
(201,413,o),
(201,472,cs),
(201,546,o),
(212,580,o),
(230,580,cs),
(250,580,o),
(262,516,o),
(262,462,cs),
(262,421,o),
(247,376,o),
(229,376,cs)
);
}
);
width = 476;
},
{
layerId = "ADAF9463-560A-4353-9B5A-2FAD12EBF6B5";
shapes = (
{
closed = 1;
nodes = (
(296,-10,o),
(334,199,o),
(334,414,cs),
(334,627,o),
(273,724,o),
(183,724,c),
(94,724,o),
(40,635,o),
(40,493,cs),
(40,376,o),
(90,287,o),
(177,287,cs),
(241,287,o),
(285,335,o),
(309,396,c),
(311,396,l),
(308,181,o),
(268,16,o),
(131,16,cs),
(116,16,o),
(91,17,o),
(74,26,c),
(74,-2,l),
(87,-7,o),
(112,-10,o),
(128,-10,cs)
);
},
{
closed = 1;
nodes = (
(105,313,o),
(64,389,o),
(64,493,cs),
(64,629,o),
(111,699,o),
(182,699,c),
(268,699,o),
(309,587,o),
(309,456,cs),
(309,402,o),
(264,313,o),
(180,313,cs)
);
}
);
width = 387;
}
);
unicode = 57;
}
{
color = 0;
glyphname = colon.beng;
layers = (
{
background = {
shapes = (
{
closed = 1;
nodes = (
(181,414,o),
(209,434,o),
(209,482,cs),
(209,533,o),
(181,550,o),
(147,550,cs),
(112,550,o),
(85,533,o),
(85,482,cs),
(85,434,o),
(112,414,o),
(147,414,cs)
);
},
{
closed = 1;
nodes = (
(181,-14,o),
(209,6,o),
(209,54,cs),
(209,104,o),
(181,122,o),
(147,122,cs),
(112,122,o),
(85,104,o),
(85,54,cs),
(85,6,o),
(112,-14,o),
(147,-14,cs)
);
}
);
};
layerId = UUID0;
shapes = (
{
closed = 1;
nodes = (
(181,414,o),
(209,434,o),
(209,482,cs),
(209,533,o),
(181,550,o),
(147,550,cs),
(112,550,o),
(85,533,o),
(85,482,cs),
(85,434,o),
(112,414,o),
(147,414,cs)
);
},
{
closed = 1;
nodes = (
(181,-14,o),
(209,6,o),
(209,54,cs),
(209,104,o),
(181,122,o),
(147,122,cs),
(112,122,o),
(85,104,o),
(85,54,cs),
(85,6,o),
(112,-14,o),
(147,-14,cs)
);
}
);
width = 294;
},
{
layerId = "28FB090A-653E-4199-B7BE-FAE23D31B682";
shapes = (
{
closed = 1;
nodes = (
(140,470,o),
(143,484,o),
(143,501,cs),
(143,517,o),
(140,532,o),
(116,532,cs),
(96,532,o),
(91,517,o),
(91,501,cs),
(91,484,o),
(96,470,o),
(116,470,cs)
);
},
{
closed = 1;
nodes = (
(140,-8,o),
(143,6,o),
(143,23,cs),
(143,39,o),
(140,54,o),
(116,54,cs),
(96,54,o),
(91,39,o),
(91,23,cs),
(91,6,o),
(96,-8,o),
(116,-8,cs)
);
}
);
width = 234;
},
{
layerId = "F455777D-7EDD-47E2-866A-D8A5173CE243";
shapes = (
{
closed = 1;
nodes = (
(230,373,o),
(276,400,o),
(276,467,cs),
(276,535,o),
(230,560,o),
(176,560,cs),
(119,560,o),
(72,535,o),
(72,467,cs),
(72,400,o),
(119,373,o),
(176,373,cs)
);
},
{
closed = 1;
nodes = (
(230,-12,o),
(276,15,o),
(276,81,cs),
(276,150,o),
(230,175,o),
(176,175,cs),
(119,175,o),
(72,150,o),
(72,81,cs),
(72,15,o),
(119,-12,o),
(176,-12,cs)
);
}
);
width = 348;
},
{
layerId = m005;
shapes = (
{
closed = 1;
nodes = (
(170,418,o),
(193,439,o),
(193,483,cs),
(193,525,o),
(174,547,o),
(139,547,cs),
(103,547,o),
(85,525,o),
(85,483,cs),
(85,440,o),
(104,418,o),
(139,418,cs)
);
},
{
closed = 1;
nodes = (
(170,-14,o),
(193,6,o),
(193,50,cs),
(193,95,o),
(172,114,o),
(139,114,cs),
(103,114,o),
(85,92,o),
(85,50,cs),
(85,8,o),
(104,-14,o),
(139,-14,cs)
);
}
);
width = 278;
},
{
layerId = m006;
shapes = (
{
closed = 1;
nodes = (
(225,351,o),
(279,380,o),
(279,460,cs),
(279,541,o),
(229,567,o),
(178,567,cs),
(119,567,o),
(74,541,o),
(74,460,cs),
(74,381,o),
(120,351,o),
(178,351,cs)
);
},
{
closed = 1;
nodes = (
(225,-19,o),
(279,9,o),
(279,89,cs),
(279,173,o),
(227,198,o),
(178,198,cs),
(119,198,o),
(74,170,o),
(74,89,cs),
(74,11,o),
(120,-19,o),
(178,-19,cs)
);
}
);
width = 354;
},
{
layerId = "ADAF9463-560A-4353-9B5A-2FAD12EBF6B5";
shapes = (
{
closed = 1;
nodes = (
(135,461,o),
(138,477,o),
(138,498,cs),
(138,515,o),
(139,534,o),
(114,534,cs),
(93,534,o),
(92,515,o),
(92,498,cs),
(92,478,o),
(94,461,o),
(114,461,cs)
);
},
{
closed = 1;
nodes = (
(135,-11,o),
(138,4,o),
(138,25,cs),
(138,45,o),
(137,60,o),
(114,60,cs),
(93,60,o),
(92,42,o),
(92,25,cs),
(92,6,o),
(94,-11,o),
(114,-11,cs)
);
}
);
width = 230;
}
);
unicode = 58;
}
{
glyphname = semicolon.beng;
layers = (
{
background = {
shapes = (
{
closed = 1;
nodes = (
(93,116,l),
(83,47,o),
(66,-40,o),
(46,-119,c),
(113,-119,l),
(146,-46,o),
(179,34,o),
(197,105,c),
(190,116,l)
);
},
{
closed = 1;
nodes = (
(181,414,o),
(209,434,o),
(209,482,cs),
(209,533,o),
(181,550,o),
(147,550,cs),
(112,550,o),
(85,533,o),
(85,482,cs),
(85,434,o),
(112,414,o),
(147,414,cs)
);
}
);
};
layerId = UUID0;
shapes = (
{
closed = 1;
nodes = (
(93,116,l),
(83,47,o),
(66,-40,o),
(46,-119,c),
(113,-119,l),
(146,-46,o),
(179,34,o),
(197,105,c),
(190,116,l)
);
},
{
closed = 1;
nodes = (
(181,414,o),
(209,434,o),
(209,482,cs),
(209,533,o),
(181,550,o),
(147,550,cs),
(112,550,o),
(85,533,o),
(85,482,cs),
(85,434,o),
(112,414,o),
(147,414,cs)
);
}
);
width = 294;
},
{
layerId = "28FB090A-653E-4199-B7BE-FAE23D31B682";
shapes = (
{
closed = 1;
nodes = (
(100,116,l),
(89,40,o),
(76,-22,o),
(47,-119,c),
(69,-119,l),
(97,-50,o),
(116,30,o),
(131,104,c),
(128,116,l)
);
},
{
closed = 1;
nodes = (
(140,470,o),
(143,484,o),
(143,501,cs),
(143,517,o),
(140,532,o),
(116,532,cs),
(96,532,o),
(91,517,o),
(91,501,cs),
(91,484,o),
(96,470,o),
(116,470,cs)
);
}
);
width = 234;
},
{
layerId = "F455777D-7EDD-47E2-866A-D8A5173CE243";
shapes = (
{
closed = 1;
nodes = (
(106,146,l),
(97,66,o),
(79,-29,o),
(62,-119,c),
(198,-119,l),
(231,-45,o),
(262,63,o),
(280,135,c),
(273,146,l)
);
},
{
closed = 1;
nodes = (
(232,373,o),
(279,400,o),
(279,467,cs),
(279,535,o),
(232,560,o),
(178,560,cs),
(121,560,o),
(75,535,o),
(75,467,c),
(75,400,o),
(121,373,o),
(178,373,cs)
);
}
);
width = 351;
},
{
background = {
shapes = (
{
closed = 1;
nodes = (
(73,116,l),
(66,47,o),
(53,-39,o),
(38,-119,c),
(102,-119,l),
(127,-46,o),
(151,34,o),
(165,105,c),
(159,116,l)
);
},
{
closed = 1;
nodes = (
(146,418,o),
(171,438,o),
(171,483,cs),
(171,532,o),
(146,549,o),
(117,549,cs),
(86,549,o),
(62,532,o),
(62,483,cs),
(62,438,o),
(86,418,o),
(117,418,cs)
);
}
);
};
layerId = m005;
shapes = (
{
closed = 1;
nodes = (
(73,116,l),
(66,47,o),
(53,-39,o),
(38,-119,c),
(102,-119,l),
(127,-46,o),
(151,34,o),
(165,105,c),
(159,116,l)
);
},
{
closed = 1;
nodes = (
(146,418,o),
(171,438,o),
(171,483,cs),
(171,532,o),
(146,549,o),
(117,549,cs),
(86,549,o),
(62,532,o),
(62,483,cs),
(62,438,o),
(86,418,o),
(117,418,cs)
);
}
);
width = 232;
},
{
background = {
shapes = (
{
closed = 1;
nodes = (
(86,143,l),
(79,64,o),
(65,-30,o),
(53,-119,c),
(182,-119,l),
(207,-45,o),
(230,60,o),
(244,132,c),
(239,143,l)
);
},
{
closed = 1;
nodes = (
(196,378,o),
(239,404,o),
(239,469,cs),
(239,535,o),
(196,559,o),
(148,559,cs),
(96,559,o),
(54,535,o),
(54,469,c),
(54,404,o),
(97,378,o),
(148,378,cs)
);
}
);
};
layerId = m006;
shapes = (
{
closed = 1;
nodes = (
(86,143,l),
(79,64,o),
(65,-30,o),
(53,-119,c),
(182,-119,l),
(207,-45,o),
(230,60,o),
(244,132,c),
(239,143,l)
);
},
{
closed = 1;
nodes = (
(196,378,o),
(239,404,o),
(239,469,cs),
(239,535,o),
(196,559,o),
(148,559,cs),
(96,559,o),
(54,535,o),
(54,469,c),
(54,404,o),
(97,378,o),
(148,378,cs)
);
}
);
width = 290;
},
{
layerId = "ADAF9463-560A-4353-9B5A-2FAD12EBF6B5";
shapes = (
{
closed = 1;
nodes = (
(69,116,l),
(62,40,o),
(52,-22,o),
(33,-119,c),
(52,-119,l),
(72,-50,o),
(86,30,o),
(96,104,c),
(94,116,l)
);
},
{
closed = 1;
nodes = (
(100,471,o),
(104,485,o),
(104,501,cs),
(104,516,o),
(100,532,o),
(83,532,cs),
(68,532,o),
(63,517,o),
(63,501,cs),
(63,485,o),
(68,471,o),
(83,471,cs)
);
}
);
width = 167;
}
);
unicode = 59;
}
{
glyphname = less.beng;
layers = (
{
background = {
shapes = (
{
closed = 1;
nodes = (
(521,77,l),
(521,155,l),
(162,313,l),
(521,490,l),
(521,568,l),
(70,333,l),
(70,284,l)
);
}
);
};
layerId = UUID0;
shapes = (
{
closed = 1;
nodes = (
(521,77,l),
(521,155,l),
(162,313,l),
(521,490,l),
(521,568,l),
(70,333,l),
(70,284,l)
);
}
);
width = 592;
},
{
layerId = "28FB090A-653E-4199-B7BE-FAE23D31B682";
shapes = (
{
closed = 1;
nodes = (
(521,88,l),
(521,118,l),
(100,320,l),
(521,523,l),
(521,553,l),
(69,333,l),
(69,307,l)
);
}
);
width = 592;
},
{
layerId = "F455777D-7EDD-47E2-866A-D8A5173CE243";
shapes = (
{
closed = 1;
nodes = (
(564,42,l),
(564,189,l),
(266,325,l),
(564,461,l),
(564,608,l),
(72,368,l),
(72,282,l)
);
}
);
width = 637;
},
{
background = {
shapes = (
{
closed = 1;
nodes = (
(391,89,l),
(391,115,l),
(75,321,l),
(391,525,l),
(391,552,l),
(52,333,l),
(52,309,l)
);
}
);
};
layerId = m004;
shapes = (
{
closed = 1;
nodes = (
(391,89,l),
(391,115,l),
(75,321,l),
(391,525,l),
(391,552,l),
(52,333,l),
(52,309,l)
);
}
);
width = 444;
},
{
background = {
shapes = (
{
closed = 1;
nodes = (
(399,78,l),
(399,152,l),
(142,314,l),
(399,492,l),
(399,567,l),
(53,333,l),
(53,286,l)
);
}
);
};
layerId = m005;
shapes = (
{
closed = 1;
nodes = (
(399,78,l),
(399,152,l),
(142,314,l),
(399,492,l),
(399,567,l),
(53,333,l),
(53,286,l)
);
}
);
width = 453;
},
{
background = {
shapes = (
{
closed = 1;
nodes = (
(449,46,l),
(449,185,l),
(241,324,l),
(449,464,l),
(449,603,l),
(56,364,l),
(56,282,l)
);
}
);
};
layerId = m006;
shapes = (
{
closed = 1;
nodes = (
(449,46,l),
(449,185,l),
(241,324,l),
(449,464,l),
(449,603,l),
(56,364,l),
(56,282,l)
);
}
);
width = 506;
}
);
unicode = 60;
}
{
color = 0;
glyphname = equal.beng;
layers = (
{
background = {
shapes = (
{
closed = 1;
nodes = (
(70,386,l),
(521,386,l),
(521,459,l),
(70,459,l)
);
},
{
closed = 1;
nodes = (
(70,186,l),
(521,186,l),
(521,259,l),
(70,259,l)
);
}
);
};
layerId = UUID0;
shapes = (
{
closed = 1;
nodes = (
(70,386,l),
(521,386,l),
(521,459,l),
(70,459,l)
);
},
{
closed = 1;
nodes = (
(70,186,l),
(521,186,l),
(521,259,l),
(70,259,l)
);
}
);
width = 592;
},
{
layerId = "28FB090A-653E-4199-B7BE-FAE23D31B682";
shapes = (
{
closed = 1;
nodes = (
(70,409,l),
(522,409,l),
(522,435,l),
(70,435,l)
);
},
{
closed = 1;
nodes = (
(70,206,l),
(522,206,l),
(522,231,l),
(70,231,l)
);
}
);
width = 592;
},
{
layerId = "F455777D-7EDD-47E2-866A-D8A5173CE243";
shapes = (
{
closed = 1;
nodes = (
(72,355,l),
(564,355,l),
(564,484,l),
(72,484,l)
);
},
{
closed = 1;
nodes = (
(72,162,l),
(564,162,l),
(564,291,l),
(72,291,l)
);
}
);
width = 637;
},
{
layerId = m005;
shapes = (
{
closed = 1;
nodes = (
(53,382,l),
(384,382,l),
(384,451,l),
(53,451,l)
);
},
{
closed = 1;
nodes = (
(53,193,l),
(384,193,l),
(384,262,l),
(53,262,l)
);
}
);
width = 437;
},
{
layerId = m006;
shapes = (
{
closed = 1;
nodes = (
(53,346,l),
(403,346,l),
(403,481,l),
(53,481,l)
);
},
{
closed = 1;
nodes = (
(53,166,l),
(403,166,l),
(403,303,l),
(53,303,l)
);
}
);
width = 456;
},
{
layerId = "ADAF9463-560A-4353-9B5A-2FAD12EBF6B5";
shapes = (
{
closed = 1;
nodes = (
(53,405,l),
(372,405,l),
(372,432,l),
(53,432,l)
);
},
{
closed = 1;
nodes = (
(53,210,l),
(372,210,l),
(372,236,l),
(53,236.006,l)
);
}
);
width = 425;
}
);
unicode = 61;
}
{
glyphname = greater.beng;
layers = (
{
background = {
shapes = (
{
closed = 1;
nodes = (
(70,77,l),
(521,284,l),
(521,333,l),
(70,568,l),
(70,490,l),
(429,313,l),
(70,155,l)
);
}
);
};
layerId = UUID0;
shapes = (
{
closed = 1;
nodes = (
(70,77,l),
(521,284,l),
(521,333,l),
(70,568,l),
(70,490,l),
(429,313,l),
(70,155,l)
);
}
);
width = 592;
},
{
layerId = "28FB090A-653E-4199-B7BE-FAE23D31B682";
shapes = (
{
closed = 1;
nodes = (
(69,88,l),
(521,308,l),
(521,334,l),
(69,553,l),
(69,523,l),
(490,321,l),
(69,118,l)
);
}
);
width = 592;
},
{
layerId = "F455777D-7EDD-47E2-866A-D8A5173CE243";
shapes = (
{
closed = 1;
nodes = (
(72,42,l),
(564,282,l),
(564,368,l),
(72,608,l),
(72,461,l),
(370,325,l),
(72,189,l)
);
}
);
width = 637;
},
{
background = {
shapes = (
{
closed = 1;
nodes = (
(53,78,l),
(399,286,l),
(399,333,l),
(53,567,l),
(53,492,l),
(310,314,l),
(53,152,l)
);
}
);
};
layerId = m005;
shapes = (
{
closed = 1;
nodes = (
(53,78,l),
(399,286,l),
(399,333,l),
(53,567,l),
(53,492,l),
(310,314,l),
(53,152,l)
);
}
);
width = 453;
},
{
background = {
shapes = (
{
closed = 1;
nodes = (
(56,46,l),
(449,282,l),
(449,364,l),
(56,603,l),
(56,464,l),
(264,324,l),
(56,185,l)
);
}
);
};
layerId = m006;
shapes = (
{
closed = 1;
nodes = (
(56,46,l),
(449,282,l),
(449,364,l),
(56,603,l),
(56,464,l),
(264,324,l),
(56,185,l)
);
}
);
width = 506;
},
{
layerId = "ADAF9463-560A-4353-9B5A-2FAD12EBF6B5";
shapes = (
{
closed = 1;
nodes = (
(48,88,l),
(362,309,l),
(362,334,l),
(48,553,l),
(48,523,l),
(336,322,l),
(48,117,l)
);
}
);
width = 412;
}
);
unicode = 62;
}
{
color = 0;
glyphname = question.beng;
layers = (
{
background = {
shapes = (
{
closed = 1;
nodes = (
(258,202,l),
(258,211,ls),
(258,268,o),
(274,292,o),
(341,350,cs),
(411,411,o),
(446,455,o),
(446,542,cs),
(446,656,o),
(371,724,o),
(250,724,cs),
(187,724,o),
(124,702,o),
(71,675,c),
(102,604,l),
(147,626,o),
(196,646,o),
(250,646,cs),
(322,646,o),
(361,604,o),
(361,541,cs),
(361,472,o),
(335,443,o),
(273,390,cs),
(208,335,o),
(190,295,o),
(190,220,cs),
(190,202,l)
);
},
{
closed = 1;
nodes = (
(263,-14,o),
(291,6,o),
(291,54,cs),
(291,104,o),
(263,122,o),
(229,122,cs),
(194,122,o),
(167,104,o),
(167,54,cs),
(167,6,o),
(194,-14,o),
(229,-14,cs)
);
}
);
};
layerId = UUID0;
shapes = (
{
closed = 1;
nodes = (
(258,202,l),
(258,211,ls),
(258,268,o),
(274,292,o),
(341,350,cs),
(411,411,o),
(446,455,o),
(446,542,cs),
(446,656,o),
(371,724,o),
(250,724,cs),
(187,724,o),
(124,702,o),
(71,675,c),
(102,604,l),
(147,626,o),
(196,646,o),
(250,646,cs),
(322,646,o),
(361,604,o),
(361,541,cs),
(361,472,o),
(335,443,o),
(273,390,cs),
(208,335,o),
(190,295,o),
(190,220,cs),
(190,202,l)
);
},
{
closed = 1;
nodes = (
(263,-14,o),
(291,6,o),
(291,54,cs),
(291,104,o),
(263,122,o),
(229,122,cs),
(194,122,o),
(167,104,o),
(167,54,cs),
(167,6,o),
(194,-14,o),
(229,-14,cs)
);
}
);
width = 518;
},
{
layerId = "28FB090A-653E-4199-B7BE-FAE23D31B682";
shapes = (
{
closed = 1;
nodes = (
(203,174,l),
(203,186,ls),
(203,277,o),
(223,314,o),
(275,350,cs),
(354,405,o),
(407,454,o),
(407,554,cs),
(407,668,o),
(333,724,o),
(225,724,cs),
(163,724,o),
(121,708,o),
(71,685,c),
(81,659,l),
(130,685,o),
(172,698,o),
(226,698,cs),
(314,698,o),
(380,654,o),
(380,554,cs),
(380,463,o),
(334,422,o),
(262,371,cs),
(193,322,o),
(177,285,o),
(177,186,cs),
(177,174,l)
);
},
{
closed = 1;
nodes = (
(215,-8,o),
(218,6,o),
(218,23,cs),
(218,39,o),
(215,54,o),
(191,54,cs),
(171,54,o),
(166,39,o),
(166,23,cs),
(166,6,o),
(171,-8,o),
(191,-8,cs)
);
}
);
width = 480;
},
{
layerId = "F455777D-7EDD-47E2-866A-D8A5173CE243";
shapes = (
{
closed = 1;
nodes = (
(323,252,l),
(323,274,ls),
(323,308,o),
(341,322,o),
(392,358,cs),
(481,421,o),
(510,463,o),
(510,546,cs),
(510,653,o),
(431,724,o),
(283,724,cs),
(203,724,o),
(130,705,o),
(55,669,c),
(122,535,l),
(172,559,o),
(219,574,o),
(269,574,cs),
(313,574,o),
(330,555,o),
(330,526,cs),
(330,501,o),
(318,479,o),
(256,436,cs),
(193,392,o),
(173,356,o),
(173,294,cs),
(173,252,l)
);
},
{
closed = 1;
nodes = (
(310,-12,o),
(356,15,o),
(356,81,cs),
(356,150,o),
(310,175,o),
(255,175,cs),
(198,175,o),
(152,150,o),
(152,81,cs),
(152,15,o),
(198,-12,o),
(255,-12,cs)
);
}
);
width = 567;
},
{
layerId = m005;
shapes = (
{
closed = 1;
nodes = (
(219,201,l),
(219,221,ls),
(219,275,o),
(234,305,o),
(276,364,cs),
(318,424,o),
(353,474,o),
(353,557,cs),
(353,660,o),
(294,724,o),
(202,724,cs),
(150,724,o),
(103,710,o),
(67,692,c),
(98,624,l),
(127,639,o),
(156,650,o),
(193,650,cs),
(244,650,o),
(273,616,o),
(273,557,cs),
(273,495,o),
(251,456,o),
(207,394,cs),
(169,341,o),
(154,301,o),
(154,230,cs),
(154,201,l)
);
},
{
closed = 1;
nodes = (
(220,-9,o),
(242,11,o),
(242,55,cs),
(242,100,o),
(221,119,o),
(188,119,cs),
(153,119,o),
(134,97,o),
(134,55,cs),
(134,13,o),
(154,-9,o),
(188,-9,cs)
);
}
);
width = 422;
},
{
layerId = m006;
shapes = (
{
closed = 1;
nodes = (
(303,251,l),
(303,280,ls),
(303,294,o),
(311,305,o),
(359,375,cs),
(395,438,o),
(412,480,o),
(412,549,cs),
(412,651,o),
(349,724,o),
(236,724,cs),
(178,724,o),
(101,701,o),
(61,675,c),
(125,540,l),
(157,556,o),
(194,573,o),
(226,573,cs),
(247,573,o),
(242,552,o),
(242,545,cs),
(242,517,o),
(243,494,o),
(213,438,cs),
(182,383,o),
(159,340,o),
(159,297,cs),
(159,251,l)
);
},
{
closed = 1;
nodes = (
(286,-14,o),
(339,14,o),
(339,94,cs),
(339,178,o),
(287,203,o),
(236,203,cs),
(180,203,o),
(132,175,o),
(132,94,cs),
(132,16,o),
(181,-14,o),
(236,-14,cs)
);
}
);
width = 475;
},
{
layerId = "ADAF9463-560A-4353-9B5A-2FAD12EBF6B5";
shapes = (
{
closed = 1;
nodes = (
(165,169,l),
(165,183,ls),
(165,263,o),
(185,305,o),
(223,357,cs),
(269,415,o),
(315,470,o),
(315,562,cs),
(315,666,o),
(259,724,o),
(180,724,cs),
(132,724,o),
(104,716,o),
(71,703,c),
(81,678,l),
(108,692,o),
(132,699,o),
(172,699,cs),
(242,699,o),
(293,657,o),
(293,565,cs),
(293,481,o),
(256,432,o),
(203,366,cs),
(161,314,o),
(151,276,o),
(151,187,cs),
(151,169,l)
);
},
{
closed = 1;
nodes = (
(178,-6,o),
(180,9,o),
(180,30,cs),
(180,50,o),
(179,65,o),
(157,65,cs),
(136,65,o),
(135,47,o),
(135,30,cs),
(135,11,o),
(137,-6,o),
(157,-6,cs)
);
}
);
width = 388;
},
{
layerId = "D7742CE6-1B18-47A0-AEB5-463D77EA217C";
shapes = (
{
closed = 1;
nodes = (
(214,198,l),
(214,218,ls),
(214,274,o),
(230,305,o),
(271,363,cs),
(314,423,o),
(350,474,o),
(350,557,cs),
(350,661,o),
(291,724,o),
(200,724,cs),
(148,724,o),
(103,711,o),
(67,693,c),
(97,629,l),
(125,644,o),
(154,654,o),
(191,654,cs),
(244,654,o),
(275,620,o),
(275,558,cs),
(275,494,o),
(251,454,o),
(207,392,cs),
(168,339,o),
(154,299,o),
(154,226,cs),
(154,198,l)
);
},
{
closed = 1;
nodes = (
(216,-9,o),
(237,11,o),
(237,53,cs),
(237,96,o),
(217,114,o),
(185,114,cs),
(152,114,o),
(134,93,o),
(134,53,cs),
(134,13,o),
(153,-9,o),
(185,-9,cs)
);
}
);
width = 419;
},
{
layerId = "F138D99C-4E28-42C5-9F3E-22494052B08F";
shapes = (
{
closed = 1;
nodes = (
(297,248,l),
(297,276,ls),
(297,293,o),
(306,305,o),
(353,374,cs),
(390,437,o),
(408,480,o),
(408,550,cs),
(408,652,o),
(345,724,o),
(234,724,cs),
(176,724,o),
(101,702,o),
(61,676,c),
(123,546,l),
(155,562,o),
(191,578,o),
(224,578,cs),
(247,578,o),
(244,556,o),
(244,546,cs),
(244,516,o),
(244,491,o),
(213,435,cs),
(181,380,o),
(159,337,o),
(159,292,cs),
(159,248,l)
);
},
{
closed = 1;
nodes = (
(282,-14,o),
(332,14,o),
(332,91,cs),
(332,173,o),
(283,197,o),
(233,197,cs),
(178,197,o),
(132,170,o),
(132,91,cs),
(132,16,o),
(179,-14,o),
(233,-14,cs)
);
}
);
width = 471;
}
);
unicode = 63;
}
{
glyphname = bracketleft.beng;
layers = (
{
associatedMasterId = UUID0;
attr = {
coordinates = (
151,
100
);
};
background = {
shapes = (
{
closed = 1;
nodes = (
(132.68,-128.9,l),
(362.06,-128.9,l),
(362.06,-25.96,l),
(258.43,-25.96,l),
(258.43,689.06,l),
(362.06,689.06,l),
(362.06,792,l),
(132.68,792,l)
);
}
);
};
layerId = "236aa1c5-9150-4e1c-8f1f-9551ca9e15f2";
name = "Bold Semi (intermediate)";
shapes = (
{
closed = 1;
nodes = (
(134,-125,l),
(371,-125,l),
(371,-22,l),
(261,-22,l),
(261,689,l),
(371,689,l),
(371,792,l),
(134,792,l)
);
}
);
width = 452;
},
{
background = {
shapes = (
{
closed = 1;
nodes = (
(140,-135,l),
(334,-135,l),
(334,-65,l),
(220,-65,l),
(220,722,l),
(334,722,l),
(334,792,l),
(140,792,l)
);
}
);
};
layerId = UUID0;
shapes = (
{
closed = 1;
nodes = (
(140,-135,l),
(334,-135,l),
(334,-65,l),
(220,-65,l),
(220,722,l),
(334,722,l),
(334,792,l),
(140,792,l)
);
}
);
width = 415;
},
{
layerId = "28FB090A-653E-4199-B7BE-FAE23D31B682";
shapes = (
{
closed = 1;
nodes = (
(145,-135,l),
(294,-135,l),
(294,-109,l),
(171,-109,l),
(171,766,l),
(294,766,l),
(294,792,l),
(145,792,l)
);
}
);
width = 375;
},
{
layerId = "F455777D-7EDD-47E2-866A-D8A5173CE243";
shapes = (
{
closed = 1;
nodes = (
(128,-125,l),
(380,-125,l),
(380,-1,l),
(283,-1,l),
(283,668,l),
(380,668,l),
(380,792,l),
(128,792,l)
);
}
);
width = 451;
},
{
background = {
shapes = (
{
closed = 1;
nodes = (
(109,-135,l),
(221,-135,l),
(221,-112,l),
(129,-112,l),
(129,769,l),
(221,769,l),
(221,792,l),
(109,792,l)
);
}
);
};
layerId = m004;
shapes = (
{
closed = 1;
nodes = (
(109,-135,l),
(221,-135,l),
(221,-112,l),
(129,-112,l),
(129,769,l),
(221,769,l),
(221,792,l),
(109,792,l)
);
}
);
width = 282;
},
{
associatedMasterId = m005;
attr = {
coordinates = (
151,
70
);
};
background = {
shapes = (
{
closed = 1;
nodes = (
(132.68,-128.9,l),
(362.06,-128.9,l),
(362.06,-25.96,l),
(258.43,-25.96,l),
(258.43,689.06,l),
(362.06,689.06,l),
(362.06,792,l),
(132.68,792,l)
);
}
);
};
layerId = "C3C3EF4E-7396-492B-9BB9-6D980F9567E7";
name = "Bold Semi (intermediate)";
shapes = (
{
closed = 1;
nodes = (
(93,-126,l),
(289,-126,l),
(289,-26,l),
(222,-26,l),
(222,692,l),
(289,692,l),
(289,792,l),
(93,792,l)
);
}
);
width = 338;
},
{
background = {
shapes = (
{
closed = 1;
nodes = (
(140,-135,l),
(334,-135,l),
(334,-65,l),
(220,-65,l),
(220,722,l),
(334,722,l),
(334,792,l),
(140,792,l)
);
}
);
};
layerId = m005;
shapes = (
{
closed = 1;
nodes = (
(140,-135,l),
(334,-135,l),
(334,-65,l),
(220,-65,l),
(220,722,l),
(334,722,l),
(334,792,l),
(140,792,l)
);
}
);
width = 415;
},
{
background = {
shapes = (
{
closed = 1;
nodes = (
(92,-125,l),
(303,-125,l),
(303,-9,l),
(243,-9,l),
(243,676,l),
(303,676,l),
(303,792,l),
(92,792,l)
);
}
);
};
layerId = m006;
shapes = (
{
closed = 1;
nodes = (
(92,-125,l),
(303,-125,l),
(303,-9,l),
(243,-9,l),
(243,676,l),
(303,676,l),
(303,792,l),
(92,792,l)
);
}
);
width = 346;
},
{
layerId = "ADAF9463-560A-4353-9B5A-2FAD12EBF6B5";
shapes = (
{
closed = 1;
nodes = (
(101,-135,l),
(209,-135,l),
(209,-109,l),
(124,-109,l),
(124,767,l),
(209,767,l),
(209,792,l),
(101,792,l)
);
}
);
width = 266;
}
);
unicode = 91;
}
{
color = 0;
glyphname = backslash.beng;
layers = (
{
background = {
shapes = (
{
closed = 1;
nodes = (
(315,-135,l),
(397,-135,l),
(134,792,l),
(52,792,l)
);
}
);
};
layerId = UUID0;
shapes = (
{
closed = 1;
nodes = (
(315,-135,l),
(397,-135,l),
(134,792,l),
(52,792,l)
);
}
);
width = 449;
},
{
layerId = "28FB090A-653E-4199-B7BE-FAE23D31B682";
shapes = (
{
closed = 1;
nodes = (
(319,-135,l),
(346,-135,l),
(85,792,l),
(58,792,l)
);
}
);
width = 404;
},
{
layerId = "F455777D-7EDD-47E2-866A-D8A5173CE243";
shapes = (
{
closed = 1;
nodes = (
(339,-125,l),
(501,-125,l),
(215,792,l),
(53,792,l)
);
}
);
width = 555;
},
{
layerId = m005;
shapes = (
{
closed = 1;
nodes = (
(296,-135,l),
(372,-135,l),
(123,792,l),
(47,792,l)
);
}
);
width = 419;
},
{
layerId = m006;
shapes = (
{
closed = 1;
nodes = (
(302,-129,l),
(460,-129,l),
(201,792,l),
(44,792,l)
);
}
);
width = 503;
},
{
layerId = "ADAF9463-560A-4353-9B5A-2FAD12EBF6B5";
shapes = (
{
closed = 1;
nodes = (
(292,-139,l),
(316,-139,l),
(73,792,l),
(49,792,l)
);
}
);
width = 365;
},
{
layerId = "D7742CE6-1B18-47A0-AEB5-463D77EA217C";
shapes = (
{
closed = 1;
nodes = (
(296,-135,l),
(367,-135,l),
(119,792,l),
(47,792,l)
);
}
);
width = 414;
},
{
layerId = "F138D99C-4E28-42C5-9F3E-22494052B08F";
shapes = (
{
closed = 1;
nodes = (
(302,-129,l),
(454,-129,l),
(196,792,l),
(44,792,l)
);
}
);
width = 497;
}
);
unicode = 92;
}
{
color = 0;
glyphname = bracketright.beng;
layers = (
{
associatedMasterId = UUID0;
attr = {
coordinates = (
151,
100
);
};
background = {
shapes = (
{
closed = 1;
nodes = (
(74.9,-128.9,l),
(304.28,-128.9,l),
(304.28,788.1,l),
(74.9,788.1,l),
(74.9,685.16,l),
(178.14,685.16,l),
(178.14,-25.96,l),
(74.9,-25.96,l)
);
}
);
};
layerId = "53b48389-c9f3-4391-95ac-b309524a3e0b";
name = "Bold Semi (intermediate)";
shapes = (
{
closed = 1;
nodes = (
(77,-125,l),
(313,-125,l),
(313,792,l),
(77,792,l),
(77,689,l),
(186,689,l),
(186,-22,l),
(77,-22,l)
);
}
);
width = 452;
},
{
background = {
shapes = (
{
closed = 1;
nodes = (
(81,-135,l),
(275,-135,l),
(275,782,l),
(81,782,l),
(81,712,l),
(194,712,l),
(194,-65,l),
(81,-65,l)
);
}
);
};
layerId = UUID0;
shapes = (
{
closed = 1;
nodes = (
(81,-135,l),
(275,-135,l),
(275,782,l),
(81,782,l),
(81,712,l),
(194,712,l),
(194,-65,l),
(81,-65,l)
);
}
);
width = 415;
},
{
layerId = "28FB090A-653E-4199-B7BE-FAE23D31B682";
shapes = (
{
closed = 1;
nodes = (
(81,-135,l),
(230,-135,l),
(230,792,l),
(81,792,l),
(81,766,l),
(204,766,l),
(204,-109,l),
(81,-109,l)
);
}
);
width = 375;
},
{
layerId = "F455777D-7EDD-47E2-866A-D8A5173CE243";
shapes = (
{
closed = 1;
nodes = (
(71,-125,l),
(323,-125,l),
(323,792,l),
(71,792,l),
(71,668,l),
(168,668,l),
(168,-1,l),
(71,-1,l)
);
}
);
width = 451;
},
{
associatedMasterId = m005;
attr = {
coordinates = (
151,
70
);
};
background = {
shapes = (
{
closed = 1;
nodes = (
(74.9,-128.9,l),
(304.28,-128.9,l),
(304.28,788.1,l),
(74.9,788.1,l),
(74.9,685.16,l),
(178.14,685.16,l),
(178.14,-25.96,l),
(74.9,-25.96,l)
);
}
);
};
layerId = "D06A051B-0B5C-41AC-95EE-C7E6FA471A2B";
name = "Bold Semi (intermediate)";
shapes = (
{
closed = 1;
nodes = (
(50,-126,l),
(246,-126,l),
(246,791,l),
(50,791,l),
(50,691,l),
(117,691,l),
(117,-26,l),
(50,-26,l)
);
}
);
width = 337;
},
{
layerId = m005;
shapes = (
{
closed = 1;
nodes = (
(71,-135,l),
(241,-135,l),
(241,792,l),
(71,792,l),
(71,725,l),
(162,725,l),
(162,-68,l),
(71,-68,l)
);
}
);
width = 379;
},
{
layerId = m006;
shapes = (
{
closed = 1;
nodes = (
(68,-129,l),
(308,-129,l),
(308,789,l),
(68,789,l),
(68,659,l),
(148,659,l),
(148,1,l),
(68,1,l)
);
}
);
width = 441;
},
{
layerId = "ADAF9463-560A-4353-9B5A-2FAD12EBF6B5";
shapes = (
{
closed = 1;
nodes = (
(73,-139,l),
(198,-139,l),
(198,794,l),
(73,794,l),
(73,767,l),
(171,767,l),
(171,-112,l),
(73,-112,l)
);
}
);
width = 339;
}
);
unicode = 93;
}
{
glyphname = asciicircum.beng;
layers = (
{
background = {
shapes = (
{
closed = 1;
nodes = (
(49,268,l),
(128,268,l),
(298,627,l),
(463,268,l),
(541,268,l),
(323,719,l),
(273,719,l)
);
}
);
};
layerId = UUID0;
shapes = (
{
closed = 1;
nodes = (
(49,268,l),
(128,268,l),
(298,627,l),
(463,268,l),
(541,268,l),
(323,719,l),
(273,719,l)
);
}
);
width = 592;
},
{
layerId = "28FB090A-653E-4199-B7BE-FAE23D31B682";
shapes = (
{
closed = 1;
nodes = (
(67,284,l),
(97,284,l),
(298,694,l),
(494,284,l),
(524,284,l),
(313,720,l),
(283,720,l)
);
}
);
width = 592;
},
{
layerId = "F455777D-7EDD-47E2-866A-D8A5173CE243";
shapes = (
{
closed = 1;
nodes = (
(41,244,l),
(189,244,l),
(318,525,l),
(446,244,l),
(595,244,l),
(361,717,l),
(275,717,l)
);
}
);
width = 637;
},
{
background = {
shapes = (
{
closed = 1;
nodes = (
(50,285,l),
(73,285,l),
(223,699,l),
(370,285,l),
(393,285,l),
(235,720,l),
(212,720,l)
);
}
);
};
layerId = m004;
shapes = (
{
closed = 1;
nodes = (
(50,285,l),
(73,285,l),
(223,699,l),
(370,285,l),
(393,285,l),
(235,720,l),
(212,720,l)
);
}
);
width = 444;
},
{
background = {
shapes = (
{
closed = 1;
nodes = (
(35,269,l),
(108,269,l),
(227,632,l),
(344,269,l),
(416,269,l),
(250,719,l),
(205,719,l)
);
}
);
};
layerId = m005;
shapes = (
{
closed = 1;
nodes = (
(35,269,l),
(108,269,l),
(227,632,l),
(344,269,l),
(416,269,l),
(250,719,l),
(205,719,l)
);
}
);
width = 452;
},
{
background = {
shapes = (
{
closed = 1;
nodes = (
(29,247,l),
(167,247,l),
(252,537,l),
(338,247,l),
(477,247,l),
(292,717,l),
(213,717,l)
);
}
);
};
layerId = m006;
shapes = (
{
closed = 1;
nodes = (
(29,247,l),
(167,247,l),
(252,537,l),
(338,247,l),
(477,247,l),
(292,717,l),
(213,717,l)
);
}
);
width = 506;
},
{
background = {
shapes = (
{
closed = 1;
nodes = (
(50,285,l),
(73,285,l),
(223,699,l),
(370,285,l),
(393,285,l),
(235,720,l),
(212,720,l)
);
}
);
};
layerId = m007;
shapes = (
{
closed = 1;
nodes = (
(39,285,l),
(60,285,l),
(178,699,l),
(293,285,l),
(314,285,l),
(188,720,l),
(168,720,l)
);
}
);
width = 354;
},
{
background = {
shapes = (
{
closed = 1;
nodes = (
(35,269,l),
(108,269,l),
(227,632,l),
(344,269,l),
(416,269,l),
(250,719,l),
(205,719,l)
);
}
);
};
layerId = m008;
shapes = (
{
closed = 1;
nodes = (
(35,269,l),
(108,269,l),
(227,632,l),
(344,269,l),
(416,269,l),
(250,719,l),
(205,719,l)
);
}
);
width = 452;
},
{
background = {
shapes = (
{
closed = 1;
nodes = (
(29,247,l),
(167,247,l),
(252,537,l),
(338,247,l),
(477,247,l),
(292,717,l),
(213,717,l)
);
}
);
};
layerId = m009;
shapes = (
{
closed = 1;
nodes = (
(29,247,l),
(167,247,l),
(252,537,l),
(338,247,l),
(477,247,l),
(292,717,l),
(213,717,l)
);
}
);
width = 506;
},
{
layerId = "ADAF9463-560A-4353-9B5A-2FAD12EBF6B5";
shapes = (
{
closed = 1;
nodes = (
(45,284,l),
(70,284,l),
(207,695,l),
(341,284,l),
(366,284,l),
(219,720,l),
(196,720,l)
);
}
);
width = 412;
}
);
unicode = 94;
}
{
color = 0;
glyphname = underscore.beng;
layers = (
{
background = {
shapes = (
{
closed = 1;
nodes = (
(-2,-158,l),
(413,-158,l),
(413,-90,l),
(-2,-90,l)
);
}
);
};
layerId = UUID0;
shapes = (
{
closed = 1;
nodes = (
(-2,-158,l),
(413,-158,l),
(413,-90,l),
(-2,-90,l)
);
}
);
width = 411;
},
{
layerId = "28FB090A-653E-4199-B7BE-FAE23D31B682";
shapes = (
{
closed = 1;
nodes = (
(-2,-116,l),
(413,-116,l),
(413,-90,l),
(-2,-90,l)
);
}
);
width = 411;
},
{
layerId = "F455777D-7EDD-47E2-866A-D8A5173CE243";
shapes = (
{
closed = 1;
nodes = (
(-2,-158,l),
(413,-158,l),
(413,-90,l),
(-2,-90,l)
);
}
);
width = 411;
},
{
layerId = m005;
shapes = (
{
closed = 1;
nodes = (
(0,-155,l),
(296,-155,l),
(296,-90,l),
(0,-90,l)
);
}
);
width = 296;
},
{
layerId = m006;
shapes = (
{
closed = 1;
nodes = (
(0,-194,l),
(296,-194,l),
(296,-90,l),
(0,-90,l)
);
}
);
width = 296;
},
{
layerId = "ADAF9463-560A-4353-9B5A-2FAD12EBF6B5";
shapes = (
{
closed = 1;
nodes = (
(0,-130,l),
(296,-130,l),
(296,-90,l),
(0,-90,l)
);
}
);
width = 296;
}
);
unicode = 95;
}
{
glyphname = braceleft.beng;
layers = (
{
associatedMasterId = UUID0;
attr = {
coordinates = (
151,
100
);
};
background = {
shapes = (
{
closed = 1;
nodes = (
(60.47,267.82,l),
(128.27,267.82,o),
(181.64,244.04,o),
(181.64,182.09,cs),
(181.64,28.57,ls),
(181.64,-81.8,o),
(237.78,-128.12,o),
(401.05,-128.9,c),
(401.05,-17.86,l),
(355.81,-16.47,o),
(309.61,-10.57,o),
(309.61,43.5,cs),
(309.61,204.78,ls),
(309.61,277.66,o),
(270.17,312,o),
(196.9,324.39,c),
(196.9,330,l),
(268.95,341.56,o),
(309.61,376.29,o),
(309.61,451.83,cs),
(309.61,619.99,ls),
(309.61,674.28,o),
(355.2,679.96,o),
(401.05,680.96,c),
(401.05,792,l),
(235.95,791.22,o),
(181.64,744.29,o),
(181.64,635.75,cs),
(181.64,472.08,ls),
(181.64,409.52,o),
(129.49,386.35,o),
(60.47,386.35,c)
);
}
);
};
layerId = "26f64c76-bfc9-481c-9684-e4c5f08e892e";
name = "Bold Semi (intermediate)";
shapes = (
{
closed = 1;
nodes = (
(81,274,l),
(163,274,o),
(206,246,o),
(206,172,cs),
(206,34,ls),
(206,-78,o),
(249,-125,o),
(420,-125,c),
(420,-14,l),
(367,-13,o),
(333,2,o),
(333,68,cs),
(333,201,ls),
(333,274,o),
(295,317,o),
(221,330,c),
(221,336,l),
(295,350,o),
(333,393,o),
(333,465,cs),
(333,600,ls),
(333,666,o),
(367,680,o),
(420,682,c),
(420,792,l),
(249,792,o),
(206,745,o),
(206,633,cs),
(206,492,l),
(206,419,o),
(162,391,o),
(81,391,c)
);
}
);
width = 501;
},
{
background = {
shapes = (
{
closed = 1;
nodes = (
(44,291,l),
(124,291,o),
(167,266,o),
(167,201,cs),
(167,6,ls),
(167,-94,o),
(239,-133,o),
(337,-135,c),
(337,-63,l),
(282,-61,o),
(248,-49,o),
(248,13,cs),
(248,206,ls),
(248,274,o),
(211,312,o),
(142,325,c),
(142,330,l),
(211,344,o),
(248,383,o),
(248,450,cs),
(248,645,ls),
(248,706,o),
(282,719,o),
(337,720,c),
(337,792,l),
(239,790,o),
(167,751,o),
(167,651,cs),
(167,455,ls),
(167,390,o),
(124,365,o),
(44,365,c)
);
}
);
};
layerId = UUID0;
shapes = (
{
closed = 1;
nodes = (
(44,291,l),
(124,291,o),
(167,266,o),
(167,201,cs),
(167,6,ls),
(167,-94,o),
(239,-133,o),
(337,-135,c),
(337,-63,l),
(282,-61,o),
(248,-49,o),
(248,13,cs),
(248,206,ls),
(248,274,o),
(211,312,o),
(142,325,c),
(142,330,l),
(211,344,o),
(248,383,o),
(248,450,cs),
(248,645,ls),
(248,706,o),
(282,719,o),
(337,720,c),
(337,792,l),
(239,790,o),
(167,751,o),
(167,651,cs),
(167,455,ls),
(167,390,o),
(124,365,o),
(44,365,c)
);
}
);
width = 391;
},
{
layerId = "28FB090A-653E-4199-B7BE-FAE23D31B682";
shapes = (
{
closed = 1;
nodes = (
(81,315,l),
(162,315,o),
(192,285,o),
(192,200,cs),
(192,-3,ls),
(192,-101,o),
(238,-135,o),
(355,-135,c),
(355,-110,l),
(249,-110,o),
(217,-84,o),
(217,3,cs),
(217,204,ls),
(217,279,o),
(196,313,o),
(139,326,c),
(139,328,l),
(197,339,o),
(217,385,o),
(217,453,cs),
(217,651,ls),
(217,732,o),
(259,767,o),
(355,767,c),
(355,792,l),
(247,792,o),
(192,744,o),
(192,657,cs),
(192,457,ls),
(192,371,o),
(162,339,o),
(81,339,c)
);
}
);
width = 436;
},
{
layerId = "F455777D-7EDD-47E2-866A-D8A5173CE243";
shapes = (
{
closed = 1;
nodes = (
(71,253,l),
(131,253,o),
(191,230,o),
(191,170,cs),
(191,43,ls),
(191,-74,o),
(237,-125,o),
(442,-125,c),
(442,11,l),
(403,12,o),
(349,14,o),
(349,63,cs),
(349,204,ls),
(349,280,o),
(308,312,o),
(232,324,c),
(232,330,l),
(306,340,o),
(349,372,o),
(349,453,cs),
(349,604,ls),
(349,654,o),
(402,655,o),
(442,656,c),
(442,792,l),
(234,792,o),
(191,740,o),
(191,626,cs),
(191,483,ls),
(191,422,o),
(133,400,o),
(71,400,c)
);
}
);
width = 513;
},
{
associatedMasterId = m005;
attr = {
coordinates = (
151,
70
);
};
background = {
shapes = (
{
closed = 1;
nodes = (
(60.47,267.82,l),
(128.27,267.82,o),
(181.64,244.04,o),
(181.64,182.09,cs),
(181.64,28.57,ls),
(181.64,-81.8,o),
(237.78,-128.12,o),
(401.05,-128.9,c),
(401.05,-17.86,l),
(355.81,-16.47,o),
(309.61,-10.57,o),
(309.61,43.5,cs),
(309.61,204.78,ls),
(309.61,277.66,o),
(270.17,312,o),
(196.9,324.39,c),
(196.9,330,l),
(268.95,341.56,o),
(309.61,376.29,o),
(309.61,451.83,cs),
(309.61,619.99,ls),
(309.61,674.28,o),
(355.2,679.96,o),
(401.05,680.96,c),
(401.05,792,l),
(235.95,791.22,o),
(181.64,744.29,o),
(181.64,635.75,cs),
(181.64,472.08,ls),
(181.64,409.52,o),
(129.49,386.35,o),
(60.47,386.35,c)
);
}
);
};
layerId = "BF8D5293-52FA-4173-97CE-0CAB669A8EE3";
name = "Bold Semi (intermediate)";
shapes = (
{
closed = 1;
nodes = (
(49,275,l),
(84,275,o),
(137,248,o),
(137,174,cs),
(137,32,ls),
(137,-78,o),
(172,-126,o),
(342,-126,c),
(342,-18,l),
(319,-17,o),
(270,-2,o),
(270,63,cs),
(270,201,ls),
(270,270,o),
(241,316,o),
(179,330,c),
(179,335,l),
(235,349,o),
(270,392,o),
(270,464,cs),
(270,604,ls),
(270,667,o),
(315,683,o),
(342,685,c),
(342,792,l),
(170,792,o),
(137,746,o),
(137,634,cs),
(137,489,l),
(137,417,o),
(87,389,o),
(49,389,c)
);
}
);
width = 391;
},
{
background = {
shapes = (
{
closed = 1;
nodes = (
(44,291,l),
(124,291,o),
(167,266,o),
(167,201,cs),
(167,6,ls),
(167,-94,o),
(239,-133,o),
(337,-135,c),
(337,-63,l),
(282,-61,o),
(248,-49,o),
(248,13,cs),
(248,206,ls),
(248,274,o),
(211,312,o),
(142,325,c),
(142,330,l),
(211,344,o),
(248,383,o),
(248,450,cs),
(248,645,ls),
(248,706,o),
(282,719,o),
(337,720,c),
(337,792,l),
(239,790,o),
(167,751,o),
(167,651,cs),
(167,455,ls),
(167,390,o),
(124,365,o),
(44,365,c)
);
}
);
};
layerId = m005;
shapes = (
{
closed = 1;
nodes = (
(44,291,l),
(124,291,o),
(167,266,o),
(167,201,cs),
(167,6,ls),
(167,-94,o),
(239,-133,o),
(337,-135,c),
(337,-63,l),
(282,-61,o),
(248,-49,o),
(248,13,cs),
(248,206,ls),
(248,274,o),
(211,312,o),
(142,325,c),
(142,330,l),
(211,344,o),
(248,383,o),
(248,450,cs),
(248,645,ls),
(248,706,o),
(282,719,o),
(337,720,c),
(337,792,l),
(239,790,o),
(167,751,o),
(167,651,cs),
(167,455,ls),
(167,390,o),
(124,365,o),
(44,365,c)
);
}
);
width = 391;
},
{
background = {
shapes = (
{
closed = 1;
nodes = (
(43,261,l),
(64,261,o),
(130,236,o),
(130,171,cs),
(130,40,ls),
(130,-75,o),
(169,-125,o),
(365,-125,c),
(365,2,l),
(350,3,o),
(287,10,o),
(287,65,cs),
(287,203,ls),
(287,279,o),
(251,314,o),
(191,326,c),
(191,332,l),
(250,344,o),
(287,382,o),
(287,457,cs),
(287,603,ls),
(287,657,o),
(346,664,o),
(365,666,c),
(365,792,l),
(163,792,o),
(130,742,o),
(130,629,cs),
(130,486,ls),
(130,421,o),
(69,397,o),
(43,397,c)
);
}
);
};
layerId = m006;
shapes = (
{
closed = 1;
nodes = (
(43,261,l),
(64,261,o),
(130,236,o),
(130,171,cs),
(130,40,ls),
(130,-75,o),
(169,-125,o),
(365,-125,c),
(365,2,l),
(350,3,o),
(287,10,o),
(287,65,cs),
(287,203,ls),
(287,279,o),
(251,314,o),
(191,326,c),
(191,332,l),
(250,344,o),
(287,382,o),
(287,457,cs),
(287,603,ls),
(287,657,o),
(346,664,o),
(365,666,c),
(365,792,l),
(163,792,o),
(130,742,o),
(130,629,cs),
(130,486,ls),
(130,421,o),
(69,397,o),
(43,397,c)
);
}
);
width = 408;
},
{
layerId = "ADAF9463-560A-4353-9B5A-2FAD12EBF6B5";
shapes = (
{
closed = 1;
nodes = (
(56,316,l),
(112,316,o),
(134,285,o),
(134,199,cs),
(134,-3,ls),
(134,-101,o),
(167,-135,o),
(251,-135,c),
(251,-110,l),
(178,-110,o),
(156,-83,o),
(156,4,cs),
(156,204,ls),
(156,280,o),
(140,313,o),
(100,326,c),
(100,328,l),
(142,339,o),
(156,387,o),
(156,453,cs),
(156,650,ls),
(156,731,o),
(185,767,o),
(251,767,c),
(251,792,l),
(174,792,o),
(134,745,o),
(134,656,cs),
(134,458,ls),
(134,371,o),
(112,339,o),
(56,339,c)
);
}
);
width = 307;
}
);
unicode = 123;
}
{
color = 0;
glyphname = bar.beng;
layers = (
{
background = {
shapes = (
{
closed = 1;
nodes = (
(234,-135,l),
(306,-135,l),
(306,792,l),
(234,792,l)
);
}
);
};
layerId = UUID0;
shapes = (
{
closed = 1;
nodes = (
(234,-135,l),
(306,-135,l),
(306,792,l),
(234,792,l)
);
}
);
width = 540;
},
{
layerId = "28FB090A-653E-4199-B7BE-FAE23D31B682";
shapes = (
{
closed = 1;
nodes = (
(257,-135,l),
(283,-135,l),
(283,792,l),
(257,792,l)
);
}
);
width = 540;
},
{
layerId = "F455777D-7EDD-47E2-866A-D8A5173CE243";
shapes = (
{
closed = 1;
nodes = (
(201,-125,l),
(336,-125,l),
(336,792,l),
(201,792,l)
);
}
);
width = 540;
},
{
layerId = m005;
shapes = (
{
closed = 1;
nodes = (
(165,-135,l),
(232,-135,l),
(232,792,l),
(165,792,l)
);
}
);
width = 396;
},
{
layerId = m006;
shapes = (
{
closed = 1;
nodes = (
(132,-129,l),
(265,-129,l),
(265,792,l),
(132,792,l)
);
}
);
width = 396;
},
{
layerId = "ADAF9463-560A-4353-9B5A-2FAD12EBF6B5";
shapes = (
{
closed = 1;
nodes = (
(186,-139,l),
(211,-139,l),
(211,792,l),
(186,792,l)
);
}
);
width = 396;
}
);
unicode = 124;
}
{
glyphname = braceright.beng;
layers = (
{
associatedMasterId = UUID0;
attr = {
coordinates = (
151,
100
);
};
background = {
shapes = (
{
closed = 1;
nodes = (
(415.48,394.28,l),
(347.68,394.28,o),
(294.7,418.06,o),
(294.7,480.01,cs),
(294.7,634.53,ls),
(294.7,744.9,o),
(238.17,791.22,o),
(74.9,792,c),
(74.9,680.96,l),
(120.53,679.96,o),
(166.34,673.67,o),
(166.34,619.99,cs),
(166.34,457.32,ls),
(166.34,384.83,o),
(205.39,350.1,o),
(279.05,337.32,c),
(279.05,331.71,l),
(206.61,320.54,o),
(166.34,286.2,o),
(166.34,210.27,cs),
(166.34,43.5,ls),
(166.34,-11.18,o),
(121.14,-16.47,o),
(74.9,-17.86,c),
(74.9,-128.9,l),
(240,-128.12,o),
(294.7,-81.19,o),
(294.7,27.35,cs),
(294.7,190.02,ls),
(294.7,252.58,o),
(346.46,275.75,o),
(415.48,275.75,c)
);
}
);
};
layerId = "5f969bd0-cb43-4f27-8e27-6ed4f659d0da";
name = "Bold Semi (intermediate)";
shapes = (
{
closed = 1;
nodes = (
(420,392,l),
(338,392,o),
(292,420,o),
(292,494,cs),
(292,633,ls),
(292,745,o),
(252,792,o),
(81,792,c),
(81,681,l),
(134,680,o),
(165,665,o),
(165,599,cs),
(165,465,ls),
(165,392,o),
(205,349,o),
(280,336,c),
(280,330,l),
(206,316,o),
(165,273,o),
(165,201,cs),
(165,67,ls),
(165,1,o),
(134,-13,o),
(81,-15,c),
(81,-125,l),
(252,-125,o),
(292,-78,o),
(292,34,cs),
(292,174,ls),
(292,247,o),
(339,275,o),
(420,275,c)
);
}
);
width = 501;
},
{
background = {
shapes = (
{
closed = 1;
nodes = (
(374,365,l),
(294,365,o),
(252,390,o),
(252,455,cs),
(252,651,ls),
(252,751,o),
(179,790,o),
(81,792,c),
(81,720,l),
(137,719,o),
(170,706,o),
(170,645,cs),
(170,450,ls),
(170,383,o),
(206,344,o),
(276,330,c),
(276,325,l),
(206,312,o),
(170,274,o),
(170,206,cs),
(170,13,ls),
(170,-49,o),
(137,-61,o),
(81,-63,c),
(81,-135,l),
(179,-133,o),
(252,-94,o),
(252,6,cs),
(252,201,ls),
(252,266,o),
(294,291,o),
(374,291,c)
);
}
);
};
layerId = UUID0;
shapes = (
{
closed = 1;
nodes = (
(374,365,l),
(294,365,o),
(252,390,o),
(252,455,cs),
(252,651,ls),
(252,751,o),
(179,790,o),
(81,792,c),
(81,720,l),
(137,719,o),
(170,706,o),
(170,645,cs),
(170,450,ls),
(170,383,o),
(206,344,o),
(276,330,c),
(276,325,l),
(206,312,o),
(170,274,o),
(170,206,cs),
(170,13,ls),
(170,-49,o),
(137,-61,o),
(81,-63,c),
(81,-135,l),
(179,-133,o),
(252,-94,o),
(252,6,cs),
(252,201,ls),
(252,266,o),
(294,291,o),
(374,291,c)
);
}
);
width = 455;
},
{
layerId = "28FB090A-653E-4199-B7BE-FAE23D31B682";
shapes = (
{
closed = 1;
nodes = (
(355,341,l),
(274,341,o),
(244,371,o),
(244,456,cs),
(244,660,ls),
(244,758,o),
(198,792,o),
(81,792,c),
(81,767,l),
(187,767,o),
(219,741,o),
(219,654,cs),
(219,452,ls),
(219,377,o),
(240,343,o),
(297,330,c),
(297,328,l),
(239,317,o),
(219,271,o),
(219,203,cs),
(219,6,ls),
(219,-75,o),
(177,-110,o),
(81,-110,c),
(81,-135,l),
(189,-135,o),
(244,-87,o),
(244,0,cs),
(244,199,ls),
(244,285,o),
(274,317,o),
(355,317,c)
);
}
);
width = 436;
},
{
layerId = "F455777D-7EDD-47E2-866A-D8A5173CE243";
shapes = (
{
closed = 1;
nodes = (
(442,413,l),
(382,413,o),
(322,436,o),
(322,496,cs),
(322,624,ls),
(322,741,o),
(276,792,o),
(71,792,c),
(71,656,l),
(110,655,o),
(164,653,o),
(164,604,cs),
(164,462,ls),
(164,386,o),
(205,354,o),
(281,342,c),
(281,336,l),
(207,326,o),
(164,294,o),
(164,213,cs),
(164,63,ls),
(164,13,o),
(111,12,o),
(71,11,c),
(71,-125,l),
(279,-125,o),
(322,-73,o),
(322,41,cs),
(322,183,ls),
(322,244,o),
(380,266,o),
(442,266,c)
);
}
);
width = 513;
},
{
associatedMasterId = m005;
attr = {
coordinates = (
151,
70
);
};
background = {
shapes = (
{
closed = 1;
nodes = (
(415.48,394.28,l),
(347.68,394.28,o),
(294.7,418.06,o),
(294.7,480.01,cs),
(294.7,634.53,ls),
(294.7,744.9,o),
(238.17,791.22,o),
(74.9,792,c),
(74.9,680.96,l),
(120.53,679.96,o),
(166.34,673.67,o),
(166.34,619.99,cs),
(166.34,457.32,ls),
(166.34,384.83,o),
(205.39,350.1,o),
(279.05,337.32,c),
(279.05,331.71,l),
(206.61,320.54,o),
(166.34,286.2,o),
(166.34,210.27,cs),
(166.34,43.5,ls),
(166.34,-11.18,o),
(121.14,-16.47,o),
(74.9,-17.86,c),
(74.9,-128.9,l),
(240,-128.12,o),
(294.7,-81.19,o),
(294.7,27.35,cs),
(294.7,190.02,ls),
(294.7,252.58,o),
(346.46,275.75,o),
(415.48,275.75,c)
);
}
);
};
layerId = "5A90915C-3BC1-4DCE-968E-72458B222069";
name = "Bold Semi (intermediate)";
shapes = (
{
closed = 1;
nodes = (
(342,390,l),
(307,390,o),
(256,418,o),
(256,491,cs),
(256,634,ls),
(256,745,o),
(219,792,o),
(49,792,c),
(49,684,l),
(71,683,o),
(123,669,o),
(123,603,cs),
(123,464,ls),
(123,394,o),
(152,349,o),
(212,335,c),
(212,330,l),
(156,316,o),
(123,273,o),
(123,201,cs),
(123,63,ls),
(123,-3,o),
(73,-17,o),
(49,-19,c),
(49,-126,l),
(221,-126,o),
(256,-80,o),
(256,32,cs),
(256,176,ls),
(256,249,o),
(304,276,o),
(342,276,c)
);
}
);
width = 391;
},
{
background = {
shapes = (
{
closed = 1;
nodes = (
(374,365,l),
(294,365,o),
(252,390,o),
(252,455,cs),
(252,651,ls),
(252,751,o),
(179,790,o),
(81,792,c),
(81,720,l),
(137,719,o),
(170,706,o),
(170,645,cs),
(170,450,ls),
(170,383,o),
(206,344,o),
(276,330,c),
(276,325,l),
(206,312,o),
(170,274,o),
(170,206,cs),
(170,13,ls),
(170,-49,o),
(137,-61,o),
(81,-63,c),
(81,-135,l),
(179,-133,o),
(252,-94,o),
(252,6,cs),
(252,201,ls),
(252,266,o),
(294,291,o),
(374,291,c)
);
}
);
};
layerId = m005;
shapes = (
{
closed = 1;
nodes = (
(374,365,l),
(294,365,o),
(252,390,o),
(252,455,cs),
(252,651,ls),
(252,751,o),
(179,790,o),
(81,792,c),
(81,720,l),
(137,719,o),
(170,706,o),
(170,645,cs),
(170,450,ls),
(170,383,o),
(206,344,o),
(276,330,c),
(276,325,l),
(206,312,o),
(170,274,o),
(170,206,cs),
(170,13,ls),
(170,-49,o),
(137,-61,o),
(81,-63,c),
(81,-135,l),
(179,-133,o),
(252,-94,o),
(252,6,cs),
(252,201,ls),
(252,266,o),
(294,291,o),
(374,291,c)
);
}
);
width = 455;
},
{
background = {
shapes = (
{
closed = 1;
nodes = (
(365,405,l),
(344,405,o),
(282,430,o),
(282,495,cs),
(282,627,ls),
(282,742,o),
(240,792,o),
(43,792,c),
(43,665,l),
(57,664,o),
(125,657,o),
(125,602,cs),
(125,463,ls),
(125,391,o),
(155,353,o),
(217,340,c),
(217,334,l),
(163,323,o),
(125,289,o),
(125,209,cs),
(125,64,ls),
(125,9,o),
(54,2,o),
(43,1,c),
(43,-125,l),
(245,-125,o),
(282,-75,o),
(282,38,cs),
(282,180,ls),
(282,245,o),
(339,269,o),
(365,269,c)
);
}
);
};
layerId = m006;
shapes = (
{
closed = 1;
nodes = (
(365,405,l),
(344,405,o),
(282,430,o),
(282,495,cs),
(282,627,ls),
(282,742,o),
(240,792,o),
(43,792,c),
(43,665,l),
(57,664,o),
(125,657,o),
(125,602,cs),
(125,463,ls),
(125,391,o),
(155,353,o),
(217,340,c),
(217,334,l),
(163,323,o),
(125,289,o),
(125,209,cs),
(125,64,ls),
(125,9,o),
(54,2,o),
(43,1,c),
(43,-125,l),
(245,-125,o),
(282,-75,o),
(282,38,cs),
(282,180,ls),
(282,245,o),
(339,269,o),
(365,269,c)
);
}
);
width = 408;
},
{
layerId = "ADAF9463-560A-4353-9B5A-2FAD12EBF6B5";
shapes = (
{
closed = 1;
nodes = (
(252,341,l),
(196,341,o),
(173,371,o),
(173,457,cs),
(173,660,ls),
(173,758,o),
(141,792,o),
(57,792,c),
(57,767,l),
(128,767,o),
(152,741,o),
(152,654,cs),
(152,452,ls),
(152,377,o),
(168,343,o),
(208,330,c),
(208,328,l),
(166,317,o),
(152,269,o),
(152,203,cs),
(152,7,ls),
(152,-74,o),
(123,-110,o),
(57,-110,c),
(57,-135,l),
(135,-135,o),
(173,-85,o),
(173,1,cs),
(173,198,ls),
(173,285,o),
(196,318,o),
(252,318,c)
);
}
);
width = 309;
}
);
unicode = 125;
}
{
glyphname = asciitilde.beng;
layers = (
{
background = {
shapes = (
{
closed = 1;
nodes = (
(70,256,l),
(102,289,o),
(145,315,o),
(181,315,cs),
(211,315,o),
(231,309,o),
(279,288,cs),
(340,262,o),
(362,257,o),
(400,257,cs),
(448,257,o),
(489,275,o),
(521,310,c),
(521,389,l),
(490,356,o),
(447,330,o),
(410,330,cs),
(382,330,o),
(361,336,o),
(312,357,cs),
(251,383,o),
(229,388,o),
(191,388,cs),
(143,388,o),
(103,371,o),
(70,335,c)
);
}
);
};
layerId = UUID0;
shapes = (
{
closed = 1;
nodes = (
(70,256,l),
(102,289,o),
(145,315,o),
(181,315,cs),
(211,315,o),
(231,309,o),
(279,288,cs),
(340,262,o),
(362,257,o),
(400,257,cs),
(448,257,o),
(489,275,o),
(521,310,c),
(521,389,l),
(490,356,o),
(447,330,o),
(410,330,cs),
(382,330,o),
(361,336,o),
(312,357,cs),
(251,383,o),
(229,388,o),
(191,388,cs),
(143,388,o),
(103,371,o),
(70,335,c)
);
}
);
width = 592;
},
{
layerId = "28FB090A-653E-4199-B7BE-FAE23D31B682";
shapes = (
{
closed = 1;
nodes = (
(76,283,l),
(112,323,o),
(151,338,o),
(188,338,cs),
(233,338,o),
(258,325,o),
(293,307,cs),
(331,287,o),
(360,274,o),
(406,274,cs),
(453,274,o),
(492,296,o),
(516,323,c),
(516,352,l),
(478,310,o),
(441,298,o),
(407,298,cs),
(367,298,o),
(341,311,o),
(306,329,cs),
(269,348,o),
(242,362,o),
(189,362,cs),
(146,362,o),
(105,343,o),
(76,314,c)
);
}
);
width = 592;
},
{
layerId = "F455777D-7EDD-47E2-866A-D8A5173CE243";
shapes = (
{
closed = 1;
nodes = (
(80,229,l),
(116,260,o),
(157,288,o),
(196,288,cs),
(226,288,o),
(250,280,o),
(300,259,cs),
(363,233,o),
(388,230,o),
(428,230,cs),
(480,230,o),
(523,246,o),
(556,283,c),
(556,420,l),
(522,387,o),
(481,361,o),
(440,361,cs),
(412,361,o),
(385,368,o),
(336,388,cs),
(274,413,o),
(248,419,o),
(208,419,cs),
(156,419,o),
(113,400,o),
(80,366,c)
);
}
);
width = 637;
},
{
background = {
shapes = (
{
closed = 1;
nodes = (
(54,258,l),
(79,292,o),
(111,317,o),
(138,317,cs),
(161,317,o),
(177,310,o),
(214,289,cs),
(258,264,o),
(276,258,o),
(305,258,cs),
(343,258,o),
(374,278,o),
(397,311,c),
(397,386,l),
(374,354,o),
(342,328,o),
(313,328,cs),
(291,328,o),
(274,335,o),
(238,355,cs),
(193,380,o),
(175,386,o),
(146,386,cs),
(108,386,o),
(78,368,o),
(54,334,c)
);
}
);
};
layerId = m005;
shapes = (
{
closed = 1;
nodes = (
(54,258,l),
(79,292,o),
(111,317,o),
(138,317,cs),
(161,317,o),
(177,310,o),
(214,289,cs),
(258,264,o),
(276,258,o),
(305,258,cs),
(343,258,o),
(374,278,o),
(397,311,c),
(397,386,l),
(374,354,o),
(342,328,o),
(313,328,cs),
(291,328,o),
(274,335,o),
(238,355,cs),
(193,380,o),
(175,386,o),
(146,386,cs),
(108,386,o),
(78,368,o),
(54,334,c)
);
}
);
width = 452;
},
{
background = {
shapes = (
{
closed = 1;
nodes = (
(65,232,l),
(96,265,o),
(126,291,o),
(156,291,cs),
(178,291,o),
(198,284,o),
(239,262,cs),
(288,236,o),
(308,233,o),
(339,233,cs),
(381,233,o),
(415,250,o),
(440,286,c),
(440,416,l),
(413,383,o),
(382,357,o),
(349,357,cs),
(328,357,o),
(305,364,o),
(267,384,cs),
(218,410,o),
(196,415,o),
(166,415,cs),
(125,415,o),
(91,397,o),
(65,362,c)
);
}
);
};
layerId = m006;
shapes = (
{
closed = 1;
nodes = (
(65,232,l),
(96,265,o),
(126,291,o),
(156,291,cs),
(178,291,o),
(198,284,o),
(239,262,cs),
(288,236,o),
(308,233,o),
(339,233,cs),
(381,233,o),
(415,250,o),
(440,286,c),
(440,416,l),
(413,383,o),
(382,357,o),
(349,357,cs),
(328,357,o),
(305,364,o),
(267,384,cs),
(218,410,o),
(196,415,o),
(166,415,cs),
(125,415,o),
(91,397,o),
(65,362,c)
);
}
);
width = 506;
},
{
layerId = "ADAF9463-560A-4353-9B5A-2FAD12EBF6B5";
shapes = (
{
closed = 1;
nodes = (
(52,283,l),
(78,324,o),
(105,339,o),
(130,339,cs),
(161,339,o),
(178,325,o),
(204,306,cs),
(232,286,o),
(252,274,o),
(282,274,cs),
(316,274,o),
(343,298,o),
(359,323,c),
(359,351,l),
(335,312,o),
(310,298,o),
(283,298,cs),
(256,298,o),
(238,311,o),
(212,329,cs),
(186,348,o),
(167,361,o),
(132,361,cs),
(100,361,o),
(73,342,o),
(52,314,c)
);
}
);
width = 411;
}
);
unicode = 126;
}
{
color = 0;
glyphname = multiply.beng;
layers = (
{
background = {
shapes = (
{
closed = 1;
nodes = (
(452,115,l),
(502,165,l),
(346,321,l),
(503,478,l),
(452,528,l),
(295,373,l),
(140,528,l),
(89,477,l),
(244,321,l),
(90,167,l),
(140,116,l),
(295,270,l)
);
}
);
};
layerId = UUID0;
shapes = (
{
closed = 1;
nodes = (
(452,115,l),
(502,165,l),
(346,321,l),
(503,478,l),
(452,528,l),
(295,373,l),
(140,528,l),
(89,477,l),
(244,321,l),
(90,167,l),
(140,116,l),
(295,270,l)
);
}
);
width = 592;
},
{
layerId = "28FB090A-653E-4199-B7BE-FAE23D31B682";
shapes = (
{
closed = 1;
nodes = (
(462,136,l),
(479,153,l),
(312,320,l),
(479,487,l),
(462,504,l),
(295,337,l),
(128,504,l),
(111,487,l),
(278,320,l),
(111,153,l),
(128,136,l),
(295,303,l)
);
}
);
width = 592;
},
{
layerId = "F455777D-7EDD-47E2-866A-D8A5173CE243";
shapes = (
{
closed = 1;
nodes = (
(459,93,l),
(550,184,l),
(409,326,l),
(553,469,l),
(459,559,l),
(316,417,l),
(176,559,l),
(83,467,l),
(224,326,l),
(84,184,l),
(176,94,l),
(316,236,l)
);
}
);
width = 637;
},
{
layerId = m005;
shapes = (
{
closed = 1;
nodes = (
(349,144,l),
(396,191,l),
(263,323,l),
(396,454,l),
(349,501,l),
(218,367,l),
(87,501,l),
(40,454,l),
(173,323,l),
(40,191,l),
(87,144,l),
(218,278,l)
);
}
);
width = 437;
},
{
layerId = m006;
shapes = (
{
closed = 1;
nodes = (
(344,116,l),
(437,210,l),
(319,326,l),
(438,443,l),
(344,535,l),
(227,419,l),
(114,535,l),
(20,442,l),
(136,326,l),
(20,211,l),
(114,117,l),
(227,233,l)
);
}
);
width = 456;
},
{
layerId = "ADAF9463-560A-4353-9B5A-2FAD12EBF6B5";
shapes = (
{
closed = 1;
nodes = (
(352,162,l),
(370,179,l),
(227,321,l),
(369,461,l),
(352,479,l),
(212,334,l),
(70,479,l),
(53,462,l),
(197,321,l),
(53,178,l),
(70,161,l),
(212,307,l)
);
}
);
width = 425;
}
);
unicode = 215;
}
{
color = 0;
glyphname = divide.beng;
layers = (
{
background = {
shapes = (
{
closed = 1;
nodes = (
(70,286,l),
(521,286,l),
(521,359,l),
(70,359,l)
);
},
{
closed = 1;
nodes = (
(325,95,o),
(351,113,o),
(351,156,cs),
(351,201,o),
(325,217,o),
(295,217,cs),
(264,217,o),
(239,201,o),
(239,156,cs),
(239,113,o),
(264,95,o),
(295,95,cs)
);
},
{
closed = 1;
nodes = (
(325,436,o),
(351,454,o),
(351,497,cs),
(351,542,o),
(325,558,o),
(295,558,cs),
(264,558,o),
(239,542,o),
(239,497,cs),
(239,454,o),
(264,436,o),
(295,436,cs)
);
}
);
};
layerId = UUID0;
shapes = (
{
closed = 1;
nodes = (
(70,286,l),
(521,286,l),
(521,359,l),
(70,359,l)
);
},
{
closed = 1;
nodes = (
(325,95,o),
(351,113,o),
(351,156,cs),
(351,201,o),
(325,217,o),
(295,217,cs),
(264,217,o),
(239,201,o),
(239,156,cs),
(239,113,o),
(264,95,o),
(295,95,cs)
);
},
{
closed = 1;
nodes = (
(325,436,o),
(351,454,o),
(351,497,cs),
(351,542,o),
(325,558,o),
(295,558,cs),
(264,558,o),
(239,542,o),
(239,497,cs),
(239,454,o),
(264,436,o),
(295,436,cs)
);
}
);
width = 592;
},
{
layerId = "28FB090A-653E-4199-B7BE-FAE23D31B682";
shapes = (
{
closed = 1;
nodes = (
(70,309,l),
(522,309,l),
(522,335,l),
(70,335,l)
);
},
{
closed = 1;
nodes = (
(319,113,o),
(322,127,o),
(322,144,cs),
(322,160,o),
(319,175,o),
(295,175,cs),
(275,175,o),
(270,160,o),
(270,144,cs),
(270,127,o),
(275,113,o),
(295,113,cs)
);
},
{
closed = 1;
nodes = (
(319,469,o),
(322,483,o),
(322,500,cs),
(322,516,o),
(319,531,o),
(295,531,cs),
(275,531,o),
(270,516,o),
(270,500,cs),
(270,483,o),
(275,469,o),
(295,469,cs)
);
}
);
width = 592;
},
{
layerId = "F455777D-7EDD-47E2-866A-D8A5173CE243";
shapes = (
{
closed = 1;
nodes = (
(72,259,l),
(564,259,l),
(564,388,l),
(72,388,l)
);
},
{
closed = 1;
nodes = (
(359,68,o),
(395,91,o),
(395,151,cs),
(395,213,o),
(359,234,o),
(318,234,cs),
(276,234,o),
(240,213,o),
(240,151,cs),
(240,91,o),
(276,68,o),
(318,68,cs)
);
},
{
closed = 1;
nodes = (
(359,413,o),
(395,436,o),
(395,496,cs),
(395,556,o),
(359,579,o),
(318,579,cs),
(276,579,o),
(240,556,o),
(240,496,cs),
(240,436,o),
(276,413,o),
(318,413,cs)
);
}
);
width = 637;
},
{
layerId = m005;
shapes = (
{
closed = 1;
nodes = (
(48,288,l),
(389,288,l),
(389,357,l),
(48,357,l)
);
},
{
closed = 1;
nodes = (
(245,99,o),
(269,116,o),
(269,155,cs),
(269,195,o),
(245,211,o),
(217,211,cs),
(190,211,o),
(167,195,o),
(167,155,cs),
(167,116,o),
(190,99,o),
(217,99,cs)
);
},
{
closed = 1;
nodes = (
(245,436,o),
(269,453,o),
(269,492,cs),
(269,532,o),
(245,548,o),
(217,548,cs),
(190,548,o),
(167,532,o),
(167,492,cs),
(167,453,o),
(190,436,o),
(217,436,cs)
);
}
);
width = 437;
},
{
layerId = m006;
shapes = (
{
closed = 1;
nodes = (
(48,257,l),
(408,257,l),
(408,390,l),
(48,390,l)
);
},
{
closed = 1;
nodes = (
(265,71,o),
(314,94,o),
(314,164,cs),
(314,237,o),
(265,256,o),
(226,256,cs),
(185,256,o),
(140,237,o),
(140,164,cs),
(140,94,o),
(185,71,o),
(226,71,cs)
);
},
{
closed = 1;
nodes = (
(265,395,o),
(314,417,o),
(314,487,cs),
(314,560,o),
(265,579,o),
(226,579,cs),
(185,579,o),
(140,560,o),
(140,487,cs),
(140,417,o),
(185,395,o),
(226,395,cs)
);
}
);
width = 456;
},
{
layerId = "ADAF9463-560A-4353-9B5A-2FAD12EBF6B5";
shapes = (
{
closed = 1;
nodes = (
(48,308,l),
(377,308,l),
(377,336,l),
(48,336,l)
);
},
{
closed = 1;
nodes = (
(232,117,o),
(240,130,o),
(240,149,cs),
(240,168,o),
(232,182,o),
(211,182,cs),
(193,182,o),
(184,168,o),
(184,149,cs),
(184,130,o),
(193,117,o),
(211,117,cs)
);
},
{
closed = 1;
nodes = (
(232,462,o),
(240,476,o),
(240,495,cs),
(240,514,o),
(232,528,o),
(211,528,cs),
(193,528,o),
(184,514,o),
(184,495,cs),
(184,476,o),
(193,462,o),
(211,462,cs)
);
}
);
width = 425;
}
);
unicode = 247;
}
{
category = Mark;
color = 3;
glyphname = uni0951;
layers = (
{
anchors = (
{
name = _top_vedic;
pos = (0,622);
}
);
background = {
anchors = (
{
name = _Anchor8;
pos = (-255,299);
}
);
shapes = (
{
closed = 1;
nodes = (
(-290,917,l),
(-290,626,l),
(-219,626,l),
(-219,917,l)
);
}
);
};
layerId = UUID0;
shapes = (
{
closed = 1;
nodes = (
(-35,1228,l),
(-35,937,l),
(36,937,l),
(36,1228,l)
);
}
);
width = 0;
},
{
anchors = (
{
name = _top_vedic;
pos = (0,607);
}
);
layerId = "28FB090A-653E-4199-B7BE-FAE23D31B682";
shapes = (
{
closed = 1;
nodes = (
(-13,1228,l),
(-13,937,l),
(13,937,l),
(13,1228,l)
);
}
);
width = 0;
},
{
anchors = (
{
name = _top_vedic;
pos = (0,635);
}
);
layerId = "F455777D-7EDD-47E2-866A-D8A5173CE243";
shapes = (
{
closed = 1;
nodes = (
(-55,1231,l),
(-55,937,l),
(55,937,l),
(55,1231,l)
);
}
);
width = 0;
},
{
anchors = (
{
name = _top_vedic;
pos = (0,606);
}
);
background = {
anchors = (
{
name = _top_vedic;
pos = (0,606);
}
);
shapes = (
{
closed = 1;
nodes = (
(-10,1228,l),
(-10,937,l),
(10,937,l),
(10,1228,l)
);
}
);
};
layerId = m004;
shapes = (
{
closed = 1;
nodes = (
(-10,1228,l),
(-10,937,l),
(10,937,l),
(10,1228,l)
);
}
);
width = 0;
},
{
anchors = (
{
name = _top_vedic;
pos = (0,621);
}
);
background = {
anchors = (
{
name = _top_vedic;
pos = (0,621);
}
);
shapes = (
{
closed = 1;
nodes = (
(-30,1228,l),
(-30,937,l),
(31,937,l),
(31,1228,l)
);
}
);
};
layerId = m005;
shapes = (
{
closed = 1;
nodes = (
(-30,1228,l),
(-30,937,l),
(31,937,l),
(31,1228,l)
);
}
);
width = 0;
},
{
anchors = (
{
name = _top_vedic;
pos = (0,634);
}
);
background = {
anchors = (
{
name = _top_vedic;
pos = (0,634);
}
);
shapes = (
{
closed = 1;
nodes = (
(-49,1231,l),
(-49,937,l),
(49,937,l),
(49,1231,l)
);
}
);
};
layerId = m006;
shapes = (
{
closed = 1;
nodes = (
(-49,1231,l),
(-49,937,l),
(49,937,l),
(49,1231,l)
);
}
);
width = 0;
},
{
anchors = (
{
name = _top_vedic;
pos = (0,606);
}
);
background = {
anchors = (
{
name = _top_vedic;
pos = (0,606);
}
);
shapes = (
{
closed = 1;
nodes = (
(-10,1228,l),
(-10,937,l),
(10,937,l),
(10,1228,l)
);
}
);
};
layerId = m007;
shapes = (
{
closed = 1;
nodes = (
(-9,1228,l),
(-9,937,l),
(9,937,l),
(9,1228,l)
);
}
);
width = 0;
},
{
anchors = (
{
name = _top_vedic;
pos = (0,621);
}
);
background = {
anchors = (
{
name = _top_vedic;
pos = (0,621);
}
);
shapes = (
{
closed = 1;
nodes = (
(-30,1228,l),
(-30,937,l),
(31,937,l),
(31,1228,l)
);
}
);
};
layerId = m008;
shapes = (
{
closed = 1;
nodes = (
(-30,1228,l),
(-30,937,l),
(31,937,l),
(31,1228,l)
);
}
);
width = 0;
},
{
anchors = (
{
name = _top_vedic;
pos = (0,634);
}
);
background = {
anchors = (
{
name = _top_vedic;
pos = (0,634);
}
);
shapes = (
{
closed = 1;
nodes = (
(-49,1231,l),
(-49,937,l),
(49,937,l),
(49,1231,l)
);
}
);
};
layerId = m009;
shapes = (
{
closed = 1;
nodes = (
(-49,1231,l),
(-49,937,l),
(49,937,l),
(49,1231,l)
);
}
);
width = 0;
},
{
anchors = (
{
name = _top_vedic;
pos = (0,607);
}
);
layerId = "ADAF9463-560A-4353-9B5A-2FAD12EBF6B5";
shapes = (
{
closed = 1;
nodes = (
(-11,1228,l),
(-11,937,l),
(11,937,l),
(11,1228,l)
);
}
);
width = 0;
}
);
subCategory = Nonspacing;
unicode = 2385;
}
{
category = Mark;
color = 3;
glyphname = uni0952;
layers = (
{
anchors = (
{
name = _top_vedic;
pos = (0,622);
}
);
background = {
anchors = (
{
name = _Anchor8;
pos = (-255,935);
}
);
shapes = (
{
closed = 1;
nodes = (
(-67,-187,l),
(-67,-116,l),
(-443,-116,l),
(-443,-187,l)
);
}
);
};
layerId = UUID0;
shapes = (
{
closed = 1;
nodes = (
(188,-500,l),
(188,-429,l),
(-188,-429,l),
(-188,-500,l)
);
}
);
width = 0;
},
{
anchors = (
{
name = _top_vedic;
pos = (0,607);
}
);
layerId = "28FB090A-653E-4199-B7BE-FAE23D31B682";
shapes = (
{
closed = 1;
nodes = (
(184,-493,l),
(184,-467,l),
(-184,-467,l),
(-184,-493,l)
);
}
);
width = 0;
},
{
anchors = (
{
name = _top_vedic;
pos = (1,635);
}
);
layerId = "F455777D-7EDD-47E2-866A-D8A5173CE243";
shapes = (
{
closed = 1;
nodes = (
(213,-506,l),
(213,-399,l),
(-213,-399,l),
(-213,-506,l)
);
}
);
width = 0;
},
{
anchors = (
{
name = _top_vedic;
pos = (0,606);
}
);
background = {
anchors = (
{
name = _top_vedic;
pos = (0,606);
}
);
shapes = (
{
closed = 1;
nodes = (
(138,-492,l),
(138,-470,l),
(-138,-470,l),
(-138,-492,l)
);
}
);
};
layerId = m004;
shapes = (
{
closed = 1;
nodes = (
(138,-492,l),
(138,-470,l),
(-138,-470,l),
(-138,-492,l)
);
}
);
width = 0;
},
{
anchors = (
{
name = _top_vedic;
pos = (0,621);
}
);
background = {
anchors = (
{
name = _top_vedic;
pos = (0,621);
}
);
shapes = (
{
closed = 1;
nodes = (
(146,-500,l),
(146,-432,l),
(-146,-432,l),
(-146,-500,l)
);
}
);
};
layerId = m005;
shapes = (
{
closed = 1;
nodes = (
(146,-500,l),
(146,-432,l),
(-146,-432,l),
(-146,-500,l)
);
}
);
width = 0;
},
{
anchors = (
{
name = _top_vedic;
pos = (1,634);
}
);
background = {
anchors = (
{
name = _top_vedic;
pos = (1,634);
}
);
shapes = (
{
closed = 1;
nodes = (
(173,-505,l),
(173,-402,l),
(-173,-402,l),
(-173,-505,l)
);
}
);
};
layerId = m006;
shapes = (
{
closed = 1;
nodes = (
(173,-505,l),
(173,-402,l),
(-173,-402,l),
(-173,-505,l)
);
}
);
width = 0;
}
);
subCategory = Nonspacing;
unicode = 2386;
}
{
color = 0;
glyphname = dandadeva;
layers = (
{
background = {
shapes = (
{
closed = 1;
nodes = (
(275,0,l),
(275,622,l),
(194,622,l),
(194,0,l)
);
}
);
};
layerId = UUID0;
shapes = (
{
closed = 1;
nodes = (
(275,0,l),
(275,622,l),
(194,622,l),
(194,0,l)
);
}
);
width = 379;
},
{
layerId = "28FB090A-653E-4199-B7BE-FAE23D31B682";
shapes = (
{
closed = 1;
nodes = (
(226,0,l),
(226,622,l),
(200,622,l),
(200,0,l)
);
}
);
width = 335;
},
{
layerId = "F455777D-7EDD-47E2-866A-D8A5173CE243";
shapes = (
{
closed = 1;
nodes = (
(340,0,l),
(340,622,l),
(165,622,l),
(165,0,l)
);
}
);
width = 419;
},
{
layerId = m005;
shapes = (
{
closed = 1;
nodes = (
(252,0,l),
(252,622,l),
(181,622,l),
(181,0,l)
);
}
);
width = 356;
},
{
layerId = m006;
shapes = (
{
closed = 1;
nodes = (
(322,0,l),
(322,622,l),
(165,622,l),
(165,0,l)
);
}
);
width = 409;
},
{
layerId = "ADAF9463-560A-4353-9B5A-2FAD12EBF6B5";
shapes = (
{
closed = 1;
nodes = (
(207,0,l),
(207,622,l),
(191,622,l),
(191,0,l)
);
}
);
width = 322;
}
);
unicode = 2404;
}
{
color = 0;
glyphname = dbldandadeva;
layers = (
{
background = {
shapes = (
{
closed = 1;
nodes = (
(495,0,l),
(495,622,l),
(414,622,l),
(414,0,l)
);
},
{
closed = 1;
nodes = (
(275,0,l),
(275,622,l),
(194,622,l),
(194,0,l)
);
}
);
};
layerId = UUID0;
shapes = (
{
closed = 1;
nodes = (
(495,0,l),
(495,622,l),
(414,622,l),
(414,0,l)
);
},
{
closed = 1;
nodes = (
(275,0,l),
(275,622,l),
(194,622,l),
(194,0,l)
);
}
);
width = 599;
},
{
layerId = "28FB090A-653E-4199-B7BE-FAE23D31B682";
shapes = (
{
closed = 1;
nodes = (
(418,0,l),
(418,622,l),
(392,622,l),
(392,0,l)
);
},
{
closed = 1;
nodes = (
(226,0,l),
(226,622,l),
(200,622,l),
(200,0,l)
);
}
);
width = 527;
},
{
layerId = "F455777D-7EDD-47E2-866A-D8A5173CE243";
shapes = (
{
closed = 1;
nodes = (
(594,0,l),
(594,622,l),
(419,622,l),
(419,0,l)
);
},
{
closed = 1;
nodes = (
(340,0,l),
(340,622,l),
(165,622,l),
(165,0,l)
);
}
);
width = 673;
},
{
layerId = m005;
shapes = (
{
closed = 1;
nodes = (
(434,0,l),
(434,622,l),
(363,622,l),
(363,0,l)
);
},
{
closed = 1;
nodes = (
(252,0,l),
(252,622,l),
(181,622,l),
(181,0,l)
);
}
);
width = 538;
},
{
layerId = m006;
shapes = (
{
closed = 1;
nodes = (
(543,0,l),
(543,622,l),
(385,622,l),
(385,0,l)
);
},
{
closed = 1;
nodes = (
(322,0,l),
(322,622,l),
(165,622,l),
(165,0,l)
);
}
);
width = 631;
},
{
layerId = "ADAF9463-560A-4353-9B5A-2FAD12EBF6B5";
shapes = (
{
closed = 1;
nodes = (
(364,0,l),
(364,622,l),
(349,622,l),
(349,0,l)
);
},
{
closed = 1;
nodes = (
(207,0,l),
(207,622,l),
(191,622,l),
(191,0,l)
);
}
);
width = 479;
}
);
unicode = 2405;
}
{
color = 5;
glyphname = "anji-beng";
layers = (
{
anchors = (
{
name = top_candrabindu;
pos = (280,622);
},
{
name = top_vedic;
pos = (270,622);
}
);
background = {
anchors = (
{
name = top_candrabindu;
pos = (229,622);
}
);
shapes = (
{
closed = 1;
nodes = (
(488,-10,o),
(502,-8,o),
(513,-6,c),
(506,64,l),
(502,63,o),
(489,61,o),
(480,61,cs),
(455,61,o),
(444,74,o),
(444,111,cs),
(444,465,ls),
(444,580,o),
(384,632,o),
(280,632,cs),
(159,632,o),
(52,538,o),
(52,416,cs),
(52,311,o),
(121,247,o),
(223,247,cs),
(293,247,o),
(328,280,o),
(328,335,cs),
(328,377,o),
(298,406,o),
(252,406,cs),
(210,406,o),
(179,375,o),
(179,331,cs),
(179,291,o),
(205,255,o),
(245,255,c),
(229,322,l),
(177,322,o),
(134,344,o),
(134,411,cs),
(134,494,o),
(205,560,o),
(280,560,cs),
(348,560,o),
(365,523,o),
(365,458,cs),
(365,121,ls),
(365,31,o),
(395,-10,o),
(475,-10,cs)
);
}
);
};
layerId = UUID0;
shapes = (
{
closed = 1;
nodes = (
(488,-10,o),
(502,-8,o),
(513,-6,c),
(506,64,l),
(502,63,o),
(489,61,o),
(480,61,cs),
(455,61,o),
(444,74,o),
(444,111,cs),
(444,465,ls),
(444,580,o),
(384,632,o),
(280,632,cs),
(159,632,o),
(52,538,o),
(52,416,cs),
(52,311,o),
(121,247,o),
(223,247,cs),
(293,247,o),
(328,280,o),
(328,335,cs),
(328,377,o),
(298,406,o),
(252,406,cs),
(210,406,o),
(179,375,o),
(179,331,cs),
(179,291,o),
(205,255,o),
(245,255,c),
(229,322,l),
(177,322,o),
(134,344,o),
(134,411,cs),
(134,494,o),
(205,560,o),
(280,560,cs),
(348,560,o),
(365,523,o),
(365,458,cs),
(365,121,ls),
(365,31,o),
(395,-10,o),
(475,-10,cs)
);
}
);
width = 540;
},
{
anchors = (
{
name = top_candrabindu;
pos = (262,607);
},
{
name = top_vedic;
pos = (250,607);
}
);
background = {
anchors = (
{
name = top_candrabindu;
pos = (232,622);
}
);
shapes = (
{
closed = 1;
nodes = (
(439,1,o),
(455,4,o),
(462,7,c),
(458,28,l),
(448,24,o),
(438,22,o),
(428,22,cs),
(404,22,o),
(393,35,o),
(393,69,cs),
(393,456,ls),
(393,555,o),
(356,617,o),
(262,617,cs),
(158,617,o),
(68,519,o),
(68,411,cs),
(68,314,o),
(131,270,o),
(222,270,cs),
(269,270,o),
(291,290,o),
(291,321,cs),
(291,345,o),
(275,362,o),
(247,362,cs),
(221,362,o),
(204,345,o),
(204,322,cs),
(204,298,o),
(222,281,o),
(245,281,c),
(225,291,l),
(151,291,o),
(89,318,o),
(89,410,cs),
(89,508,o),
(172,596,o),
(262,596,cs),
(352,596,o),
(372,537,o),
(372,445,cs),
(372,70,ls),
(372,26,o),
(387,1,o),
(428,1,cs)
);
}
);
};
layerId = "28FB090A-653E-4199-B7BE-FAE23D31B682";
shapes = (
{
closed = 1;
nodes = (
(439,1,o),
(455,4,o),
(462,7,c),
(458,28,l),
(448,24,o),
(438,22,o),
(428,22,cs),
(404,22,o),
(393,35,o),
(393,69,cs),
(393,456,ls),
(393,555,o),
(356,617,o),
(262,617,cs),
(158,617,o),
(68,519,o),
(68,411,cs),
(68,314,o),
(131,270,o),
(222,270,cs),
(269,270,o),
(291,290,o),
(291,321,cs),
(291,345,o),
(275,362,o),
(247,362,cs),
(221,362,o),
(204,345,o),
(204,322,cs),
(204,298,o),
(222,281,o),
(245,281,c),
(225,291,l),
(151,291,o),
(89,318,o),
(89,410,cs),
(89,508,o),
(172,596,o),
(262,596,cs),
(352,596,o),
(372,537,o),
(372,445,cs),
(372,70,ls),
(372,26,o),
(387,1,o),
(428,1,cs)
);
}
);
width = 500;
},
{
anchors = (
{
name = top_candrabindu;
pos = (320,635);
},
{
name = top_vedic;
pos = (304,635);
}
);
background = {
anchors = (
{
name = top_candrabindu;
pos = (320,635);
}
);
shapes = (
{
closed = 1;
nodes = (
(548,-10,o),
(573,-9,o),
(597,-6,c),
(590,128,l),
(583,127,o),
(573,126,o),
(565,126,cs),
(539,126,o),
(526,139,o),
(526,176,cs),
(526,446,ls),
(526,590,o),
(443,645,o),
(320,645,cs),
(170,645,o),
(43,542,o),
(43,395,cs),
(43,284,o),
(115,217,o),
(212,217,cs),
(292,217,o),
(332,258,o),
(332,325,cs),
(332,388,o),
(293,421,o),
(238,421,cs),
(185,421,o),
(151,384,o),
(151,324,cs),
(151,268,o),
(185,227,o),
(237,227,c),
(278,350,l),
(231,350,o),
(212,368,o),
(212,409,cs),
(212,473,o),
(254,513,o),
(304,513,cs),
(355,513,o),
(360,483,o),
(360,433,cs),
(360,167,ls),
(360,48,o),
(410,-10,o),
(526,-10,cs)
);
}
);
};
layerId = "F455777D-7EDD-47E2-866A-D8A5173CE243";
shapes = (
{
closed = 1;
nodes = (
(548,-10,o),
(573,-9,o),
(597,-6,c),
(590,128,l),
(583,127,o),
(573,126,o),
(565,126,cs),
(539,126,o),
(526,139,o),
(526,176,cs),
(526,446,ls),
(526,590,o),
(443,645,o),
(320,645,cs),
(170,645,o),
(43,542,o),
(43,395,cs),
(43,284,o),
(115,217,o),
(212,217,cs),
(292,217,o),
(332,258,o),
(332,325,cs),
(332,388,o),
(293,421,o),
(238,421,cs),
(185,421,o),
(151,384,o),
(151,324,cs),
(151,268,o),
(185,227,o),
(237,227,c),
(278,350,l),
(231,350,o),
(212,368,o),
(212,409,cs),
(212,473,o),
(254,513,o),
(304,513,cs),
(355,513,o),
(360,483,o),
(360,433,cs),
(360,167,ls),
(360,48,o),
(410,-10,o),
(526,-10,cs)
);
}
);
width = 609;
},
{
anchors = (
{
name = top_candrabindu;
pos = (197,606);
},
{
name = top_vedic;
pos = (188,606);
}
);
background = {
anchors = (
{
name = top_candrabindu;
pos = (197,606);
},
{
name = top_vedic;
pos = (188,606);
}
);
shapes = (
{
closed = 1;
nodes = (
(329,2,o),
(342,5,o),
(347,8,c),
(344,25,l),
(336,21,o),
(329,19,o),
(321,19,cs),
(303,19,o),
(295,32,o),
(295,66,cs),
(295,455,ls),
(295,553,o),
(267,616,o),
(197,616,cs),
(119,616,o),
(51,518,o),
(51,411,cs),
(51,315,o),
(98,272,o),
(167,272,cs),
(201,272,o),
(218,291,o),
(218,320,cs),
(218,343,o),
(206,359,o),
(185,359,cs),
(166,359,o),
(153,343,o),
(153,321,cs),
(153,298,o),
(167,283,o),
(184,283,c),
(169,289,l),
(114,289,o),
(67,316,o),
(67,410,cs),
(67,509,o),
(129,599,o),
(197,599,cs),
(264,599,o),
(279,538,o),
(279,444,cs),
(279,66,ls),
(279,26,o),
(290,2,o),
(321,2,cs)
);
}
);
};
layerId = m004;
shapes = (
{
closed = 1;
nodes = (
(329,2,o),
(342,5,o),
(347,8,c),
(344,25,l),
(336,21,o),
(329,19,o),
(321,19,cs),
(303,19,o),
(295,32,o),
(295,66,cs),
(295,455,ls),
(295,553,o),
(267,616,o),
(197,616,cs),
(119,616,o),
(51,518,o),
(51,411,cs),
(51,315,o),
(98,272,o),
(167,272,cs),
(201,272,o),
(218,291,o),
(218,320,cs),
(218,343,o),
(206,359,o),
(185,359,cs),
(166,359,o),
(153,343,o),
(153,321,cs),
(153,298,o),
(167,283,o),
(184,283,c),
(169,289,l),
(114,289,o),
(67,316,o),
(67,410,cs),
(67,509,o),
(129,599,o),
(197,599,cs),
(264,599,o),
(279,538,o),
(279,444,cs),
(279,66,ls),
(279,26,o),
(290,2,o),
(321,2,cs)
);
}
);
width = 376;
},
{
anchors = (
{
name = top_candrabindu;
pos = (218,621);
},
{
name = top_vedic;
pos = (209,621);
}
);
background = {
anchors = (
{
name = top_candrabindu;
pos = (218,621);
},
{
name = top_vedic;
pos = (209,621);
}
);
shapes = (
{
closed = 1;
nodes = (
(378,-9,o),
(390,-7,o),
(401,-5,c),
(396,61,l),
(393,60,o),
(383,58,o),
(377,58,cs),
(358,58,o),
(349,71,o),
(349,108,cs),
(349,464,ls),
(349,579,o),
(299,631,o),
(218,631,cs),
(121,631,o),
(37,536,o),
(37,416,cs),
(37,312,o),
(89,249,o),
(165,249,cs),
(219,249,o),
(247,281,o),
(247,334,cs),
(247,375,o),
(222,403,o),
(186,403,cs),
(152,403,o),
(128,373,o),
(128,330,cs),
(128,292,o),
(149,257,o),
(182,257,c),
(181,320,l),
(143,320,o),
(116,343,o),
(116,411,cs),
(116,494,o),
(163,563,o),
(215,563,cs),
(263,563,o),
(273,523,o),
(273,457,cs),
(273,117,ls),
(273,31,o),
(299,-9,o),
(366,-9,cs)
);
}
);
};
layerId = m005;
shapes = (
{
closed = 1;
nodes = (
(378,-9,o),
(390,-7,o),
(401,-5,c),
(396,61,l),
(393,60,o),
(383,58,o),
(377,58,cs),
(358,58,o),
(349,71,o),
(349,108,cs),
(349,464,ls),
(349,579,o),
(299,631,o),
(218,631,cs),
(121,631,o),
(37,536,o),
(37,416,cs),
(37,312,o),
(89,249,o),
(165,249,cs),
(219,249,o),
(247,281,o),
(247,334,cs),
(247,375,o),
(222,403,o),
(186,403,cs),
(152,403,o),
(128,373,o),
(128,330,cs),
(128,292,o),
(149,257,o),
(182,257,c),
(181,320,l),
(143,320,o),
(116,343,o),
(116,411,cs),
(116,494,o),
(163,563,o),
(215,563,cs),
(263,563,o),
(273,523,o),
(273,457,cs),
(273,117,ls),
(273,31,o),
(299,-9,o),
(366,-9,cs)
);
}
);
width = 418;
},
{
anchors = (
{
name = top_candrabindu;
pos = (261,634);
},
{
name = top_vedic;
pos = (246,634);
}
);
background = {
anchors = (
{
name = top_candrabindu;
pos = (261,634);
},
{
name = top_vedic;
pos = (246,634);
}
);
shapes = (
{
closed = 1;
nodes = (
(442,-10,o),
(465,-9,o),
(489,-6,c),
(484,121,l),
(477,120,o),
(471,119,o),
(465,119,cs),
(445,119,o),
(434,131,o),
(434,169,cs),
(434,448,ls),
(434,589,o),
(362,644,o),
(261,644,cs),
(135,644,o),
(30,542,o),
(30,397,cs),
(30,288,o),
(86,220,o),
(159,220,cs),
(224,220,o),
(257,260,o),
(257,326,cs),
(257,386,o),
(224,419,o),
(178,419,cs),
(134,419,o),
(106,383,o),
(106,325,cs),
(106,271,o),
(135,230,o),
(180,230,c),
(231,347,l),
(197,347,o),
(191,366,o),
(191,409,cs),
(191,475,o),
(213,518,o),
(243,518,cs),
(275,518,o),
(275,489,o),
(275,436,cs),
(275,162,ls),
(275,46,o),
(321,-10,o),
(423,-10,cs)
);
}
);
};
layerId = m006;
shapes = (
{
closed = 1;
nodes = (
(442,-10,o),
(465,-9,o),
(489,-6,c),
(484,121,l),
(477,120,o),
(471,119,o),
(465,119,cs),
(445,119,o),
(434,131,o),
(434,169,cs),
(434,448,ls),
(434,589,o),
(362,644,o),
(261,644,cs),
(135,644,o),
(30,542,o),
(30,397,cs),
(30,288,o),
(86,220,o),
(159,220,cs),
(224,220,o),
(257,260,o),
(257,326,cs),
(257,386,o),
(224,419,o),
(178,419,cs),
(134,419,o),
(106,383,o),
(106,325,cs),
(106,271,o),
(135,230,o),
(180,230,c),
(231,347,l),
(197,347,o),
(191,366,o),
(191,409,cs),
(191,475,o),
(213,518,o),
(243,518,cs),
(275,518,o),
(275,489,o),
(275,436,cs),
(275,162,ls),
(275,46,o),
(321,-10,o),
(423,-10,cs)
);
}
);
width = 493;
}
);
script = bengali;
unicode = 2432;
}
{
category = Mark;
color = 5;
glyphname = "candrabindu-beng";
layers = (
{
anchors = (
{
name = _top_candrabindu;
pos = (0,622);
}
);
background = {
anchors = (
{
name = _top_candrabindu;
pos = (0,622);
}
);
shapes = (
{
closed = 1;
nodes = (
(117,685,o),
(168,760,o),
(177,861,c),
(107,870,l),
(100,792,o),
(66,751,o),
(0,751,cs),
(-71,751,o),
(-99,795,o),
(-106,869,c),
(-175,860,l),
(-165,760,o),
(-112,685,o),
(4,685,cs)
);
},
{
closed = 1;
nodes = (
(30,790,o),
(44,812,o),
(44,833,cs),
(44,854,o),
(30,876,o),
(0,876,cs),
(-30,876,o),
(-44,854,o),
(-44,833,cs),
(-44,812,o),
(-30,790,o),
(0,790,cs)
);
}
);
};
layerId = UUID0;
shapes = (
{
closed = 1;
nodes = (
(117,685,o),
(168,760,o),
(177,861,c),
(107,870,l),
(100,792,o),
(66,751,o),
(0,751,cs),
(-71,751,o),
(-99,795,o),
(-106,869,c),
(-175,860,l),
(-165,760,o),
(-112,685,o),
(4,685,cs)
);
},
{
closed = 1;
nodes = (
(30,790,o),
(44,812,o),
(44,833,cs),
(44,854,o),
(30,876,o),
(0,876,cs),
(-30,876,o),
(-44,854,o),
(-44,833,cs),
(-44,812,o),
(-30,790,o),
(0,790,cs)
);
}
);
width = 0;
},
{
anchors = (
{
name = _top_candrabindu;
pos = (0,607);
}
);
background = {
anchors = (
{
name = _top_candrabindu;
pos = (0,607);
}
);
shapes = (
{
closed = 1;
nodes = (
(85,690,o),
(137,745,o),
(146,842,c),
(126,844,l),
(115,755,o),
(74,711,o),
(0,711,cs),
(-79,711,o),
(-115,758,o),
(-126,844,c),
(-146,841,l),
(-136,754,o),
(-94,690,o),
(0,690,cs)
);
},
{
closed = 1;
nodes = (
(17,790,o),
(27,802,o),
(27,817,cs),
(27,831,o),
(17,843,o),
(0,843,cs),
(-17,843,o),
(-27,831,o),
(-27,817,cs),
(-27,802,o),
(-17,790,o),
(0,790,cs)
);
}
);
};
layerId = "28FB090A-653E-4199-B7BE-FAE23D31B682";
shapes = (
{
closed = 1;
nodes = (
(85,690,o),
(137,745,o),
(146,842,c),
(126,844,l),
(115,755,o),
(74,711,o),
(0,711,cs),
(-79,711,o),
(-115,758,o),
(-126,844,c),
(-146,841,l),
(-136,754,o),
(-94,690,o),
(0,690,cs)
);
},
{
closed = 1;
nodes = (
(17,790,o),
(27,802,o),
(27,817,cs),
(27,831,o),
(17,843,o),
(0,843,cs),
(-17,843,o),
(-27,831,o),
(-27,817,cs),
(-27,802,o),
(-17,790,o),
(0,790,cs)
);
}
);
width = 0;
},
{
anchors = (
{
name = _top_candrabindu;
pos = (0,635);
}
);
background = {
anchors = (
{
name = _top_candrabindu;
pos = (0,635);
}
);
shapes = (
{
closed = 1;
nodes = (
(154,671,o),
(214,764,o),
(225,887,c),
(100,898,l),
(93,814,o),
(60,775,o),
(2,775,cs),
(-67,775,o),
(-89,820,o),
(-96,897,c),
(-222,886,l),
(-208,759,o),
(-143,671,o),
(6,671,cs)
);
},
{
closed = 1;
nodes = (
(37,800,o),
(57,827,o),
(57,856,cs),
(57,885,o),
(37,912,o),
(0,912,cs),
(-37,912,o),
(-57,885,o),
(-57,856,cs),
(-57,827,o),
(-37,800,o),
(0,800,cs)
);
}
);
};
layerId = "F455777D-7EDD-47E2-866A-D8A5173CE243";
shapes = (
{
closed = 1;
nodes = (
(151,666,o),
(214,764,o),
(221,872,c),
(100,883,l),
(93,814,o),
(60,775,o),
(2,775,cs),
(-67,775,o),
(-89,820,o),
(-96,882,c),
(-218,871,l),
(-208,759,o),
(-140,666,o),
(6,666,cs)
);
},
{
closed = 1;
nodes = (
(37,800,o),
(57,827,o),
(57,856,cs),
(57,885,o),
(37,912,o),
(0,912,cs),
(-37,912,o),
(-57,885,o),
(-57,856,cs),
(-57,827,o),
(-37,800,o),
(0,800,cs)
);
}
);
width = 0;
},
{
anchors = (
{
name = _top_candrabindu;
pos = (-1,606);
}
);
background = {
anchors = (
{
name = _top_candrabindu;
pos = (-1,606);
}
);
shapes = (
{
closed = 1;
nodes = (
(62,690,o),
(102,742,o),
(109,841,c),
(94,842,l),
(86,753,o),
(55,708,o),
(-1,708,cs),
(-61,708,o),
(-87,757,o),
(-95,842,c),
(-110,840,l),
(-103,754,o),
(-71,690,o),
(-1,690,cs)
);
},
{
closed = 1;
nodes = (
(12,790,o),
(20,801,o),
(20,816,cs),
(20,830,o),
(12,841,o),
(-1,841,cs),
(-13,841,o),
(-21,830,o),
(-21,816,cs),
(-21,801,o),
(-13,790,o),
(-1,790,cs)
);
}
);
};
layerId = m004;
shapes = (
{
closed = 1;
nodes = (
(62,690,o),
(102,741,o),
(109,841,c),
(93,842,l),
(85,753,o),
(55,707,o),
(-1,707,cs),
(-61,707,o),
(-85,757,o),
(-93,842,c),
(-110,840,l),
(-103,754,o),
(-71,690,o),
(-1,690,cs)
);
},
{
closed = 1;
nodes = (
(12,790,o),
(20,800,o),
(20,816,cs),
(20,831,o),
(12,841,o),
(-1,841,cs),
(-13,841,o),
(-21,831,o),
(-21,816,cs),
(-21,800,o),
(-13,790,o),
(-1,790,cs)
);
}
);
width = 0;
},
{
anchors = (
{
name = _top_candrabindu;
pos = (0,621);
}
);
background = {
anchors = (
{
name = _top_candrabindu;
pos = (0,621);
}
);
shapes = (
{
closed = 1;
nodes = (
(98,685,o),
(135,765,o),
(141,860,c),
(79,868,l),
(74,792,o),
(50,748,o),
(0,748,cs),
(-54,748,o),
(-73,794,o),
(-78,867,c),
(-140,859,l),
(-132,753,o),
(-85,685,o),
(3,685,cs)
);
},
{
closed = 1;
nodes = (
(23,790,o),
(35,811,o),
(35,832,cs),
(35,853,o),
(23,874,o),
(0,874,cs),
(-24,874,o),
(-36,853,o),
(-36,832,cs),
(-36,811,o),
(-24,790,o),
(0,790,cs)
);
}
);
};
layerId = m005;
shapes = (
{
closed = 1;
nodes = (
(97,685,o),
(136,764,o),
(141,862,c),
(79,867,l),
(72,790,o),
(50,748,o),
(0,748,cs),
(-54,748,o),
(-72,793,o),
(-78,866,c),
(-140,861,l),
(-133,752,o),
(-88,685,o),
(3,685,cs)
);
},
{
closed = 1;
nodes = (
(23,790,o),
(35,810,o),
(35,832,cs),
(35,854,o),
(23,874,o),
(0,874,cs),
(-24,874,o),
(-36,854,o),
(-36,832,cs),
(-36,810,o),
(-24,790,o),
(0,790,cs)
);
}
);
width = 0;
},
{
anchors = (
{
name = _top_candrabindu;
pos = (0,634);
}
);
background = {
anchors = (
{
name = _top_candrabindu;
pos = (0,634);
}
);
shapes = (
{
closed = 1;
nodes = (
(128,668,o),
(181,763,o),
(186,871,c),
(75,882,l),
(70,816,o),
(47,772,o),
(2,772,cs),
(-51,772,o),
(-65,820,o),
(-70,881,c),
(-183,870,l),
(-175,757,o),
(-116,668,o),
(5,668,cs)
);
},
{
closed = 1;
nodes = (
(31,799,o),
(48,826,o),
(48,853,cs),
(48,881,o),
(31,908,o),
(0,908,cs),
(-31,908,o),
(-48,881,o),
(-48,853,cs),
(-48,826,o),
(-31,799,o),
(0,799,cs)
);
}
);
};
layerId = m006;
shapes = (
{
closed = 1;
nodes = (
(128,668,o),
(181,763,o),
(186,873,c),
(75,882,l),
(72,816,o),
(47,775,o),
(2,775,cs),
(-51,775,o),
(-67,820,o),
(-70,881,c),
(-183,871,l),
(-175,757,o),
(-116,668,o),
(4,668,cs)
);
},
{
closed = 1;
nodes = (
(32,799,o),
(48,824,o),
(48,853,cs),
(48,883,o),
(32,908,o),
(0,908,cs),
(-32,908,o),
(-48,883,o),
(-48,853,cs),
(-48,824,o),
(-32,799,o),
(0,799,cs)
);
}
);
width = 0;
},
{
anchors = (
{
name = _top_candrabindu;
pos = (-1,607);
}
);
background = {
shapes = (
{
closed = 1;
nodes = (
(59,690,o),
(97,741,o),
(104,842,c),
(85,843,l),
(77,753,o),
(49,709,o),
(-1,709,cs),
(-56,709,o),
(-78,760,o),
(-85,843,c),
(-104,841,l),
(-97,752,o),
(-66,690,o),
(0,690,cs)
);
},
{
closed = 1;
nodes = (
(12,790,o),
(20,801,o),
(20,817,cs),
(20,832,o),
(12,843,o),
(-1,843,cs),
(-13,843,o),
(-20,832,o),
(-20,817,cs),
(-20,801,o),
(-13,790,o),
(-1,790,cs)
);
}
);
};
layerId = "ADAF9463-560A-4353-9B5A-2FAD12EBF6B5";
shapes = (
{
closed = 1;
nodes = (
(59,690,o),
(97,741,o),
(104,842,c),
(85,843,l),
(77,753,o),
(49,709,o),
(-1,709,cs),
(-56,709,o),
(-78,760,o),
(-85,843,c),
(-104,841,l),
(-97,752,o),
(-66,690,o),
(0,690,cs)
);
},
{
closed = 1;
nodes = (
(20,800,o),
(13,789,o),
(0,789,cs),
(-13,789,o),
(-20,800,o),
(-20,816,cs),
(-20,832,o),
(-13,843,o),
(0,843,cs),
(13,843,o),
(20,832,o),
(20,816,cs)
);
}
);
width = 0;
}
);
production = uni0981;
script = bengali;
subCategory = Nonspacing;
unicode = 2433;
}
